<svg width="43" height="44" viewBox="0 0 43 44" fill="none" xmlns="http://www.w3.org/2000/svg">
<path d="M21.3807 39.0988C29.4364 36.3221 35.1777 29.8672 36.0792 21.6485C36.3286 18.0808 36.3073 14.4997 36.0151 10.9346C35.9767 10.3729 35.7302 9.84557 35.3238 9.45581C34.9174 9.06605 34.3803 8.84183 33.8174 8.82695C30.1731 8.71471 25.9372 8.10717 22.6643 4.88329C22.3225 4.54573 21.8615 4.35645 21.3811 4.35645C20.9007 4.35645 20.4397 4.54573 20.0979 4.88329C16.8241 8.10717 12.5883 8.71471 8.9448 8.82695C8.38175 8.84161 7.84441 9.06574 7.43783 9.45552C7.03124 9.8453 6.78465 10.3727 6.74626 10.9346C6.45404 14.4992 6.43259 18.0807 6.68212 21.6485C7.58185 29.8672 13.325 36.3221 21.3807 39.0988Z" stroke="#EFF1ED" stroke-width="2" stroke-linecap="round" stroke-linejoin="round"/>
<path d="M21.3804 22.1778C23.4955 22.1778 25.2101 20.4632 25.2101 18.3482C25.2101 16.2331 23.4955 14.5186 21.3804 14.5186C19.2654 14.5186 17.5508 16.2331 17.5508 18.3482C17.5508 20.4632 19.2654 22.1778 21.3804 22.1778Z" stroke="#EFF1ED" stroke-width="2" stroke-linecap="round" stroke-linejoin="round"/>
<path d="M28.14 28.9372C28.14 27.1442 27.4278 25.4247 26.1599 24.1568C24.8921 22.889 23.1726 22.1768 21.3796 22.1768C19.5866 22.1768 17.8671 22.889 16.5992 24.1568C15.3314 25.4247 14.6191 27.1442 14.6191 28.9372" stroke="#EFF1ED" stroke-width="2" stroke-linecap="round" stroke-linejoin="round"/>
</svg>
