<svg width="341" height="67" viewBox="0 0 341 67" fill="none" xmlns="http://www.w3.org/2000/svg">
<path d="M10.2734 20.4876C10.2734 9.63375 19.0722 0.834961 29.9261 0.834961V0.834961V29.2796H10.2734V20.4876Z" fill="#E5E5EA" stroke="#E5E5EA" stroke-width="0.805851"/>
<rect x="10.2734" y="29.2798" width="19.6526" height="8.1217" fill="#E5E5EA" stroke="#E5E5EA" stroke-width="0.805851"/>
<path d="M29.9277 37.4014V65.8457C25.1681 65.8457 20.8039 64.1533 17.4033 61.3379C14.011 63.598 8.57223 65.7477 2 64.5527C3.81026 63.7769 10.7918 59.1225 10.5332 49.8135C10.5639 49.8557 10.5986 49.8952 10.6318 49.9355C10.3983 48.724 10.2744 47.4731 10.2744 46.1934V37.4014H29.9277Z" fill="#E5E5EA"/>
<path d="M29.9277 37.4014H30.3307V36.9984H29.9277V37.4014ZM29.9277 65.8457V66.2486H30.3307V65.8457H29.9277ZM17.4033 61.3379L17.6603 61.0275L17.4294 60.8364L17.1799 61.0026L17.4033 61.3379ZM2 64.5527L1.84127 64.1824L0.61095 64.7097L1.92792 64.9492L2 64.5527ZM10.5332 49.8135L10.8591 49.5765L10.0943 48.525L10.1304 49.8247L10.5332 49.8135ZM10.6318 49.9355L10.3209 50.1918L11.0275 49.8593L10.6318 49.9355ZM10.2744 46.1934L9.87149 46.1934L9.87149 46.1934L10.2744 46.1934ZM10.2744 37.4014V36.9984H9.87149V37.4014H10.2744ZM29.9277 37.4014H29.5248V65.8457H29.9277H30.3307V37.4014H29.9277ZM29.9277 65.8457V65.4428C25.2653 65.4428 20.9913 63.7853 17.6603 61.0275L17.4033 61.3379L17.1464 61.6483C20.6165 64.5212 25.0708 66.2486 29.9277 66.2486V65.8457ZM17.4033 61.3379L17.1799 61.0026C13.8499 63.2211 8.51589 65.3279 2.07208 64.1563L2 64.5527L1.92792 64.9492C8.62856 66.1675 14.172 63.9748 17.6267 61.6732L17.4033 61.3379ZM2 64.5527L2.15873 64.9231C3.12557 64.5087 5.37683 63.11 7.35705 60.6347C9.34518 58.1495 11.0684 54.568 10.936 49.8023L10.5332 49.8135L10.1304 49.8247C10.2566 54.3679 8.61833 57.7681 6.72778 60.1313C4.82933 62.5044 2.68469 63.8209 1.84127 64.1824L2 64.5527ZM10.5332 49.8135L10.2073 50.0505C10.2476 50.1059 10.2983 50.1644 10.3209 50.1918L10.6318 49.9355L10.9428 49.6793C10.8988 49.6259 10.8802 49.6056 10.8591 49.5765L10.5332 49.8135ZM10.6318 49.9355L11.0275 49.8593C10.7987 48.6724 10.6773 47.447 10.6773 46.1934L10.2744 46.1934L9.87149 46.1934C9.87149 47.4991 9.99786 48.7756 10.2362 50.0118L10.6318 49.9355ZM10.2744 46.1934H10.6773V37.4014H10.2744H9.87149V46.1934H10.2744ZM10.2744 37.4014V37.8043H29.9277V37.4014V36.9984H10.2744V37.4014Z" fill="#E5E5EA"/>
<rect x="29.9258" y="0.834961" width="290.877" height="65.0106" fill="#E5E5EA"/>
<rect x="29.9258" y="0.834961" width="290.877" height="65.0106" stroke="#E5E5EA" stroke-width="0.805851"/>
<path d="M37.6985 21.6131C37.6303 21.0373 37.3538 20.5903 36.869 20.2722C36.3841 19.954 35.7894 19.7949 35.0849 19.7949C34.5697 19.7949 34.119 19.8782 33.7326 20.0449C33.35 20.2115 33.0508 20.4407 32.8349 20.7324C32.6228 21.024 32.5167 21.3555 32.5167 21.7267C32.5167 22.0373 32.5906 22.3043 32.7383 22.5278C32.8898 22.7475 33.083 22.9312 33.3178 23.079C33.5527 23.2229 33.7989 23.3422 34.0565 23.4369C34.314 23.5278 34.5508 23.6017 34.7667 23.6585L35.9485 23.9767C36.2515 24.0562 36.5887 24.1661 36.9599 24.3062C37.3349 24.4464 37.6928 24.6377 38.0337 24.8801C38.3784 25.1187 38.6625 25.4256 38.886 25.8006C39.1095 26.1756 39.2212 26.6358 39.2212 27.1812C39.2212 27.81 39.0565 28.3782 38.7269 28.8858C38.4012 29.3934 37.9239 29.7968 37.2951 30.096C36.6701 30.3953 35.9106 30.5449 35.0167 30.5449C34.1834 30.5449 33.4618 30.4104 32.8519 30.1415C32.2459 29.8725 31.7686 29.4975 31.4201 29.0165C31.0754 28.5354 30.8803 27.9767 30.8349 27.3403H32.2894C32.3273 27.7797 32.475 28.1434 32.7326 28.4312C32.994 28.7153 33.3235 28.9275 33.7212 29.0676C34.1228 29.204 34.5546 29.2722 35.0167 29.2722C35.5546 29.2722 36.0375 29.185 36.4656 29.0108C36.8936 28.8328 37.2326 28.5865 37.4826 28.2722C37.7326 27.954 37.8576 27.5828 37.8576 27.1585C37.8576 26.7722 37.7496 26.4578 37.5337 26.2153C37.3178 25.9729 37.0337 25.7759 36.6815 25.6244C36.3292 25.4729 35.9485 25.3403 35.5394 25.2267L34.1076 24.8176C33.1985 24.5562 32.4788 24.1831 31.9485 23.6983C31.4182 23.2134 31.1531 22.579 31.1531 21.7949C31.1531 21.1434 31.3292 20.5752 31.6815 20.0903C32.0375 19.6017 32.5148 19.2229 33.1133 18.954C33.7156 18.6812 34.3879 18.5449 35.1303 18.5449C35.8803 18.5449 36.547 18.6793 37.1303 18.9483C37.7137 19.2134 38.1758 19.5771 38.5167 20.0392C38.8614 20.5013 39.0432 21.0259 39.0621 21.6131H37.6985ZM42.0153 30.3403H40.538L44.8107 18.704H46.2653L50.538 30.3403H49.0607L45.5835 20.5449H45.4925L42.0153 30.3403ZM42.5607 25.7949H48.5153V27.0449H42.5607V25.7949ZM52.3505 30.3403V18.704H53.7596V29.0903H59.1687V30.3403H52.3505ZM61.3505 30.3403V18.704H68.3732V19.954H62.7596V23.8858H68.0096V25.1358H62.7596V29.0903H68.4641V30.3403H61.3505ZM72.5039 18.704L72.3903 27.0676H71.0721L70.9585 18.704H72.5039ZM71.7312 30.4312C71.4509 30.4312 71.2103 30.3309 71.0096 30.1301C70.8088 29.9293 70.7085 29.6888 70.7085 29.4085C70.7085 29.1282 70.8088 28.8877 71.0096 28.6869C71.2103 28.4862 71.4509 28.3858 71.7312 28.3858C72.0115 28.3858 72.252 28.4862 72.4528 28.6869C72.6535 28.8877 72.7539 29.1282 72.7539 29.4085C72.7539 29.5941 72.7066 29.7646 72.6119 29.9199C72.521 30.0752 72.3978 30.2002 72.2425 30.2949C72.091 30.3858 71.9206 30.4312 71.7312 30.4312ZM84.6843 23.8972V25.1472H79.5934V23.8972H84.6843ZM86.4741 30.3403V29.3176L90.315 25.1131C90.7657 24.6206 91.137 24.1926 91.4286 23.829C91.7203 23.4615 91.9362 23.1168 92.0763 22.7949C92.2203 22.4691 92.2923 22.1282 92.2923 21.7722C92.2923 21.3631 92.1938 21.0089 91.9968 20.7097C91.8036 20.4104 91.5385 20.1793 91.2013 20.0165C90.8642 19.8536 90.4854 19.7722 90.065 19.7722C89.618 19.7722 89.2279 19.865 88.8945 20.0506C88.565 20.2324 88.3093 20.4881 88.1275 20.8176C87.9495 21.1472 87.8604 21.5335 87.8604 21.9767H86.5195C86.5195 21.2949 86.6767 20.6964 86.9911 20.1812C87.3055 19.6661 87.7335 19.2646 88.2752 18.9767C88.8207 18.6888 89.4324 18.5449 90.1104 18.5449C90.7923 18.5449 91.3964 18.6888 91.9229 18.9767C92.4495 19.2646 92.8623 19.6528 93.1616 20.1415C93.4608 20.6301 93.6104 21.1737 93.6104 21.7722C93.6104 22.2002 93.5328 22.6187 93.3775 23.0278C93.226 23.4331 92.9608 23.8858 92.582 24.3858C92.207 24.882 91.6862 25.4881 91.0195 26.204L88.4059 28.9994V29.0903H93.815V30.3403H86.4741ZM99.957 30.4994C99.101 30.4994 98.3718 30.2665 97.7695 29.8006C97.1673 29.3309 96.707 28.6509 96.3888 27.7608C96.0707 26.8668 95.9116 25.7873 95.9116 24.5222C95.9116 23.2646 96.0707 22.1907 96.3888 21.3006C96.7108 20.4066 97.1729 19.7248 97.7752 19.2551C98.3813 18.7816 99.1085 18.5449 99.957 18.5449C100.806 18.5449 101.531 18.7816 102.133 19.2551C102.739 19.7248 103.201 20.4066 103.52 21.3006C103.842 22.1907 104.002 23.2646 104.002 24.5222C104.002 25.7873 103.843 26.8668 103.525 27.7608C103.207 28.6509 102.747 29.3309 102.145 29.8006C101.542 30.2665 100.813 30.4994 99.957 30.4994ZM99.957 29.2494C100.806 29.2494 101.465 28.8403 101.934 28.0222C102.404 27.204 102.639 26.0373 102.639 24.5222C102.639 23.5146 102.531 22.6566 102.315 21.9483C102.103 21.24 101.796 20.7002 101.395 20.329C100.997 19.9578 100.518 19.7722 99.957 19.7722C99.1161 19.7722 98.4589 20.1869 97.9854 21.0165C97.512 21.8422 97.2752 23.0108 97.2752 24.5222C97.2752 25.5297 97.3813 26.3858 97.5934 27.0903C97.8055 27.7949 98.1104 28.3309 98.5082 28.6983C98.9097 29.0657 99.3926 29.2494 99.957 29.2494ZM112.093 28.1585V27.5449C112.093 27.1206 112.181 26.7324 112.355 26.3801C112.533 26.024 112.79 25.74 113.127 25.5278C113.468 25.3119 113.881 25.204 114.366 25.204C114.859 25.204 115.271 25.3119 115.605 25.5278C115.938 25.74 116.19 26.024 116.36 26.3801C116.531 26.7324 116.616 27.1206 116.616 27.5449V28.1585C116.616 28.5828 116.529 28.9729 116.355 29.329C116.184 29.6812 115.931 29.9653 115.593 30.1812C115.26 30.3934 114.851 30.4994 114.366 30.4994C113.874 30.4994 113.459 30.3934 113.122 30.1812C112.785 29.9653 112.529 29.6812 112.355 29.329C112.181 28.9729 112.093 28.5828 112.093 28.1585ZM113.252 27.5449V28.1585C113.252 28.5108 113.336 28.8271 113.502 29.1074C113.669 29.3839 113.957 29.5222 114.366 29.5222C114.764 29.5222 115.044 29.3839 115.207 29.1074C115.374 28.8271 115.457 28.5108 115.457 28.1585V27.5449C115.457 27.1926 115.377 26.8782 115.218 26.6017C115.059 26.3214 114.775 26.1812 114.366 26.1812C113.968 26.1812 113.682 26.3214 113.508 26.6017C113.338 26.8782 113.252 27.1926 113.252 27.5449ZM106.298 21.4994V20.8858C106.298 20.4615 106.385 20.0733 106.559 19.721C106.737 19.365 106.995 19.0809 107.332 18.8687C107.673 18.6528 108.086 18.5449 108.571 18.5449C109.063 18.5449 109.476 18.6528 109.809 18.8687C110.143 19.0809 110.395 19.365 110.565 19.721C110.735 20.0733 110.821 20.4615 110.821 20.8858V21.4994C110.821 21.9237 110.734 22.3138 110.559 22.6699C110.389 23.0222 110.135 23.3062 109.798 23.5222C109.465 23.7343 109.056 23.8403 108.571 23.8403C108.078 23.8403 107.663 23.7343 107.326 23.5222C106.989 23.3062 106.734 23.0222 106.559 22.6699C106.385 22.3138 106.298 21.9237 106.298 21.4994ZM107.457 20.8858V21.4994C107.457 21.8517 107.54 22.168 107.707 22.4483C107.874 22.7248 108.162 22.8631 108.571 22.8631C108.968 22.8631 109.249 22.7248 109.412 22.4483C109.578 22.168 109.662 21.8517 109.662 21.4994V20.8858C109.662 20.5335 109.582 20.2191 109.423 19.9426C109.264 19.6623 108.98 19.5222 108.571 19.5222C108.173 19.5222 107.887 19.6623 107.713 19.9426C107.542 20.2191 107.457 20.5335 107.457 20.8858ZM106.73 30.3403L114.73 18.704H116.025L108.025 30.3403H106.73ZM129.525 25.3631V26.6131H124.707V25.3631H129.525ZM125.025 21.6131V30.3403H123.684V21.6131H125.025ZM130.548 21.6131V30.3403H129.207V21.6131H130.548ZM135.565 30.5449C135.012 30.5449 134.51 30.4407 134.059 30.2324C133.609 30.0203 133.251 29.7153 132.985 29.3176C132.72 28.9161 132.588 28.4312 132.588 27.8631C132.588 27.3631 132.686 26.9578 132.883 26.6472C133.08 26.3328 133.343 26.0865 133.673 25.9085C134.002 25.7305 134.366 25.5979 134.764 25.5108C135.165 25.4199 135.569 25.3479 135.974 25.2949C136.504 25.2267 136.934 25.1756 137.264 25.1415C137.597 25.1036 137.84 25.0411 137.991 24.954C138.146 24.8668 138.224 24.7153 138.224 24.4994V24.454C138.224 23.8934 138.071 23.4578 137.764 23.1472C137.461 22.8365 137.001 22.6812 136.383 22.6812C135.743 22.6812 135.241 22.8214 134.877 23.1017C134.514 23.382 134.258 23.6812 134.11 23.9994L132.838 23.5449C133.065 23.0146 133.368 22.6017 133.747 22.3062C134.129 22.007 134.546 21.7987 134.997 21.6812C135.451 21.56 135.898 21.4994 136.338 21.4994C136.618 21.4994 136.94 21.5335 137.304 21.6017C137.671 21.6661 138.025 21.8006 138.366 22.0051C138.711 22.2097 138.997 22.5184 139.224 22.9312C139.451 23.3441 139.565 23.8972 139.565 24.5903V30.3403H138.224V29.1585H138.156C138.065 29.3479 137.913 29.5506 137.701 29.7665C137.489 29.9824 137.207 30.1661 136.855 30.3176C136.502 30.4691 136.073 30.5449 135.565 30.5449ZM135.77 29.3403C136.3 29.3403 136.747 29.2362 137.11 29.0278C137.478 28.8195 137.754 28.5506 137.94 28.221C138.129 27.8915 138.224 27.5449 138.224 27.1812V25.954C138.167 26.0222 138.042 26.0847 137.849 26.1415C137.66 26.1945 137.44 26.2418 137.19 26.2835C136.944 26.3214 136.703 26.3555 136.468 26.3858C136.237 26.4123 136.05 26.435 135.906 26.454C135.557 26.4994 135.232 26.5733 134.929 26.6756C134.629 26.774 134.387 26.9237 134.201 27.1244C134.02 27.3214 133.929 27.5903 133.929 27.9312C133.929 28.3972 134.101 28.7494 134.446 28.9881C134.794 29.2229 135.235 29.3403 135.77 29.3403ZM146.512 30.3403V21.6131H150.081C151.02 21.6131 151.766 21.8252 152.319 22.2494C152.872 22.6737 153.149 23.2343 153.149 23.9312C153.149 24.4615 152.992 24.8725 152.677 25.1642C152.363 25.4521 151.959 25.6472 151.467 25.7494C151.789 25.7949 152.101 25.9085 152.404 26.0903C152.711 26.2722 152.965 26.5222 153.166 26.8403C153.367 27.1547 153.467 27.5411 153.467 27.9994C153.467 28.4464 153.353 28.846 153.126 29.1983C152.899 29.5506 152.573 29.829 152.149 30.0335C151.725 30.2381 151.217 30.3403 150.626 30.3403H146.512ZM147.785 29.1131H150.626C151.088 29.1131 151.45 29.0032 151.711 28.7835C151.973 28.5638 152.103 28.2646 152.103 27.8858C152.103 27.435 151.973 27.0809 151.711 26.8233C151.45 26.5619 151.088 26.4312 150.626 26.4312H147.785V29.1131ZM147.785 25.2722H150.081C150.44 25.2722 150.749 25.2229 151.007 25.1244C151.264 25.0221 151.461 24.8782 151.598 24.6926C151.738 24.5032 151.808 24.2797 151.808 24.0222C151.808 23.6547 151.654 23.3668 151.348 23.1585C151.041 22.9464 150.618 22.8403 150.081 22.8403H147.785V25.2722ZM159.042 30.5222C158.224 30.5222 157.52 30.329 156.929 29.9426C156.338 29.5562 155.883 29.024 155.565 28.346C155.247 27.668 155.088 26.8934 155.088 26.0222C155.088 25.1358 155.251 24.3536 155.576 23.6756C155.906 22.9937 156.364 22.4615 156.951 22.079C157.542 21.6926 158.232 21.4994 159.02 21.4994C159.633 21.4994 160.186 21.6131 160.679 21.8403C161.171 22.0676 161.574 22.3858 161.889 22.7949C162.203 23.204 162.398 23.6812 162.474 24.2267H161.133C161.031 23.829 160.804 23.4767 160.451 23.1699C160.103 22.8593 159.633 22.704 159.042 22.704C158.52 22.704 158.061 22.8403 157.667 23.1131C157.277 23.382 156.972 23.7627 156.752 24.2551C156.537 24.7437 156.429 25.3176 156.429 25.9767C156.429 26.6509 156.535 27.2381 156.747 27.7381C156.963 28.2381 157.266 28.6263 157.656 28.9028C158.05 29.1793 158.512 29.3176 159.042 29.3176C159.391 29.3176 159.707 29.257 159.991 29.1358C160.275 29.0146 160.516 28.8403 160.713 28.6131C160.91 28.3858 161.05 28.1131 161.133 27.7949H162.474C162.398 28.31 162.211 28.774 161.912 29.1869C161.616 29.596 161.224 29.9218 160.735 30.1642C160.251 30.4028 159.686 30.5222 159.042 30.5222ZM168.093 30.5222C167.252 30.5222 166.527 30.3365 165.917 29.9653C165.311 29.5903 164.843 29.0676 164.514 28.3972C164.188 27.7229 164.025 26.9388 164.025 26.0449C164.025 25.1509 164.188 24.3631 164.514 23.6812C164.843 22.9956 165.302 22.4615 165.889 22.079C166.48 21.6926 167.169 21.4994 167.957 21.4994C168.412 21.4994 168.86 21.5752 169.304 21.7267C169.747 21.8782 170.15 22.1244 170.514 22.4653C170.877 22.8025 171.167 23.2494 171.383 23.8062C171.599 24.3631 171.707 25.0487 171.707 25.8631V26.4312H164.98V25.2722H170.343C170.343 24.7797 170.245 24.3403 170.048 23.954C169.855 23.5676 169.578 23.2627 169.218 23.0392C168.862 22.8157 168.442 22.704 167.957 22.704C167.423 22.704 166.961 22.8365 166.571 23.1017C166.184 23.3631 165.887 23.704 165.679 24.1244C165.47 24.5449 165.366 24.9956 165.366 25.4767V26.2494C165.366 26.9085 165.48 27.4672 165.707 27.9256C165.938 28.3801 166.258 28.7267 166.667 28.9653C167.076 29.2002 167.552 29.3176 168.093 29.3176C168.446 29.3176 168.764 29.2684 169.048 29.1699C169.336 29.0676 169.584 28.9161 169.792 28.7153C170.001 28.5108 170.162 28.257 170.275 27.954L171.571 28.3176C171.434 28.757 171.205 29.1434 170.883 29.4767C170.561 29.8062 170.163 30.0638 169.69 30.2494C169.217 30.4312 168.684 30.5222 168.093 30.5222ZM166.252 20.1585C166.014 20.1585 165.802 20.0676 165.616 19.8858C165.434 19.7002 165.343 19.4881 165.343 19.2494C165.343 18.9881 165.434 18.7721 165.616 18.6017C165.802 18.4275 166.014 18.3403 166.252 18.3403C166.514 18.3403 166.73 18.4275 166.9 18.6017C167.074 18.7721 167.162 18.9881 167.162 19.2494C167.162 19.4881 167.074 19.7002 166.9 19.8858C166.73 20.0676 166.514 20.1585 166.252 20.1585ZM169.525 20.1585C169.287 20.1585 169.074 20.0676 168.889 19.8858C168.707 19.7002 168.616 19.4881 168.616 19.2494C168.616 18.9881 168.707 18.7721 168.889 18.6017C169.074 18.4275 169.287 18.3403 169.525 18.3403C169.787 18.3403 170.002 18.4275 170.173 18.6017C170.347 18.7721 170.434 18.9881 170.434 19.2494C170.434 19.4881 170.347 19.7002 170.173 19.8858C170.002 20.0676 169.787 20.1585 169.525 20.1585ZM174.724 30.4312C174.444 30.4312 174.203 30.3309 174.002 30.1301C173.802 29.9293 173.701 29.6888 173.701 29.4085C173.701 29.1282 173.802 28.8877 174.002 28.6869C174.203 28.4862 174.444 28.3858 174.724 28.3858C175.004 28.3858 175.245 28.4862 175.446 28.6869C175.646 28.8877 175.747 29.1282 175.747 29.4085C175.747 29.5941 175.699 29.7646 175.605 29.9199C175.514 30.0752 175.391 30.2002 175.235 30.2949C175.084 30.3858 174.913 30.4312 174.724 30.4312ZM40.0394 36.704V48.3403H38.6303V37.954H32.7667V48.3403H31.3576V36.704H40.0394ZM46.2454 48.5222C45.4575 48.5222 44.7662 48.3347 44.1715 47.9597C43.5806 47.5847 43.1185 47.06 42.7852 46.3858C42.4556 45.7115 42.2908 44.9237 42.2908 44.0222C42.2908 43.1131 42.4556 42.3195 42.7852 41.6415C43.1185 40.9634 43.5806 40.4369 44.1715 40.0619C44.7662 39.6869 45.4575 39.4994 46.2454 39.4994C47.0333 39.4994 47.7227 39.6869 48.3136 40.0619C48.9083 40.4369 49.3704 40.9634 49.6999 41.6415C50.0333 42.3195 50.1999 43.1131 50.1999 44.0222C50.1999 44.9237 50.0333 45.7115 49.6999 46.3858C49.3704 47.06 48.9083 47.5847 48.3136 47.9597C47.7227 48.3347 47.0333 48.5222 46.2454 48.5222ZM46.2454 47.3176C46.8439 47.3176 47.3363 47.1642 47.7227 46.8574C48.109 46.5506 48.395 46.1472 48.5806 45.6472C48.7662 45.1472 48.859 44.6055 48.859 44.0222C48.859 43.4388 48.7662 42.8953 48.5806 42.3915C48.395 41.8877 48.109 41.4805 47.7227 41.1699C47.3363 40.8593 46.8439 40.704 46.2454 40.704C45.6469 40.704 45.1545 40.8593 44.7681 41.1699C44.3817 41.4805 44.0958 41.8877 43.9102 42.3915C43.7246 42.8953 43.6317 43.4388 43.6317 44.0222C43.6317 44.6055 43.7246 45.1472 43.9102 45.6472C44.0958 46.1472 44.3817 46.5506 44.7681 46.8574C45.1545 47.1642 45.6469 47.3176 46.2454 47.3176ZM51.315 50.8403V47.0903H52.0423C52.2203 46.9047 52.3737 46.704 52.5025 46.4881C52.6313 46.2722 52.743 46.0165 52.8377 45.721C52.9362 45.4218 53.0195 45.0581 53.0877 44.6301C53.1559 44.1983 53.2165 43.6775 53.2695 43.0676L53.565 39.6131H59.1104V47.0903H60.4513V50.8403H59.1104V48.3403H52.6559V50.8403H51.315ZM53.565 47.0903H57.7695V40.8631H54.815L54.5877 43.0676C54.493 43.9805 54.3756 44.7778 54.2354 45.4597C54.0953 46.1415 53.8718 46.685 53.565 47.0903ZM62.2312 51.6131V39.6131H63.5266V40.9994H63.6857C63.7842 40.8479 63.9206 40.6547 64.0948 40.4199C64.2728 40.1812 64.5266 39.9691 64.8562 39.7835C65.1895 39.5941 65.6403 39.4994 66.2085 39.4994C66.9433 39.4994 67.591 39.6831 68.1516 40.0506C68.7122 40.418 69.1497 40.9388 69.4641 41.6131C69.7785 42.2873 69.9357 43.0828 69.9357 43.9994C69.9357 44.9237 69.7785 45.7248 69.4641 46.4028C69.1497 47.0771 68.7141 47.5998 68.1573 47.971C67.6005 48.3384 66.9585 48.5222 66.2312 48.5222C65.6706 48.5222 65.2217 48.4293 64.8846 48.2437C64.5475 48.0543 64.288 47.8403 64.1062 47.6017C63.9244 47.3593 63.7842 47.1585 63.6857 46.9994H63.5721V51.6131H62.2312ZM63.5494 43.9767C63.5494 44.6358 63.646 45.2172 63.8391 45.721C64.0323 46.221 64.3145 46.6131 64.6857 46.8972C65.0569 47.1775 65.5115 47.3176 66.0494 47.3176C66.61 47.3176 67.0778 47.1699 67.4528 46.8744C67.8316 46.5752 68.1156 46.1737 68.305 45.6699C68.4982 45.1623 68.5948 44.5979 68.5948 43.9767C68.5948 43.3631 68.5001 42.81 68.3107 42.3176C68.1251 41.8214 67.8429 41.4293 67.4641 41.1415C67.0891 40.8498 66.6175 40.704 66.0494 40.704C65.5039 40.704 65.0456 40.8422 64.6744 41.1187C64.3031 41.3915 64.0228 41.774 63.8335 42.2665C63.6441 42.7551 63.5494 43.3252 63.5494 43.9767ZM75.5266 48.5222C74.7388 48.5222 74.0475 48.3347 73.4528 47.9597C72.8619 47.5847 72.3997 47.06 72.0664 46.3858C71.7369 45.7115 71.5721 44.9237 71.5721 44.0222C71.5721 43.1131 71.7369 42.3195 72.0664 41.6415C72.3997 40.9634 72.8619 40.4369 73.4528 40.0619C74.0475 39.6869 74.7388 39.4994 75.5266 39.4994C76.3145 39.4994 77.0039 39.6869 77.5948 40.0619C78.1895 40.4369 78.6516 40.9634 78.9812 41.6415C79.3145 42.3195 79.4812 43.1131 79.4812 44.0222C79.4812 44.9237 79.3145 45.7115 78.9812 46.3858C78.6516 47.06 78.1895 47.5847 77.5948 47.9597C77.0039 48.3347 76.3145 48.5222 75.5266 48.5222ZM75.5266 47.3176C76.1251 47.3176 76.6175 47.1642 77.0039 46.8574C77.3903 46.5506 77.6763 46.1472 77.8619 45.6472C78.0475 45.1472 78.1403 44.6055 78.1403 44.0222C78.1403 43.4388 78.0475 42.8953 77.8619 42.3915C77.6763 41.8877 77.3903 41.4805 77.0039 41.1699C76.6175 40.8593 76.1251 40.704 75.5266 40.704C74.9281 40.704 74.4357 40.8593 74.0494 41.1699C73.663 41.4805 73.377 41.8877 73.1914 42.3915C73.0058 42.8953 72.913 43.4388 72.913 44.0222C72.913 44.6055 73.0058 45.1472 73.1914 45.6472C73.377 46.1472 73.663 46.5506 74.0494 46.8574C74.4357 47.1642 74.9281 47.3176 75.5266 47.3176ZM88.0053 36.3403L88.6871 37.1585C88.422 37.4161 88.1152 37.596 87.7667 37.6983C87.4182 37.8006 87.0243 37.8631 86.5849 37.8858C86.1455 37.9085 85.6568 37.9312 85.119 37.954C84.5129 37.9767 84.011 38.1244 83.6133 38.3972C83.2156 38.6699 82.9087 39.0638 82.6928 39.579C82.4769 40.0941 82.3387 40.7267 82.2781 41.4767H82.3917C82.6871 40.9312 83.0962 40.5297 83.619 40.2722C84.1417 40.0146 84.7023 39.8858 85.3008 39.8858C85.9826 39.8858 86.5962 40.0449 87.1417 40.3631C87.6871 40.6812 88.119 41.1528 88.4371 41.7778C88.7553 42.4028 88.9144 43.1737 88.9144 44.0903C88.9144 45.0032 88.7515 45.7911 88.4258 46.454C88.1038 47.1168 87.6512 47.6282 87.0678 47.9881C86.4883 48.3441 85.8084 48.5222 85.0281 48.5222C84.2478 48.5222 83.564 48.3384 82.9769 47.971C82.3898 47.5998 81.9334 47.0506 81.6076 46.3233C81.2818 45.5922 81.119 44.6888 81.119 43.6131V42.6812C81.119 40.7381 81.4485 39.2646 82.1076 38.2608C82.7705 37.257 83.7667 36.7381 85.0962 36.704C85.5659 36.6888 85.9845 36.685 86.3519 36.6926C86.7193 36.7002 87.0394 36.6831 87.3121 36.6415C87.5849 36.5998 87.8159 36.4994 88.0053 36.3403ZM85.0281 47.3176C85.5546 47.3176 86.0072 47.185 86.386 46.9199C86.7686 46.6547 87.0621 46.2816 87.2667 45.8006C87.4712 45.3157 87.5735 44.7456 87.5735 44.0903C87.5735 43.454 87.4693 42.9123 87.261 42.4653C87.0565 42.0184 86.7629 41.6775 86.3803 41.4426C85.9978 41.2078 85.5394 41.0903 85.0053 41.0903C84.6152 41.0903 84.2648 41.1566 83.9542 41.2892C83.6436 41.4218 83.3784 41.6168 83.1587 41.8744C82.939 42.132 82.7686 42.4464 82.6474 42.8176C82.5299 43.1888 82.4674 43.6131 82.4599 44.0903C82.4599 45.0676 82.689 45.8498 83.1474 46.4369C83.6057 47.024 84.2326 47.3176 85.0281 47.3176ZM96.8065 43.3631V44.6131H91.9883V43.3631H96.8065ZM92.3065 39.6131V48.3403H90.9656V39.6131H92.3065ZM97.8292 39.6131V48.3403H96.4883V39.6131H97.8292ZM103.824 48.5222C103.036 48.5222 102.344 48.3347 101.75 47.9597C101.159 47.5847 100.697 47.06 100.363 46.3858C100.034 45.7115 99.869 44.9237 99.869 44.0222C99.869 43.1131 100.034 42.3195 100.363 41.6415C100.697 40.9634 101.159 40.4369 101.75 40.0619C102.344 39.6869 103.036 39.4994 103.824 39.4994C104.611 39.4994 105.301 39.6869 105.892 40.0619C106.486 40.4369 106.949 40.9634 107.278 41.6415C107.611 42.3195 107.778 43.1131 107.778 44.0222C107.778 44.9237 107.611 45.7115 107.278 46.3858C106.949 47.06 106.486 47.5847 105.892 47.9597C105.301 48.3347 104.611 48.5222 103.824 48.5222ZM103.824 47.3176C104.422 47.3176 104.914 47.1642 105.301 46.8574C105.687 46.5506 105.973 46.1472 106.159 45.6472C106.344 45.1472 106.437 44.6055 106.437 44.0222C106.437 43.4388 106.344 42.8953 106.159 42.3915C105.973 41.8877 105.687 41.4805 105.301 41.1699C104.914 40.8593 104.422 40.704 103.824 40.704C103.225 40.704 102.733 40.8593 102.346 41.1699C101.96 41.4805 101.674 41.8877 101.488 42.3915C101.303 42.8953 101.21 43.4388 101.21 44.0222C101.21 44.6055 101.303 45.1472 101.488 45.6472C101.674 46.1472 101.96 46.5506 102.346 46.8574C102.733 47.1642 103.225 47.3176 103.824 47.3176ZM113.37 48.5222C112.552 48.5222 111.848 48.329 111.257 47.9426C110.666 47.5562 110.211 47.024 109.893 46.346C109.575 45.668 109.416 44.8934 109.416 44.0222C109.416 43.1358 109.579 42.3536 109.904 41.6756C110.234 40.9937 110.692 40.4615 111.279 40.079C111.87 39.6926 112.56 39.4994 113.348 39.4994C113.961 39.4994 114.514 39.6131 115.007 39.8403C115.499 40.0676 115.903 40.3858 116.217 40.7949C116.531 41.204 116.726 41.6812 116.802 42.2267H115.461C115.359 41.829 115.132 41.4767 114.779 41.1699C114.431 40.8593 113.961 40.704 113.37 40.704C112.848 40.704 112.389 40.8403 111.995 41.1131C111.605 41.382 111.3 41.7627 111.081 42.2551C110.865 42.7437 110.757 43.3176 110.757 43.9767C110.757 44.6509 110.863 45.2381 111.075 45.7381C111.291 46.2381 111.594 46.6263 111.984 46.9028C112.378 47.1793 112.84 47.3176 113.37 47.3176C113.719 47.3176 114.035 47.257 114.319 47.1358C114.603 47.0146 114.844 46.8403 115.041 46.6131C115.238 46.3858 115.378 46.1131 115.461 45.7949H116.802C116.726 46.31 116.539 46.774 116.24 47.1869C115.944 47.596 115.552 47.9218 115.064 48.1642C114.579 48.4028 114.014 48.5222 113.37 48.5222ZM118.075 40.8631V39.6131H125.166V40.8631H122.302V48.3403H120.961V40.8631H118.075ZM128.463 46.3631L132.667 39.6131H134.213V48.3403H132.872V41.5903L128.69 48.3403H127.122V39.6131H128.463V46.3631ZM137.646 48.4312C137.366 48.4312 137.125 48.3309 136.924 48.1301C136.724 47.9293 136.623 47.6888 136.623 47.4085C136.623 47.1282 136.724 46.8877 136.924 46.6869C137.125 46.4862 137.366 46.3858 137.646 46.3858C137.926 46.3858 138.167 46.4862 138.368 46.6869C138.568 46.8877 138.669 47.1282 138.669 47.4085C138.669 47.5941 138.621 47.7646 138.527 47.9199C138.436 48.0752 138.313 48.2002 138.157 48.2949C138.006 48.3858 137.835 48.4312 137.646 48.4312ZM137.646 41.954C137.366 41.954 137.125 41.8536 136.924 41.6528C136.724 41.4521 136.623 41.2115 136.623 40.9312C136.623 40.6509 136.724 40.4104 136.924 40.2097C137.125 40.0089 137.366 39.9085 137.646 39.9085C137.926 39.9085 138.167 40.0089 138.368 40.2097C138.568 40.4104 138.669 40.6509 138.669 40.9312C138.669 41.1168 138.621 41.2873 138.527 41.4426C138.436 41.5979 138.313 41.7229 138.157 41.8176C138.006 41.9085 137.835 41.954 137.646 41.954ZM145.757 48.3403V36.704H147.098V40.9994H147.211C147.31 40.8479 147.446 40.6547 147.62 40.4199C147.798 40.1812 148.052 39.9691 148.382 39.7835C148.715 39.5941 149.166 39.4994 149.734 39.4994C150.469 39.4994 151.117 39.6831 151.677 40.0506C152.238 40.418 152.675 40.9388 152.99 41.6131C153.304 42.2873 153.461 43.0828 153.461 43.9994C153.461 44.9237 153.304 45.7248 152.99 46.4028C152.675 47.0771 152.24 47.5998 151.683 47.971C151.126 48.3384 150.484 48.5222 149.757 48.5222C149.196 48.5222 148.747 48.4293 148.41 48.2437C148.073 48.0543 147.814 47.8403 147.632 47.6017C147.45 47.3593 147.31 47.1585 147.211 46.9994H147.052V48.3403H145.757ZM147.075 43.9767C147.075 44.6358 147.172 45.2172 147.365 45.721C147.558 46.221 147.84 46.6131 148.211 46.8972C148.583 47.1775 149.037 47.3176 149.575 47.3176C150.136 47.3176 150.603 47.1699 150.978 46.8744C151.357 46.5752 151.641 46.1737 151.831 45.6699C152.024 45.1623 152.12 44.5979 152.12 43.9767C152.12 43.3631 152.026 42.81 151.836 42.3176C151.651 41.8214 151.368 41.4293 150.99 41.1415C150.615 40.8498 150.143 40.704 149.575 40.704C149.029 40.704 148.571 40.8422 148.2 41.1187C147.829 41.3915 147.548 41.774 147.359 42.2665C147.17 42.7551 147.075 43.3252 147.075 43.9767ZM155.512 48.3403V39.6131H156.853V48.3403H155.512ZM156.194 38.1585C155.933 38.1585 155.708 38.0695 155.518 37.8915C155.333 37.7134 155.24 37.4994 155.24 37.2494C155.24 36.9994 155.333 36.7854 155.518 36.6074C155.708 36.4293 155.933 36.3403 156.194 36.3403C156.456 36.3403 156.679 36.4293 156.865 36.6074C157.054 36.7854 157.149 36.9994 157.149 37.2494C157.149 37.4994 157.054 37.7134 156.865 37.8915C156.679 38.0695 156.456 38.1585 156.194 38.1585ZM163.105 39.6131V40.7494H158.582V39.6131H163.105ZM159.9 37.5222H161.241V45.8403C161.241 46.2191 161.296 46.5032 161.406 46.6926C161.52 46.8782 161.663 47.0032 161.838 47.0676C162.016 47.1282 162.203 47.1585 162.4 47.1585C162.548 47.1585 162.669 47.1509 162.764 47.1358C162.859 47.1168 162.934 47.1017 162.991 47.0903L163.264 48.2949C163.173 48.329 163.046 48.3631 162.883 48.3972C162.72 48.435 162.514 48.454 162.264 48.454C161.885 48.454 161.514 48.3725 161.15 48.2097C160.79 48.0468 160.491 47.7987 160.252 47.4653C160.018 47.132 159.9 46.7115 159.9 46.204V37.5222ZM166.099 48.4312C165.819 48.4312 165.578 48.3309 165.377 48.1301C165.177 47.9293 165.076 47.6888 165.076 47.4085C165.076 47.1282 165.177 46.8877 165.377 46.6869C165.578 46.4862 165.819 46.3858 166.099 46.3858C166.379 46.3858 166.62 46.4862 166.821 46.6869C167.021 46.8877 167.122 47.1282 167.122 47.4085C167.122 47.5941 167.074 47.7646 166.98 47.9199C166.889 48.0752 166.766 48.2002 166.61 48.2949C166.459 48.3858 166.288 48.4312 166.099 48.4312ZM170.869 36.704V48.3403H169.528V36.704H170.869ZM174.189 51.6131C173.961 51.6131 173.759 51.5941 173.581 51.5562C173.403 51.5222 173.279 51.4881 173.211 51.454L173.552 50.2722C173.878 50.3555 174.166 50.3858 174.416 50.3631C174.666 50.3403 174.887 50.2286 175.081 50.0278C175.278 49.8309 175.458 49.5108 175.62 49.0676L175.87 48.3858L172.643 39.6131H174.098L176.507 46.5676H176.598L179.007 39.6131H180.461L176.757 49.6131C176.59 50.0638 176.384 50.4369 176.137 50.7324C175.891 51.0316 175.605 51.2532 175.279 51.3972C174.958 51.5411 174.594 51.6131 174.189 51.6131ZM185.439 36.1585L181.689 50.0903H180.461L184.211 36.1585H185.439ZM188.028 39.6131L190.119 43.1812L192.21 39.6131H193.755L190.937 43.9767L193.755 48.3403H192.21L190.119 44.954L188.028 48.3403H186.483L189.255 43.9767L186.483 39.6131H188.028ZM196.01 48.3403L201.214 38.0449V37.954H195.214V36.704H202.669V38.0222L197.487 48.3403H196.01ZM204.787 48.3403V47.3176L208.627 43.1131C209.078 42.6206 209.449 42.1926 209.741 41.829C210.033 41.4615 210.249 41.1168 210.389 40.7949C210.533 40.4691 210.605 40.1282 210.605 39.7722C210.605 39.3631 210.506 39.0089 210.309 38.7097C210.116 38.4104 209.851 38.1793 209.514 38.0165C209.177 37.8536 208.798 37.7722 208.377 37.7722C207.931 37.7722 207.54 37.865 207.207 38.0506C206.877 38.2324 206.622 38.4881 206.44 38.8176C206.262 39.1472 206.173 39.5335 206.173 39.9767H204.832C204.832 39.2949 204.989 38.6964 205.304 38.1812C205.618 37.6661 206.046 37.2646 206.588 36.9767C207.133 36.6888 207.745 36.5449 208.423 36.5449C209.105 36.5449 209.709 36.6888 210.235 36.9767C210.762 37.2646 211.175 37.6528 211.474 38.1415C211.773 38.6301 211.923 39.1737 211.923 39.7722C211.923 40.2002 211.845 40.6187 211.69 41.0278C211.538 41.4331 211.273 41.8858 210.895 42.3858C210.52 42.882 209.999 43.4881 209.332 44.204L206.718 46.9994V47.0903H212.127V48.3403H204.787ZM217.065 48.5449C216.512 48.5449 216.01 48.4407 215.559 48.2324C215.109 48.0203 214.751 47.7153 214.485 47.3176C214.22 46.9161 214.088 46.4312 214.088 45.8631C214.088 45.3631 214.186 44.9578 214.383 44.6472C214.58 44.3328 214.843 44.0865 215.173 43.9085C215.502 43.7305 215.866 43.5979 216.264 43.5108C216.665 43.4199 217.069 43.3479 217.474 43.2949C218.004 43.2267 218.434 43.1756 218.764 43.1415C219.097 43.1036 219.34 43.0411 219.491 42.954C219.646 42.8668 219.724 42.7153 219.724 42.4994V42.454C219.724 41.8934 219.571 41.4578 219.264 41.1472C218.961 40.8365 218.501 40.6812 217.883 40.6812C217.243 40.6812 216.741 40.8214 216.377 41.1017C216.014 41.382 215.758 41.6812 215.61 41.9994L214.338 41.5449C214.565 41.0146 214.868 40.6017 215.247 40.3062C215.629 40.007 216.046 39.7987 216.497 39.6812C216.951 39.56 217.398 39.4994 217.838 39.4994C218.118 39.4994 218.44 39.5335 218.804 39.6017C219.171 39.6661 219.525 39.8006 219.866 40.0051C220.211 40.2097 220.497 40.5184 220.724 40.9312C220.951 41.3441 221.065 41.8972 221.065 42.5903V48.3403H219.724V47.1585H219.656C219.565 47.3479 219.413 47.5506 219.201 47.7665C218.989 47.9824 218.707 48.1661 218.355 48.3176C218.002 48.4691 217.573 48.5449 217.065 48.5449ZM217.27 47.3403C217.8 47.3403 218.247 47.2362 218.61 47.0278C218.978 46.8195 219.254 46.5506 219.44 46.221C219.629 45.8915 219.724 45.5449 219.724 45.1812V43.954C219.667 44.0222 219.542 44.0847 219.349 44.1415C219.16 44.1945 218.94 44.2418 218.69 44.2835C218.444 44.3214 218.203 44.3555 217.968 44.3858C217.737 44.4123 217.55 44.435 217.406 44.454C217.057 44.4994 216.732 44.5733 216.429 44.6756C216.129 44.774 215.887 44.9237 215.701 45.1244C215.52 45.3214 215.429 45.5903 215.429 45.9312C215.429 46.3972 215.601 46.7494 215.946 46.9881C216.294 47.2229 216.735 47.3403 217.27 47.3403ZM227.285 48.4994C226.429 48.4994 225.7 48.2665 225.098 47.8006C224.495 47.3309 224.035 46.6509 223.717 45.7608C223.399 44.8668 223.24 43.7873 223.24 42.5222C223.24 41.2646 223.399 40.1907 223.717 39.3006C224.039 38.4066 224.501 37.7248 225.103 37.2551C225.709 36.7816 226.437 36.5449 227.285 36.5449C228.134 36.5449 228.859 36.7816 229.461 37.2551C230.067 37.7248 230.529 38.4066 230.848 39.3006C231.17 40.1907 231.331 41.2646 231.331 42.5222C231.331 43.7873 231.172 44.8668 230.853 45.7608C230.535 46.6509 230.075 47.3309 229.473 47.8006C228.87 48.2665 228.141 48.4994 227.285 48.4994ZM227.285 47.2494C228.134 47.2494 228.793 46.8403 229.262 46.0222C229.732 45.204 229.967 44.0373 229.967 42.5222C229.967 41.5146 229.859 40.6566 229.643 39.9483C229.431 39.24 229.124 38.7002 228.723 38.329C228.325 37.9578 227.846 37.7722 227.285 37.7722C226.444 37.7722 225.787 38.1869 225.314 39.0165C224.84 39.8422 224.603 41.0108 224.603 42.5222C224.603 43.5297 224.709 44.3858 224.922 45.0903C225.134 45.7949 225.439 46.3309 225.836 46.6983C226.238 47.0657 226.721 47.2494 227.285 47.2494ZM234.762 45.1585L234.74 43.4994H235.012L238.831 39.6131H240.49L236.422 43.7267H236.308L234.762 45.1585ZM233.512 48.3403V36.704H234.853V48.3403H233.512ZM239.058 48.3403L235.649 44.0222L236.603 43.0903L240.762 48.3403H239.058Z" fill="black"/>
<path d="M340.457 20.4876C340.457 9.63375 331.658 0.834961 320.804 0.834961V0.834961V29.2796H340.457V20.4876Z" fill="#E5E5EA" stroke="#E5E5EA" stroke-width="0.805851"/>
<rect width="19.6526" height="8.12144" transform="matrix(-1 0 0 1 340.457 29.2798)" fill="#E5E5EA" stroke="#E5E5EA" stroke-width="0.805851"/>
<path d="M340.457 46.1931C340.457 57.0469 331.658 65.8457 320.804 65.8457V65.8457V37.4011H340.457V46.1931Z" fill="#E5E5EA" stroke="#E5E5EA" stroke-width="0.805851"/>
</svg>
