<svg width="359" height="94" viewBox="0 0 359 94" fill="none" xmlns="http://www.w3.org/2000/svg">
<path d="M18.2734 29.6526C18.2734 18.7988 27.0722 10 37.9261 10V38.4446H18.2734V29.6526Z" fill="#E5E5EA" stroke="#E5E5EA" stroke-width="0.805851"/>
<rect x="18.2734" y="38.4448" width="19.6526" height="26.1111" fill="#E5E5EA" stroke="#E5E5EA" stroke-width="0.805851"/>
<path d="M37.9277 64.5557V93C33.1681 93 28.8039 91.3076 25.4033 88.4922C22.011 90.7523 16.5722 92.902 10 91.707C11.8103 90.9311 18.7918 86.2768 18.5332 76.9678C18.5639 77.01 18.5986 77.0495 18.6318 77.0898C18.3983 75.8783 18.2744 74.6274 18.2744 73.3477V64.5557H37.9277Z" fill="#E5E5EA"/>
<path d="M37.9277 64.5557H38.3307V64.1527H37.9277V64.5557ZM37.9277 93V93.4029H38.3307V93H37.9277ZM25.4033 88.4922L25.6603 88.1818L25.4294 87.9907L25.1799 88.1569L25.4033 88.4922ZM10 91.707L9.84127 91.3367L8.61095 91.864L9.92792 92.1035L10 91.707ZM18.5332 76.9678L18.8591 76.7308L18.0943 75.6793L18.1304 76.979L18.5332 76.9678ZM18.6318 77.0898L18.3209 77.3461L19.0275 77.0136L18.6318 77.0898ZM18.2744 73.3477H17.8715H18.2744ZM18.2744 64.5557V64.1527H17.8715V64.5557H18.2744ZM37.9277 64.5557H37.5248V93H37.9277H38.3307V64.5557H37.9277ZM37.9277 93V92.5971C33.2653 92.5971 28.9913 90.9396 25.6603 88.1818L25.4033 88.4922L25.1464 88.8025C28.6165 91.6755 33.0708 93.4029 37.9277 93.4029V93ZM25.4033 88.4922L25.1799 88.1569C21.8499 90.3754 16.5159 92.4822 10.0721 91.3106L10 91.707L9.92792 92.1035C16.6286 93.3218 22.172 91.1291 25.6267 88.8275L25.4033 88.4922ZM10 91.707L10.1587 92.0774C11.1256 91.663 13.3768 90.2643 15.3571 87.789C17.3452 85.3038 19.0684 81.7223 18.936 76.9566L18.5332 76.9678L18.1304 76.979C18.2566 81.5222 16.6183 84.9224 14.7278 87.2856C12.8293 89.6587 10.6847 90.9752 9.84127 91.3367L10 91.707ZM18.5332 76.9678L18.2073 77.2048C18.2476 77.2602 18.2983 77.3187 18.3209 77.3461L18.6318 77.0898L18.9428 76.8336C18.8988 76.7802 18.8802 76.7599 18.8591 76.7308L18.5332 76.9678ZM18.6318 77.0898L19.0275 77.0136C18.7987 75.8267 18.6773 74.6013 18.6773 73.3477H18.2744H17.8715C17.8715 74.6534 17.9979 75.9299 18.2362 77.1661L18.6318 77.0898ZM18.2744 73.3477H18.6773V64.5557H18.2744H17.8715V73.3477H18.2744ZM18.2744 64.5557V64.9586H37.9277V64.5557V64.1527H18.2744V64.5557Z" fill="#E5E5EA"/>
<rect x="37.9258" y="10" width="290.877" height="83.0106" fill="#E5E5EA"/>
<rect x="37.9258" y="10" width="290.877" height="83.0106" stroke="#E5E5EA" stroke-width="0.805851"/>
<path d="M39.3349 39.5054V27.869H40.744V33.6417H40.8803L46.1076 27.869H47.9485L43.0621 33.119L47.9485 39.5054H46.244L42.1985 34.0963L40.744 35.7326V39.5054H39.3349ZM50.1374 39.5054V30.7781H51.4783V39.5054H50.1374ZM50.8192 29.3236C50.5579 29.3236 50.3325 29.2345 50.1431 29.0565C49.9575 28.8785 49.8647 28.6645 49.8647 28.4145C49.8647 28.1645 49.9575 27.9504 50.1431 27.7724C50.3325 27.5944 50.5579 27.5054 50.8192 27.5054C51.0806 27.5054 51.3041 27.5944 51.4897 27.7724C51.6791 27.9504 51.7738 28.1645 51.7738 28.4145C51.7738 28.6645 51.6791 28.8785 51.4897 29.0565C51.3041 29.2345 51.0806 29.3236 50.8192 29.3236ZM55.2752 34.2554V39.5054H53.9343V30.7781H55.2298V32.1417H55.3434C55.5479 31.6986 55.8585 31.3425 56.2752 31.0736C56.6919 30.8008 57.2298 30.6645 57.8888 30.6645C58.4798 30.6645 58.9968 30.7857 59.44 31.0281C59.8832 31.2667 60.2279 31.6304 60.4741 32.119C60.7203 32.6039 60.8434 33.2175 60.8434 33.9599V39.5054H59.5025V34.0508C59.5025 33.3652 59.3245 32.8311 58.9684 32.4486C58.6123 32.0622 58.1237 31.869 57.5025 31.869C57.0745 31.869 56.6919 31.9618 56.3548 32.1474C56.0214 32.333 55.7582 32.6039 55.565 32.9599C55.3718 33.316 55.2752 33.7478 55.2752 34.2554ZM66.8391 39.6872C66.0513 39.6872 65.36 39.4997 64.7653 39.1247C64.1744 38.7497 63.7122 38.2251 63.3789 37.5508C63.0494 36.8766 62.8846 36.0887 62.8846 35.1872C62.8846 34.2781 63.0494 33.4845 63.3789 32.8065C63.7122 32.1285 64.1744 31.602 64.7653 31.227C65.36 30.852 66.0513 30.6645 66.8391 30.6645C67.627 30.6645 68.3164 30.852 68.9073 31.227C69.502 31.602 69.9641 32.1285 70.2937 32.8065C70.627 33.4845 70.7937 34.2781 70.7937 35.1872C70.7937 36.0887 70.627 36.8766 70.2937 37.5508C69.9641 38.2251 69.502 38.7497 68.9073 39.1247C68.3164 39.4997 67.627 39.6872 66.8391 39.6872ZM66.8391 38.4826C67.4376 38.4826 67.93 38.3292 68.3164 38.0224C68.7028 37.7156 68.9888 37.3122 69.1744 36.8122C69.36 36.3122 69.4528 35.7705 69.4528 35.1872C69.4528 34.6039 69.36 34.0603 69.1744 33.5565C68.9888 33.0527 68.7028 32.6455 68.3164 32.3349C67.93 32.0243 67.4376 31.869 66.8391 31.869C66.2406 31.869 65.7482 32.0243 65.3619 32.3349C64.9755 32.6455 64.6895 33.0527 64.5039 33.5565C64.3183 34.0603 64.2255 34.6039 64.2255 35.1872C64.2255 35.7705 64.3183 36.3122 64.5039 36.8122C64.6895 37.3122 64.9755 37.7156 65.3619 38.0224C65.7482 38.3292 66.2406 38.4826 66.8391 38.4826ZM73.8178 39.5963C73.5375 39.5963 73.297 39.4959 73.0962 39.2951C72.8955 39.0944 72.7951 38.8539 72.7951 38.5736C72.7951 38.2932 72.8955 38.0527 73.0962 37.852C73.297 37.6512 73.5375 37.5508 73.8178 37.5508C74.0981 37.5508 74.3387 37.6512 74.5394 37.852C74.7402 38.0527 74.8406 38.2932 74.8406 38.5736C74.8406 38.7592 74.7932 38.9296 74.6985 39.0849C74.6076 39.2402 74.4845 39.3652 74.3292 39.4599C74.1777 39.5508 74.0072 39.5963 73.8178 39.5963ZM78.4968 36.3236L78.4741 34.6645H78.7468L82.565 30.7781H84.2241L80.1559 34.8917H80.0423L78.4968 36.3236ZM77.2468 39.5054V27.869H78.5877V39.5054H77.2468ZM82.7923 39.5054L79.3832 35.1872L80.3377 34.2554L84.4968 39.5054H82.7923ZM85.6999 39.5054V38.4826L90.6545 32.119V32.0281H85.859V30.7781H92.3817V31.8463L87.5636 38.1645V38.2554H92.5408V39.5054H85.6999ZM105.879 33.0622V34.3122H97.8789V33.0622H105.879ZM115.379 39.6645C114.523 39.6645 113.794 39.4315 113.191 38.9656C112.589 38.4959 112.129 37.816 111.811 36.9258C111.493 36.0319 111.333 34.9523 111.333 33.6872C111.333 32.4296 111.493 31.3557 111.811 30.4656C112.133 29.5717 112.595 28.8898 113.197 28.4201C113.803 27.9467 114.53 27.7099 115.379 27.7099C116.227 27.7099 116.953 27.9467 117.555 28.4201C118.161 28.8898 118.623 29.5717 118.941 30.4656C119.263 31.3557 119.424 32.4296 119.424 33.6872C119.424 34.9523 119.265 36.0319 118.947 36.9258C118.629 37.816 118.169 38.4959 117.566 38.9656C116.964 39.4315 116.235 39.6645 115.379 39.6645ZM115.379 38.4145C116.227 38.4145 116.886 38.0054 117.356 37.1872C117.826 36.369 118.061 35.2023 118.061 33.6872C118.061 32.6796 117.953 31.8217 117.737 31.1133C117.525 30.405 117.218 29.8652 116.816 29.494C116.419 29.1228 115.94 28.9372 115.379 28.9372C114.538 28.9372 113.881 29.352 113.407 30.1815C112.934 31.0073 112.697 32.1758 112.697 33.6872C112.697 34.6948 112.803 35.5508 113.015 36.2554C113.227 36.9599 113.532 37.4959 113.93 37.8633C114.332 38.2307 114.815 38.4145 115.379 38.4145ZM125.447 39.6645C124.97 39.6569 124.493 39.566 124.015 39.3917C123.538 39.2175 123.102 38.9239 122.708 38.5111C122.315 38.0944 121.998 37.5319 121.76 36.8236C121.521 36.1114 121.402 35.2175 121.402 34.1417C121.402 33.1114 121.498 32.1986 121.691 31.4031C121.885 30.6039 122.165 29.9315 122.532 29.3861C122.9 28.8368 123.343 28.4201 123.862 28.1361C124.385 27.852 124.974 27.7099 125.629 27.7099C126.28 27.7099 126.86 27.8406 127.368 28.102C127.879 28.3595 128.296 28.7194 128.618 29.1815C128.94 29.6436 129.148 30.1758 129.243 30.7781H127.856C127.727 30.2554 127.477 29.8217 127.106 29.477C126.735 29.1323 126.243 28.9599 125.629 28.9599C124.727 28.9599 124.017 29.352 123.498 30.1361C122.983 30.9201 122.724 32.0205 122.72 33.4372H122.811C123.023 33.1152 123.275 32.8406 123.566 32.6133C123.862 32.3823 124.188 32.2042 124.544 32.0792C124.9 31.9542 125.277 31.8917 125.674 31.8917C126.341 31.8917 126.951 32.0584 127.504 32.3917C128.057 32.7213 128.5 33.1777 128.833 33.7611C129.167 34.3406 129.333 35.0054 129.333 35.7554C129.333 36.4751 129.172 37.1342 128.85 37.7326C128.529 38.3273 128.076 38.8008 127.493 39.1531C126.913 39.5016 126.231 39.672 125.447 39.6645ZM125.447 38.4145C125.924 38.4145 126.352 38.2951 126.731 38.0565C127.114 37.8179 127.415 37.4978 127.635 37.0963C127.858 36.6948 127.97 36.2478 127.97 35.7554C127.97 35.2743 127.862 34.8368 127.646 34.4429C127.434 34.0451 127.14 33.7289 126.765 33.494C126.394 33.2592 125.97 33.1417 125.493 33.1417C125.133 33.1417 124.797 33.2137 124.487 33.3576C124.176 33.4978 123.904 33.691 123.669 33.9372C123.438 34.1834 123.256 34.4656 123.123 34.7838C122.991 35.0982 122.924 35.4296 122.924 35.7781C122.924 36.2402 123.032 36.672 123.248 37.0736C123.468 37.4751 123.767 37.7989 124.146 38.0451C124.529 38.2914 124.962 38.4145 125.447 38.4145ZM131.931 39.5054L137.136 29.2099V29.119H131.136V27.869H138.591V29.1872L133.409 39.5054H131.931ZM144.254 39.6645C143.398 39.6645 142.669 39.4315 142.066 38.9656C141.464 38.4959 141.004 37.816 140.686 36.9258C140.368 36.0319 140.208 34.9523 140.208 33.6872C140.208 32.4296 140.368 31.3557 140.686 30.4656C141.008 29.5717 141.47 28.8898 142.072 28.4201C142.678 27.9467 143.405 27.7099 144.254 27.7099C145.102 27.7099 145.828 27.9467 146.43 28.4201C147.036 28.8898 147.498 29.5717 147.816 30.4656C148.138 31.3557 148.299 32.4296 148.299 33.6872C148.299 34.9523 148.14 36.0319 147.822 36.9258C147.504 37.816 147.044 38.4959 146.441 38.9656C145.839 39.4315 145.11 39.6645 144.254 39.6645ZM144.254 38.4145C145.102 38.4145 145.761 38.0054 146.231 37.1872C146.701 36.369 146.936 35.2023 146.936 33.6872C146.936 32.6796 146.828 31.8217 146.612 31.1133C146.4 30.405 146.093 29.8652 145.691 29.494C145.294 29.1228 144.815 28.9372 144.254 28.9372C143.413 28.9372 142.756 29.352 142.282 30.1815C141.809 31.0073 141.572 32.1758 141.572 33.6872C141.572 34.6948 141.678 35.5508 141.89 36.2554C142.102 36.9599 142.407 37.4959 142.805 37.8633C143.207 38.2307 143.69 38.4145 144.254 38.4145ZM154.254 39.6645C153.398 39.6645 152.669 39.4315 152.066 38.9656C151.464 38.4959 151.004 37.816 150.686 36.9258C150.368 36.0319 150.208 34.9523 150.208 33.6872C150.208 32.4296 150.368 31.3557 150.686 30.4656C151.008 29.5717 151.47 28.8898 152.072 28.4201C152.678 27.9467 153.405 27.7099 154.254 27.7099C155.102 27.7099 155.828 27.9467 156.43 28.4201C157.036 28.8898 157.498 29.5717 157.816 30.4656C158.138 31.3557 158.299 32.4296 158.299 33.6872C158.299 34.9523 158.14 36.0319 157.822 36.9258C157.504 37.816 157.044 38.4959 156.441 38.9656C155.839 39.4315 155.11 39.6645 154.254 39.6645ZM154.254 38.4145C155.102 38.4145 155.761 38.0054 156.231 37.1872C156.701 36.369 156.936 35.2023 156.936 33.6872C156.936 32.6796 156.828 31.8217 156.612 31.1133C156.4 30.405 156.093 29.8652 155.691 29.494C155.294 29.1228 154.815 28.9372 154.254 28.9372C153.413 28.9372 152.756 29.352 152.282 30.1815C151.809 31.0073 151.572 32.1758 151.572 33.6872C151.572 34.6948 151.678 35.5508 151.89 36.2554C152.102 36.9599 152.407 37.4959 152.805 37.8633C153.207 38.2307 153.69 38.4145 154.254 38.4145ZM160.458 39.5054V38.4826L164.299 34.2781C164.75 33.7857 165.121 33.3576 165.413 32.994C165.705 32.6266 165.921 32.2819 166.061 31.9599C166.205 31.6342 166.277 31.2932 166.277 30.9372C166.277 30.5281 166.178 30.1739 165.981 29.8747C165.788 29.5754 165.523 29.3444 165.186 29.1815C164.849 29.0186 164.47 28.9372 164.049 28.9372C163.602 28.9372 163.212 29.03 162.879 29.2156C162.549 29.3974 162.294 29.6531 162.112 29.9826C161.934 30.3122 161.845 30.6986 161.845 31.1417H160.504C160.504 30.4599 160.661 29.8614 160.975 29.3463C161.29 28.8311 161.718 28.4296 162.26 28.1417C162.805 27.8539 163.417 27.7099 164.095 27.7099C164.777 27.7099 165.381 27.8539 165.907 28.1417C166.434 28.4296 166.847 28.8179 167.146 29.3065C167.445 29.7951 167.595 30.3387 167.595 30.9372C167.595 31.3652 167.517 31.7838 167.362 32.1929C167.21 32.5982 166.945 33.0508 166.566 33.5508C166.191 34.047 165.671 34.6531 165.004 35.369L162.39 38.1645V38.2554H167.799V39.5054H160.458ZM174.078 39.6645C173.328 39.6645 172.659 39.5357 172.072 39.2781C171.489 39.0205 171.025 38.6626 170.68 38.2042C170.339 37.7421 170.154 37.2061 170.123 36.5963H171.555C171.585 36.9713 171.714 37.2951 171.941 37.5679C172.169 37.8368 172.466 38.0451 172.833 38.1929C173.201 38.3406 173.608 38.4145 174.055 38.4145C174.555 38.4145 174.998 38.3273 175.385 38.1531C175.771 37.9789 176.074 37.7364 176.294 37.4258C176.513 37.1152 176.623 36.7554 176.623 36.3463C176.623 35.9182 176.517 35.5414 176.305 35.2156C176.093 34.8861 175.782 34.6285 175.373 34.4429C174.964 34.2573 174.464 34.1645 173.873 34.1645H172.941V32.9145H173.873C174.335 32.9145 174.741 32.8311 175.089 32.6645C175.441 32.4978 175.716 32.2629 175.913 31.9599C176.114 31.6569 176.214 31.3008 176.214 30.8917C176.214 30.4978 176.127 30.155 175.953 29.8633C175.779 29.5717 175.532 29.3444 175.214 29.1815C174.9 29.0186 174.529 28.9372 174.1 28.9372C173.699 28.9372 173.32 29.0111 172.964 29.1588C172.612 29.3027 172.324 29.5129 172.1 29.7895C171.877 30.0622 171.756 30.3917 171.737 30.7781H170.373C170.396 30.1682 170.58 29.6342 170.924 29.1758C171.269 28.7137 171.72 28.3539 172.277 28.0963C172.837 27.8387 173.453 27.7099 174.123 27.7099C174.843 27.7099 175.46 27.8557 175.975 28.1474C176.491 28.4353 176.886 28.816 177.163 29.2895C177.44 29.7629 177.578 30.2743 177.578 30.8236C177.578 31.4789 177.405 32.0376 177.061 32.4997C176.72 32.9618 176.256 33.2819 175.669 33.4599V33.5508C176.404 33.672 176.977 33.9845 177.39 34.4883C177.803 34.9883 178.01 35.6076 178.01 36.3463C178.01 36.9789 177.837 37.547 177.493 38.0508C177.152 38.5508 176.686 38.9448 176.095 39.2326C175.504 39.5205 174.832 39.6645 174.078 39.6645ZM184.129 39.6645C183.273 39.6645 182.544 39.4315 181.941 38.9656C181.339 38.4959 180.879 37.816 180.561 36.9258C180.243 36.0319 180.083 34.9523 180.083 33.6872C180.083 32.4296 180.243 31.3557 180.561 30.4656C180.883 29.5717 181.345 28.8898 181.947 28.4201C182.553 27.9467 183.28 27.7099 184.129 27.7099C184.977 27.7099 185.703 27.9467 186.305 28.4201C186.911 28.8898 187.373 29.5717 187.691 30.4656C188.013 31.3557 188.174 32.4296 188.174 33.6872C188.174 34.9523 188.015 36.0319 187.697 36.9258C187.379 37.816 186.919 38.4959 186.316 38.9656C185.714 39.4315 184.985 39.6645 184.129 39.6645ZM184.129 38.4145C184.977 38.4145 185.636 38.0054 186.106 37.1872C186.576 36.369 186.811 35.2023 186.811 33.6872C186.811 32.6796 186.703 31.8217 186.487 31.1133C186.275 30.405 185.968 29.8652 185.566 29.494C185.169 29.1228 184.69 28.9372 184.129 28.9372C183.288 28.9372 182.631 29.352 182.157 30.1815C181.684 31.0073 181.447 32.1758 181.447 33.6872C181.447 34.6948 181.553 35.5508 181.765 36.2554C181.977 36.9599 182.282 37.4959 182.68 37.8633C183.082 38.2307 183.565 38.4145 184.129 38.4145ZM194.129 39.6645C193.273 39.6645 192.544 39.4315 191.941 38.9656C191.339 38.4959 190.879 37.816 190.561 36.9258C190.243 36.0319 190.083 34.9523 190.083 33.6872C190.083 32.4296 190.243 31.3557 190.561 30.4656C190.883 29.5717 191.345 28.8898 191.947 28.4201C192.553 27.9467 193.28 27.7099 194.129 27.7099C194.977 27.7099 195.703 27.9467 196.305 28.4201C196.911 28.8898 197.373 29.5717 197.691 30.4656C198.013 31.3557 198.174 32.4296 198.174 33.6872C198.174 34.9523 198.015 36.0319 197.697 36.9258C197.379 37.816 196.919 38.4959 196.316 38.9656C195.714 39.4315 194.985 39.6645 194.129 39.6645ZM194.129 38.4145C194.977 38.4145 195.636 38.0054 196.106 37.1872C196.576 36.369 196.811 35.2023 196.811 33.6872C196.811 32.6796 196.703 31.8217 196.487 31.1133C196.275 30.405 195.968 29.8652 195.566 29.494C195.169 29.1228 194.69 28.9372 194.129 28.9372C193.288 28.9372 192.631 29.352 192.157 30.1815C191.684 31.0073 191.447 32.1758 191.447 33.6872C191.447 34.6948 191.553 35.5508 191.765 36.2554C191.977 36.9599 192.282 37.4959 192.68 37.8633C193.082 38.2307 193.565 38.4145 194.129 38.4145ZM204.197 39.6645C203.72 39.6569 203.243 39.566 202.765 39.3917C202.288 39.2175 201.852 38.9239 201.458 38.5111C201.065 38.0944 200.748 37.5319 200.51 36.8236C200.271 36.1114 200.152 35.2175 200.152 34.1417C200.152 33.1114 200.248 32.1986 200.441 31.4031C200.635 30.6039 200.915 29.9315 201.282 29.3861C201.65 28.8368 202.093 28.4201 202.612 28.1361C203.135 27.852 203.724 27.7099 204.379 27.7099C205.03 27.7099 205.61 27.8406 206.118 28.102C206.629 28.3595 207.046 28.7194 207.368 29.1815C207.69 29.6436 207.898 30.1758 207.993 30.7781H206.606C206.477 30.2554 206.227 29.8217 205.856 29.477C205.485 29.1323 204.993 28.9599 204.379 28.9599C203.477 28.9599 202.767 29.352 202.248 30.1361C201.733 30.9201 201.474 32.0205 201.47 33.4372H201.561C201.773 33.1152 202.025 32.8406 202.316 32.6133C202.612 32.3823 202.938 32.2042 203.294 32.0792C203.65 31.9542 204.027 31.8917 204.424 31.8917C205.091 31.8917 205.701 32.0584 206.254 32.3917C206.807 32.7213 207.25 33.1777 207.583 33.7611C207.917 34.3406 208.083 35.0054 208.083 35.7554C208.083 36.4751 207.922 37.1342 207.6 37.7326C207.279 38.3273 206.826 38.8008 206.243 39.1531C205.663 39.5016 204.981 39.672 204.197 39.6645ZM204.197 38.4145C204.674 38.4145 205.102 38.2951 205.481 38.0565C205.864 37.8179 206.165 37.4978 206.385 37.0963C206.608 36.6948 206.72 36.2478 206.72 35.7554C206.72 35.2743 206.612 34.8368 206.396 34.4429C206.184 34.0451 205.89 33.7289 205.515 33.494C205.144 33.2592 204.72 33.1417 204.243 33.1417C203.883 33.1417 203.547 33.2137 203.237 33.3576C202.926 33.4978 202.654 33.691 202.419 33.9372C202.188 34.1834 202.006 34.4656 201.873 34.7838C201.741 35.0982 201.674 35.4296 201.674 35.7781C201.674 36.2402 201.782 36.672 201.998 37.0736C202.218 37.4751 202.517 37.7989 202.896 38.0451C203.279 38.2914 203.712 38.4145 204.197 38.4145ZM214.25 39.6645C213.5 39.6645 212.831 39.5357 212.244 39.2781C211.661 39.0205 211.197 38.6626 210.852 38.2042C210.511 37.7421 210.325 37.2061 210.295 36.5963H211.727C211.757 36.9713 211.886 37.2951 212.113 37.5679C212.341 37.8368 212.638 38.0451 213.005 38.1929C213.373 38.3406 213.78 38.4145 214.227 38.4145C214.727 38.4145 215.17 38.3273 215.556 38.1531C215.943 37.9789 216.246 37.7364 216.466 37.4258C216.685 37.1152 216.795 36.7554 216.795 36.3463C216.795 35.9182 216.689 35.5414 216.477 35.2156C216.265 34.8861 215.954 34.6285 215.545 34.4429C215.136 34.2573 214.636 34.1645 214.045 34.1645H213.113V32.9145H214.045C214.507 32.9145 214.913 32.8311 215.261 32.6645C215.613 32.4978 215.888 32.2629 216.085 31.9599C216.286 31.6569 216.386 31.3008 216.386 30.8917C216.386 30.4978 216.299 30.155 216.125 29.8633C215.95 29.5717 215.704 29.3444 215.386 29.1815C215.072 29.0186 214.7 28.9372 214.272 28.9372C213.871 28.9372 213.492 29.0111 213.136 29.1588C212.784 29.3027 212.496 29.5129 212.272 29.7895C212.049 30.0622 211.928 30.3917 211.909 30.7781H210.545C210.568 30.1682 210.752 29.6342 211.096 29.1758C211.441 28.7137 211.892 28.3539 212.449 28.0963C213.009 27.8387 213.625 27.7099 214.295 27.7099C215.015 27.7099 215.632 27.8557 216.147 28.1474C216.663 28.4353 217.058 28.816 217.335 29.2895C217.611 29.7629 217.75 30.2743 217.75 30.8236C217.75 31.4789 217.577 32.0376 217.233 32.4997C216.892 32.9618 216.428 33.2819 215.841 33.4599V33.5508C216.575 33.672 217.149 33.9845 217.562 34.4883C217.975 34.9883 218.181 35.6076 218.181 36.3463C218.181 36.9789 218.009 37.547 217.664 38.0508C217.324 38.5508 216.858 38.9448 216.267 39.2326C215.676 39.5205 215.003 39.6645 214.25 39.6645ZM224.21 27.7099C224.687 27.7137 225.164 27.8046 225.642 27.9826C226.119 28.1607 226.555 28.4561 226.949 28.869C227.342 29.2781 227.659 29.8368 227.897 30.5451C228.136 31.2535 228.255 32.1417 228.255 33.2099C228.255 34.244 228.157 35.1626 227.96 35.9656C227.767 36.7648 227.486 37.4391 227.119 37.9883C226.755 38.5376 226.312 38.9542 225.789 39.2383C225.27 39.5224 224.683 39.6645 224.028 39.6645C223.377 39.6645 222.795 39.5357 222.284 39.2781C221.776 39.0167 221.359 38.655 221.034 38.1929C220.712 37.727 220.505 37.1872 220.414 36.5736H221.801C221.926 37.1076 222.174 37.5489 222.545 37.8974C222.92 38.2421 223.414 38.4145 224.028 38.4145C224.926 38.4145 225.634 38.0224 226.153 37.2383C226.676 36.4542 226.937 35.3463 226.937 33.9145H226.846C226.634 34.2326 226.382 34.5073 226.091 34.7383C225.799 34.9694 225.475 35.1474 225.119 35.2724C224.763 35.3974 224.384 35.4599 223.983 35.4599C223.316 35.4599 222.704 35.2951 222.147 34.9656C221.594 34.6323 221.151 34.1758 220.818 33.5963C220.488 33.0129 220.324 32.3463 220.324 31.5963C220.324 30.8842 220.483 30.2326 220.801 29.6417C221.123 29.047 221.574 28.5736 222.153 28.2213C222.736 27.869 223.422 27.6986 224.21 27.7099ZM224.21 28.9599C223.733 28.9599 223.303 29.0792 222.92 29.3179C222.541 29.5527 222.24 29.8709 222.017 30.2724C221.797 30.6701 221.687 31.1114 221.687 31.5963C221.687 32.0811 221.793 32.5224 222.005 32.9201C222.221 33.3141 222.515 33.6285 222.886 33.8633C223.261 34.0944 223.687 34.2099 224.164 34.2099C224.524 34.2099 224.859 34.1398 225.17 33.9997C225.481 33.8557 225.752 33.6607 225.983 33.4145C226.217 33.1645 226.401 32.8823 226.534 32.5679C226.666 32.2497 226.733 31.9182 226.733 31.5736C226.733 31.119 226.623 30.6929 226.403 30.2951C226.187 29.8974 225.888 29.5754 225.505 29.3292C225.127 29.083 224.695 28.9599 224.21 28.9599ZM231.083 39.5963C230.803 39.5963 230.563 39.4959 230.362 39.2951C230.161 39.0944 230.061 38.8539 230.061 38.5736C230.061 38.2932 230.161 38.0527 230.362 37.852C230.563 37.6512 230.803 37.5508 231.083 37.5508C231.364 37.5508 231.604 37.6512 231.805 37.852C232.006 38.0527 232.106 38.2932 232.106 38.5736C232.106 38.7592 232.059 38.9296 231.964 39.0849C231.873 39.2402 231.75 39.3652 231.595 39.4599C231.443 39.5508 231.273 39.5963 231.083 39.5963ZM39.8121 45.869L43.2667 55.6645H43.4031L46.8576 45.869H48.3349L44.0621 57.5054H42.6076L38.3349 45.869H39.8121ZM51.7212 57.7099C51.1682 57.7099 50.6663 57.6057 50.2156 57.3974C49.7648 57.1853 49.4068 56.8804 49.1417 56.4826C48.8765 56.0811 48.744 55.5963 48.744 55.0281C48.744 54.5281 48.8424 54.1228 49.0394 53.8122C49.2364 53.4978 49.4996 53.2516 49.8292 53.0736C50.1587 52.8955 50.5224 52.7629 50.9201 52.6758C51.3216 52.5849 51.725 52.5129 52.1303 52.4599C52.6606 52.3917 53.0906 52.3406 53.4201 52.3065C53.7534 52.2686 53.9959 52.2061 54.1474 52.119C54.3027 52.0319 54.3803 51.8804 54.3803 51.6645V51.619C54.3803 51.0584 54.2269 50.6228 53.9201 50.3122C53.6171 50.0016 53.1568 49.8463 52.5394 49.8463C51.8993 49.8463 51.3974 49.9864 51.0337 50.2667C50.6701 50.547 50.4144 50.8463 50.2667 51.1645L48.994 50.7099C49.2212 50.1796 49.5243 49.7667 49.9031 49.4713C50.2856 49.172 50.7023 48.9637 51.1531 48.8463C51.6076 48.7251 52.0546 48.6645 52.494 48.6645C52.7743 48.6645 53.0962 48.6986 53.4599 48.7667C53.8273 48.8311 54.1815 48.9656 54.5224 49.1701C54.8671 49.3747 55.1531 49.6834 55.3803 50.0963C55.6076 50.5092 55.7212 51.0622 55.7212 51.7554V57.5054H54.3803V56.3236H54.3121C54.2212 56.5129 54.0697 56.7156 53.8576 56.9315C53.6455 57.1474 53.3633 57.3311 53.011 57.4826C52.6587 57.6342 52.2288 57.7099 51.7212 57.7099ZM51.9258 56.5054C52.4561 56.5054 52.9031 56.4012 53.2667 56.1929C53.6341 55.9845 53.9106 55.7156 54.0962 55.3861C54.2856 55.0565 54.3803 54.7099 54.3803 54.3463V53.119C54.3235 53.1872 54.1985 53.2497 54.0053 53.3065C53.8159 53.3595 53.5962 53.4069 53.3462 53.4486C53.1 53.4864 52.8595 53.5205 52.6246 53.5508C52.3936 53.5773 52.2061 53.6001 52.0621 53.619C51.7137 53.6645 51.3879 53.7383 51.0849 53.8406C50.7856 53.9391 50.5432 54.0887 50.3576 54.2895C50.1758 54.4864 50.0849 54.7554 50.0849 55.0963C50.0849 55.5622 50.2572 55.9145 50.6019 56.1531C50.9504 56.3879 51.3917 56.5054 51.9258 56.5054ZM64.3505 50.7326L63.146 51.0736C63.0702 50.8728 62.9585 50.6777 62.8107 50.4883C62.6668 50.2951 62.4698 50.1361 62.2198 50.0111C61.9698 49.8861 61.6497 49.8236 61.2596 49.8236C60.7255 49.8236 60.2804 49.9467 59.9244 50.1929C59.5721 50.4353 59.396 50.744 59.396 51.119C59.396 51.4523 59.5172 51.7156 59.7596 51.9088C60.002 52.102 60.3808 52.2629 60.896 52.3917L62.1914 52.7099C62.9717 52.8993 63.5531 53.1891 63.9357 53.5792C64.3183 53.9656 64.5096 54.4637 64.5096 55.0736C64.5096 55.5736 64.3656 56.0205 64.0778 56.4145C63.7937 56.8084 63.396 57.119 62.8846 57.3463C62.3732 57.5736 61.7785 57.6872 61.1005 57.6872C60.2103 57.6872 59.4736 57.494 58.8903 57.1076C58.3069 56.7213 57.9376 56.1569 57.7823 55.4145L59.055 55.0963C59.1763 55.566 59.4054 55.9182 59.7425 56.1531C60.0835 56.3879 60.5285 56.5054 61.0778 56.5054C61.7028 56.5054 62.199 56.3728 62.5664 56.1076C62.9376 55.8387 63.1232 55.5167 63.1232 55.1417C63.1232 54.8387 63.0172 54.5849 62.805 54.3804C62.5929 54.172 62.2672 54.0167 61.8278 53.9145L60.3732 53.5736C59.574 53.3842 58.9869 53.0906 58.6119 52.6929C58.2406 52.2914 58.055 51.7895 58.055 51.1872C58.055 50.6948 58.1933 50.2592 58.4698 49.8804C58.7501 49.5016 59.1308 49.2042 59.6119 48.9883C60.0967 48.7724 60.646 48.6645 61.2596 48.6645C62.1232 48.6645 62.8013 48.8539 63.2937 49.2326C63.7899 49.6114 64.1422 50.1114 64.3505 50.7326ZM67.869 52.2554V57.5054H66.5281V45.869H67.869V50.1417H67.9826C68.1871 49.691 68.494 49.333 68.9031 49.0679C69.3159 48.7989 69.8652 48.6645 70.5508 48.6645C71.1455 48.6645 71.6663 48.7838 72.1133 49.0224C72.5603 49.2573 72.9068 49.619 73.1531 50.1076C73.4031 50.5925 73.5281 51.2099 73.5281 51.9599V57.5054H72.1871V52.0508C72.1871 51.3576 72.0072 50.8217 71.6474 50.4429C71.2913 50.0603 70.797 49.869 70.1644 49.869C69.725 49.869 69.3311 49.9618 68.9826 50.1474C68.6379 50.333 68.3652 50.6039 68.1644 50.9599C67.9674 51.316 67.869 51.7478 67.869 52.2554ZM75.9812 57.5054V48.7781H77.3221V57.5054H75.9812ZM76.663 47.3236C76.4016 47.3236 76.1763 47.2345 75.9869 47.0565C75.8013 46.8785 75.7085 46.6645 75.7085 46.4145C75.7085 46.1645 75.8013 45.9504 75.9869 45.7724C76.1763 45.5944 76.4016 45.5054 76.663 45.5054C76.9244 45.5054 77.1478 45.5944 77.3335 45.7724C77.5228 45.9504 77.6175 46.1645 77.6175 46.4145C77.6175 46.6645 77.5228 46.8785 77.3335 47.0565C77.1478 47.2345 76.9244 47.3236 76.663 47.3236ZM84.4599 57.5054V45.869H85.8008V50.1645H85.9144C86.0129 50.0129 86.1493 49.8198 86.3235 49.5849C86.5015 49.3463 86.7553 49.1342 87.0849 48.9486C87.4182 48.7592 87.869 48.6645 88.4371 48.6645C89.172 48.6645 89.8197 48.8482 90.3803 49.2156C90.9409 49.583 91.3784 50.1039 91.6928 50.7781C92.0072 51.4523 92.1644 52.2478 92.1644 53.1645C92.1644 54.0887 92.0072 54.8898 91.6928 55.5679C91.3784 56.2421 90.9428 56.7648 90.386 57.1361C89.8292 57.5035 89.1871 57.6872 88.4599 57.6872C87.8993 57.6872 87.4504 57.5944 87.1133 57.4088C86.7762 57.2194 86.5167 57.0054 86.3349 56.7667C86.1531 56.5243 86.0129 56.3236 85.9144 56.1645H85.7553V57.5054H84.4599ZM85.7781 53.1417C85.7781 53.8008 85.8746 54.3823 86.0678 54.8861C86.261 55.3861 86.5432 55.7781 86.9144 56.0622C87.2856 56.3425 87.7402 56.4826 88.2781 56.4826C88.8387 56.4826 89.3065 56.3349 89.6815 56.0395C90.0603 55.7402 90.3443 55.3387 90.5337 54.8349C90.7269 54.3273 90.8235 53.7629 90.8235 53.1417C90.8235 52.5281 90.7288 51.9751 90.5394 51.4826C90.3538 50.9864 90.0716 50.5944 89.6928 50.3065C89.3178 50.0148 88.8462 49.869 88.2781 49.869C87.7326 49.869 87.2743 50.0073 86.9031 50.2838C86.5318 50.5565 86.2515 50.9391 86.0621 51.4315C85.8728 51.9201 85.7781 52.4902 85.7781 53.1417ZM94.2156 57.5054V48.7781H95.5565V57.5054H94.2156ZM94.8974 47.3236C94.636 47.3236 94.4106 47.2345 94.2212 47.0565C94.0356 46.8785 93.9428 46.6645 93.9428 46.4145C93.9428 46.1645 94.0356 45.9504 94.2212 45.7724C94.4106 45.5944 94.636 45.5054 94.8974 45.5054C95.1587 45.5054 95.3822 45.5944 95.5678 45.7724C95.7572 45.9504 95.8519 46.1645 95.8519 46.4145C95.8519 46.6645 95.7572 46.8785 95.5678 47.0565C95.3822 47.2345 95.1587 47.3236 94.8974 47.3236ZM99.3533 45.869V57.5054H98.0124V45.869H99.3533ZM105.468 57.6872C104.627 57.6872 103.902 57.5016 103.292 57.1304C102.686 56.7554 102.218 56.2326 101.889 55.5622C101.563 54.8879 101.4 54.1039 101.4 53.2099C101.4 52.316 101.563 51.5281 101.889 50.8463C102.218 50.1607 102.677 49.6266 103.264 49.244C103.855 48.8576 104.544 48.6645 105.332 48.6645C105.787 48.6645 106.235 48.7402 106.679 48.8917C107.122 49.0432 107.525 49.2895 107.889 49.6304C108.252 49.9675 108.542 50.4145 108.758 50.9713C108.974 51.5281 109.082 52.2137 109.082 53.0281V53.5963H102.355V52.4372H107.718C107.718 51.9448 107.62 51.5054 107.423 51.119C107.23 50.7326 106.953 50.4277 106.593 50.2042C106.237 49.9807 105.817 49.869 105.332 49.869C104.798 49.869 104.336 50.0016 103.946 50.2667C103.559 50.5281 103.262 50.869 103.054 51.2895C102.845 51.7099 102.741 52.1607 102.741 52.6417V53.4145C102.741 54.0736 102.855 54.6323 103.082 55.0906C103.313 55.5451 103.633 55.8917 104.042 56.1304C104.451 56.3652 104.927 56.4826 105.468 56.4826C105.821 56.4826 106.139 56.4334 106.423 56.3349C106.711 56.2326 106.959 56.0811 107.167 55.8804C107.376 55.6758 107.537 55.422 107.65 55.119L108.946 55.4826C108.809 55.922 108.58 56.3084 108.258 56.6417C107.936 56.9713 107.538 57.2289 107.065 57.4145C106.592 57.5963 106.059 57.6872 105.468 57.6872ZM114.917 48.7781V49.9145H110.395V48.7781H114.917ZM111.713 46.6872H113.054V55.0054C113.054 55.3842 113.109 55.6682 113.218 55.8576C113.332 56.0432 113.476 56.1682 113.65 56.2326C113.828 56.2932 114.016 56.3236 114.213 56.3236C114.36 56.3236 114.482 56.316 114.576 56.3008C114.671 56.2819 114.747 56.2667 114.804 56.2554L115.076 57.4599C114.985 57.494 114.859 57.5281 114.696 57.5622C114.533 57.6001 114.326 57.619 114.076 57.619C113.698 57.619 113.326 57.5376 112.963 57.3747C112.603 57.2118 112.304 56.9637 112.065 56.6304C111.83 56.297 111.713 55.8766 111.713 55.369V46.6872ZM117.798 60.7781C117.571 60.7781 117.368 60.7592 117.19 60.7213C117.012 60.6872 116.889 60.6531 116.821 60.619L117.162 59.4372C117.487 59.5205 117.775 59.5508 118.025 59.5281C118.275 59.5054 118.497 59.3936 118.69 59.1929C118.887 58.9959 119.067 58.6758 119.23 58.2326L119.48 57.5508L116.252 48.7781H117.707L120.116 55.7326H120.207L122.616 48.7781H124.071L120.366 58.7781C120.199 59.2289 119.993 59.602 119.747 59.8974C119.501 60.1967 119.215 60.4183 118.889 60.5622C118.567 60.7061 118.203 60.7781 117.798 60.7781ZM137.477 48.7781L134.25 57.5054H132.886L129.659 48.7781H131.113L133.522 55.7326H133.613L136.022 48.7781H137.477ZM144.997 54.3236L144.974 52.6645H145.247L149.065 48.7781H150.724L146.656 52.8917H146.542L144.997 54.3236ZM143.747 57.5054V45.869H145.088V57.5054H143.747ZM149.292 57.5054L145.883 53.1872L146.838 52.2554L150.997 57.5054H149.292ZM152.45 57.5054V48.7781H153.791V57.5054H152.45ZM153.132 47.3236C152.87 47.3236 152.645 47.2345 152.456 47.0565C152.27 46.8785 152.177 46.6645 152.177 46.4145C152.177 46.1645 152.27 45.9504 152.456 45.7724C152.645 45.5944 152.87 45.5054 153.132 45.5054C153.393 45.5054 153.617 45.5944 153.802 45.7724C153.992 45.9504 154.086 46.1645 154.086 46.4145C154.086 46.6645 153.992 46.8785 153.802 47.0565C153.617 47.2345 153.393 47.3236 153.132 47.3236ZM157.588 52.2554V57.5054H156.247V48.7781H157.542V50.1417H157.656C157.86 49.6986 158.171 49.3425 158.588 49.0736C159.004 48.8008 159.542 48.6645 160.201 48.6645C160.792 48.6645 161.309 48.7857 161.752 49.0281C162.196 49.2667 162.54 49.6304 162.787 50.119C163.033 50.6039 163.156 51.2175 163.156 51.9599V57.5054H161.815V52.0508C161.815 51.3652 161.637 50.8311 161.281 50.4486C160.925 50.0622 160.436 49.869 159.815 49.869C159.387 49.869 159.004 49.9618 158.667 50.1474C158.334 50.333 158.071 50.6039 157.877 50.9599C157.684 51.316 157.588 51.7478 157.588 52.2554ZM169.152 57.6872C168.364 57.6872 167.672 57.4997 167.078 57.1247C166.487 56.7497 166.025 56.2251 165.691 55.5508C165.362 54.8766 165.197 54.0887 165.197 53.1872C165.197 52.2781 165.362 51.4845 165.691 50.8065C166.025 50.1285 166.487 49.602 167.078 49.227C167.672 48.852 168.364 48.6645 169.152 48.6645C169.94 48.6645 170.629 48.852 171.22 49.227C171.815 49.602 172.277 50.1285 172.606 50.8065C172.94 51.4845 173.106 52.2781 173.106 53.1872C173.106 54.0887 172.94 54.8766 172.606 55.5508C172.277 56.2251 171.815 56.7497 171.22 57.1247C170.629 57.4997 169.94 57.6872 169.152 57.6872ZM169.152 56.4826C169.75 56.4826 170.243 56.3292 170.629 56.0224C171.015 55.7156 171.301 55.3122 171.487 54.8122C171.672 54.3122 171.765 53.7705 171.765 53.1872C171.765 52.6039 171.672 52.0603 171.487 51.5565C171.301 51.0527 171.015 50.6455 170.629 50.3349C170.243 50.0243 169.75 49.869 169.152 49.869C168.553 49.869 168.061 50.0243 167.674 50.3349C167.288 50.6455 167.002 51.0527 166.816 51.5565C166.631 52.0603 166.538 52.6039 166.538 53.1872C166.538 53.7705 166.631 54.3122 166.816 54.8122C167.002 55.3122 167.288 55.7156 167.674 56.0224C168.061 56.3292 168.553 56.4826 169.152 56.4826ZM176.13 57.5963C175.85 57.5963 175.609 57.4959 175.409 57.2951C175.208 57.0944 175.108 56.8539 175.108 56.5736C175.108 56.2932 175.208 56.0527 175.409 55.852C175.609 55.6512 175.85 55.5508 176.13 55.5508C176.411 55.5508 176.651 55.6512 176.852 55.852C177.053 56.0527 177.153 56.2932 177.153 56.5736C177.153 56.7592 177.106 56.9296 177.011 57.0849C176.92 57.2402 176.797 57.3652 176.642 57.4599C176.49 57.5508 176.32 57.5963 176.13 57.5963ZM176.13 51.119C175.85 51.119 175.609 51.0186 175.409 50.8179C175.208 50.6171 175.108 50.3766 175.108 50.0963C175.108 49.816 175.208 49.5754 175.409 49.3747C175.609 49.1739 175.85 49.0736 176.13 49.0736C176.411 49.0736 176.651 49.1739 176.852 49.3747C177.053 49.5754 177.153 49.816 177.153 50.0963C177.153 50.2819 177.106 50.4523 177.011 50.6076C176.92 50.7629 176.797 50.8879 176.642 50.9826C176.49 51.0736 176.32 51.119 176.13 51.119ZM40.494 70.2554V75.5054H39.1531V63.869H40.494V68.1417H40.6076C40.8121 67.691 41.119 67.333 41.5281 67.0679C41.9409 66.7989 42.4902 66.6645 43.1758 66.6645C43.7705 66.6645 44.2913 66.7838 44.7383 67.0224C45.1853 67.2573 45.5318 67.619 45.7781 68.1076C46.0281 68.5925 46.1531 69.2099 46.1531 69.9599V75.5054H44.8121V70.0508C44.8121 69.3576 44.6322 68.8217 44.2724 68.4429C43.9163 68.0603 43.422 67.869 42.7894 67.869C42.35 67.869 41.9561 67.9618 41.6076 68.1474C41.2629 68.333 40.9902 68.6039 40.7894 68.9599C40.5924 69.316 40.494 69.7478 40.494 70.2554ZM52.4016 66.7781V67.9145H47.8789V66.7781H52.4016ZM49.1971 64.6872H50.538V73.0054C50.538 73.3842 50.5929 73.6682 50.7028 73.8576C50.8164 74.0432 50.9603 74.1682 51.1346 74.2326C51.3126 74.2932 51.5001 74.3236 51.6971 74.3236C51.8448 74.3236 51.966 74.316 52.0607 74.3008C52.1554 74.2819 52.2312 74.2667 52.288 74.2554L52.5607 75.4599C52.4698 75.494 52.3429 75.5281 52.18 75.5622C52.0172 75.6001 51.8107 75.619 51.5607 75.619C51.1819 75.619 50.8107 75.5376 50.4471 75.3747C50.0872 75.2118 49.788 74.9637 49.5494 74.6304C49.3145 74.297 49.1971 73.8766 49.1971 73.369V64.6872ZM58.2141 66.7781V67.9145H53.6914V66.7781H58.2141ZM55.0096 64.6872H56.3505V73.0054C56.3505 73.3842 56.4054 73.6682 56.5153 73.8576C56.6289 74.0432 56.7728 74.1682 56.9471 74.2326C57.1251 74.2932 57.3126 74.3236 57.5096 74.3236C57.6573 74.3236 57.7785 74.316 57.8732 74.3008C57.9679 74.2819 58.0437 74.2667 58.1005 74.2554L58.3732 75.4599C58.2823 75.494 58.1554 75.5281 57.9925 75.5622C57.8297 75.6001 57.6232 75.619 57.3732 75.619C56.9944 75.619 56.6232 75.5376 56.2596 75.3747C55.8997 75.2118 55.6005 74.9637 55.3619 74.6304C55.127 74.297 55.0096 73.8766 55.0096 73.369V64.6872ZM60.2312 78.7781V66.7781H61.5266V68.1645H61.6857C61.7842 68.0129 61.9206 67.8198 62.0948 67.5849C62.2728 67.3463 62.5266 67.1342 62.8562 66.9486C63.1895 66.7592 63.6403 66.6645 64.2085 66.6645C64.9433 66.6645 65.591 66.8482 66.1516 67.2156C66.7122 67.583 67.1497 68.1039 67.4641 68.7781C67.7785 69.4523 67.9357 70.2478 67.9357 71.1645C67.9357 72.0887 67.7785 72.8898 67.4641 73.5679C67.1497 74.2421 66.7141 74.7648 66.1573 75.1361C65.6005 75.5035 64.9585 75.6872 64.2312 75.6872C63.6706 75.6872 63.2217 75.5944 62.8846 75.4088C62.5475 75.2194 62.288 75.0054 62.1062 74.7667C61.9244 74.5243 61.7842 74.3236 61.6857 74.1645H61.5721V78.7781H60.2312ZM61.5494 71.1417C61.5494 71.8008 61.646 72.3823 61.8391 72.8861C62.0323 73.3861 62.3145 73.7781 62.6857 74.0622C63.0569 74.3425 63.5115 74.4826 64.0494 74.4826C64.61 74.4826 65.0778 74.3349 65.4528 74.0395C65.8316 73.7402 66.1156 73.3387 66.305 72.8349C66.4982 72.3273 66.5948 71.7629 66.5948 71.1417C66.5948 70.5281 66.5001 69.9751 66.3107 69.4826C66.1251 68.9864 65.8429 68.5944 65.4641 68.3065C65.0891 68.0148 64.6175 67.869 64.0494 67.869C63.5039 67.869 63.0456 68.0073 62.6744 68.2838C62.3031 68.5565 62.0228 68.9391 61.8335 69.4315C61.6441 69.9201 61.5494 70.4902 61.5494 71.1417ZM76.163 68.7326L74.9585 69.0736C74.8827 68.8728 74.771 68.6777 74.6232 68.4883C74.4793 68.2951 74.2823 68.1361 74.0323 68.0111C73.7823 67.8861 73.4622 67.8236 73.0721 67.8236C72.538 67.8236 72.0929 67.9467 71.7369 68.1929C71.3846 68.4353 71.2085 68.744 71.2085 69.119C71.2085 69.4523 71.3297 69.7156 71.5721 69.9088C71.8145 70.102 72.1933 70.2629 72.7085 70.3917L74.0039 70.7099C74.7842 70.8993 75.3656 71.1891 75.7482 71.5792C76.1308 71.9656 76.3221 72.4637 76.3221 73.0736C76.3221 73.5736 76.1781 74.0205 75.8903 74.4145C75.6062 74.8084 75.2085 75.119 74.6971 75.3463C74.1857 75.5736 73.591 75.6872 72.913 75.6872C72.0228 75.6872 71.2861 75.494 70.7028 75.1076C70.1194 74.7213 69.7501 74.1569 69.5948 73.4145L70.8675 73.0963C70.9888 73.566 71.2179 73.9182 71.555 74.1531C71.896 74.3879 72.341 74.5054 72.8903 74.5054C73.5153 74.5054 74.0115 74.3728 74.3789 74.1076C74.7501 73.8387 74.9357 73.5167 74.9357 73.1417C74.9357 72.8387 74.8297 72.5849 74.6175 72.3804C74.4054 72.172 74.0797 72.0167 73.6403 71.9145L72.1857 71.5736C71.3865 71.3842 70.7994 71.0906 70.4244 70.6929C70.0531 70.2914 69.8675 69.7895 69.8675 69.1872C69.8675 68.6948 70.0058 68.2592 70.2823 67.8804C70.5626 67.5016 70.9433 67.2042 71.4244 66.9883C71.9092 66.7724 72.4585 66.6645 73.0721 66.6645C73.9357 66.6645 74.6138 66.8539 75.1062 67.2326C75.6024 67.6114 75.9547 68.1114 76.163 68.7326ZM79.3178 75.5963C79.0375 75.5963 78.797 75.4959 78.5962 75.2951C78.3955 75.0944 78.2951 74.8539 78.2951 74.5736C78.2951 74.2932 78.3955 74.0527 78.5962 73.852C78.797 73.6512 79.0375 73.5508 79.3178 73.5508C79.5981 73.5508 79.8387 73.6512 80.0394 73.852C80.2402 74.0527 80.3406 74.2932 80.3406 74.5736C80.3406 74.7592 80.2932 74.9296 80.1985 75.0849C80.1076 75.2402 79.9845 75.3652 79.8292 75.4599C79.6777 75.5508 79.5072 75.5963 79.3178 75.5963ZM79.3178 69.119C79.0375 69.119 78.797 69.0186 78.5962 68.8179C78.3955 68.6171 78.2951 68.3766 78.2951 68.0963C78.2951 67.816 78.3955 67.5754 78.5962 67.3747C78.797 67.1739 79.0375 67.0736 79.3178 67.0736C79.5981 67.0736 79.8387 67.1739 80.0394 67.3747C80.2402 67.5754 80.3406 67.816 80.3406 68.0963C80.3406 68.2819 80.2932 68.4523 80.1985 68.6076C80.1076 68.7629 79.9845 68.8879 79.8292 68.9826C79.6777 69.0736 79.5072 69.119 79.3178 69.119ZM86.8604 63.3236L83.1104 77.2554H81.8832L85.6332 63.3236H86.8604ZM92.5636 63.3236L88.8136 77.2554H87.5863L91.3363 63.3236H92.5636ZM95.4031 72.3236L95.3803 70.6645H95.6531L99.4712 66.7781H101.13L97.0621 70.8917H96.9485L95.4031 72.3236ZM94.1531 75.5054V63.869H95.494V75.5054H94.1531ZM99.6985 75.5054L96.2894 71.1872L97.244 70.2554L101.403 75.5054H99.6985ZM102.856 75.5054V66.7781H104.197V75.5054H102.856ZM103.538 65.3236C103.277 65.3236 103.051 65.2345 102.862 65.0565C102.676 64.8785 102.583 64.6645 102.583 64.4145C102.583 64.1645 102.676 63.9504 102.862 63.7724C103.051 63.5944 103.277 63.5054 103.538 63.5054C103.799 63.5054 104.023 63.5944 104.208 63.7724C104.398 63.9504 104.493 64.1645 104.493 64.4145C104.493 64.6645 104.398 64.8785 104.208 65.0565C104.023 65.2345 103.799 65.3236 103.538 65.3236ZM107.994 70.2554V75.5054H106.653V66.7781H107.949V68.1417H108.062C108.267 67.6986 108.577 67.3425 108.994 67.0736C109.411 66.8008 109.949 66.6645 110.608 66.6645C111.199 66.6645 111.716 66.7857 112.159 67.0281C112.602 67.2667 112.947 67.6304 113.193 68.119C113.439 68.6039 113.562 69.2175 113.562 69.9599V75.5054H112.221V70.0508C112.221 69.3652 112.043 68.8311 111.687 68.4486C111.331 68.0622 110.842 67.869 110.221 67.869C109.793 67.869 109.411 67.9618 109.074 68.1474C108.74 68.333 108.477 68.6039 108.284 68.9599C108.091 69.316 107.994 69.7478 107.994 70.2554ZM119.558 75.6872C118.77 75.6872 118.079 75.4997 117.484 75.1247C116.893 74.7497 116.431 74.2251 116.098 73.5508C115.768 72.8766 115.603 72.0887 115.603 71.1872C115.603 70.2781 115.768 69.4845 116.098 68.8065C116.431 68.1285 116.893 67.602 117.484 67.227C118.079 66.852 118.77 66.6645 119.558 66.6645C120.346 66.6645 121.035 66.852 121.626 67.227C122.221 67.602 122.683 68.1285 123.012 68.8065C123.346 69.4845 123.512 70.2781 123.512 71.1872C123.512 72.0887 123.346 72.8766 123.012 73.5508C122.683 74.2251 122.221 74.7497 121.626 75.1247C121.035 75.4997 120.346 75.6872 119.558 75.6872ZM119.558 74.4826C120.156 74.4826 120.649 74.3292 121.035 74.0224C121.422 73.7156 121.708 73.3122 121.893 72.8122C122.079 72.3122 122.172 71.7705 122.172 71.1872C122.172 70.6039 122.079 70.0603 121.893 69.5565C121.708 69.0527 121.422 68.6455 121.035 68.3349C120.649 68.0243 120.156 67.869 119.558 67.869C118.959 67.869 118.467 68.0243 118.081 68.3349C117.694 68.6455 117.408 69.0527 117.223 69.5565C117.037 70.0603 116.944 70.6039 116.944 71.1872C116.944 71.7705 117.037 72.3122 117.223 72.8122C117.408 73.3122 117.694 73.7156 118.081 74.0224C118.467 74.3292 118.959 74.4826 119.558 74.4826ZM126.537 75.5963C126.256 75.5963 126.016 75.4959 125.815 75.2951C125.614 75.0944 125.514 74.8539 125.514 74.5736C125.514 74.2932 125.614 74.0527 125.815 73.852C126.016 73.6512 126.256 73.5508 126.537 73.5508C126.817 73.5508 127.057 73.6512 127.258 73.852C127.459 74.0527 127.559 74.2932 127.559 74.5736C127.559 74.7592 127.512 74.9296 127.417 75.0849C127.326 75.2402 127.203 75.3652 127.048 75.4599C126.896 75.5508 126.726 75.5963 126.537 75.5963ZM131.216 72.3236L131.193 70.6645H131.466L135.284 66.7781H136.943L132.875 70.8917H132.761L131.216 72.3236ZM129.966 75.5054V63.869H131.306V75.5054H129.966ZM135.511 75.5054L132.102 71.1872L133.056 70.2554L137.216 75.5054H135.511ZM138.419 75.5054V74.4826L143.373 68.119V68.0281H138.578V66.7781H145.1V67.8463L140.282 74.1645V74.2554H145.26V75.5054H138.419ZM151.439 63.3236L147.689 77.2554H146.461L150.211 63.3236H151.439ZM153.028 78.7781V66.7781H154.324V68.1645H154.483C154.581 68.0129 154.717 67.8198 154.892 67.5849C155.07 67.3463 155.324 67.1342 155.653 66.9486C155.986 66.7592 156.437 66.6645 157.005 66.6645C157.74 66.6645 158.388 66.8482 158.949 67.2156C159.509 67.583 159.947 68.1039 160.261 68.7781C160.575 69.4523 160.733 70.2478 160.733 71.1645C160.733 72.0887 160.575 72.8898 160.261 73.5679C159.947 74.2421 159.511 74.7648 158.954 75.1361C158.397 75.5035 157.755 75.6872 157.028 75.6872C156.467 75.6872 156.019 75.5944 155.681 75.4088C155.344 75.2194 155.085 75.0054 154.903 74.7667C154.721 74.5243 154.581 74.3236 154.483 74.1645H154.369V78.7781H153.028ZM154.346 71.1417C154.346 71.8008 154.443 72.3823 154.636 72.8861C154.829 73.3861 155.111 73.7781 155.483 74.0622C155.854 74.3425 156.308 74.4826 156.846 74.4826C157.407 74.4826 157.875 74.3349 158.25 74.0395C158.628 73.7402 158.913 73.3387 159.102 72.8349C159.295 72.3273 159.392 71.7629 159.392 71.1417C159.392 70.5281 159.297 69.9751 159.108 69.4826C158.922 68.9864 158.64 68.5944 158.261 68.3065C157.886 68.0148 157.414 67.869 156.846 67.869C156.301 67.869 155.842 68.0073 155.471 68.2838C155.1 68.5565 154.82 68.9391 154.63 69.4315C154.441 69.9201 154.346 70.4902 154.346 71.1417ZM162.778 75.5054V66.7781H164.074V68.0963H164.164C164.324 67.6645 164.611 67.3141 165.028 67.0451C165.445 66.7762 165.914 66.6417 166.437 66.6417C166.536 66.6417 166.659 66.6436 166.806 66.6474C166.954 66.6512 167.066 66.6569 167.142 66.6645V68.0281C167.096 68.0167 166.992 67.9997 166.829 67.977C166.67 67.9504 166.502 67.9372 166.324 67.9372C165.899 67.9372 165.52 68.0262 165.187 68.2042C164.858 68.3785 164.596 68.6209 164.403 68.9315C164.214 69.2383 164.119 69.5887 164.119 69.9826V75.5054H162.778ZM172.011 75.6872C171.223 75.6872 170.532 75.4997 169.937 75.1247C169.346 74.7497 168.884 74.2251 168.551 73.5508C168.221 72.8766 168.056 72.0887 168.056 71.1872C168.056 70.2781 168.221 69.4845 168.551 68.8065C168.884 68.1285 169.346 67.602 169.937 67.227C170.532 66.852 171.223 66.6645 172.011 66.6645C172.799 66.6645 173.488 66.852 174.079 67.227C174.674 67.602 175.136 68.1285 175.466 68.8065C175.799 69.4845 175.966 70.2781 175.966 71.1872C175.966 72.0887 175.799 72.8766 175.466 73.5508C175.136 74.2251 174.674 74.7497 174.079 75.1247C173.488 75.4997 172.799 75.6872 172.011 75.6872ZM172.011 74.4826C172.609 74.4826 173.102 74.3292 173.488 74.0224C173.875 73.7156 174.161 73.3122 174.346 72.8122C174.532 72.3122 174.625 71.7705 174.625 71.1872C174.625 70.6039 174.532 70.0603 174.346 69.5565C174.161 69.0527 173.875 68.6455 173.488 68.3349C173.102 68.0243 172.609 67.869 172.011 67.869C171.413 67.869 170.92 68.0243 170.534 68.3349C170.147 68.6455 169.861 69.0527 169.676 69.5565C169.49 70.0603 169.397 70.6039 169.397 71.1872C169.397 71.7705 169.49 72.3122 169.676 72.8122C169.861 73.3122 170.147 73.7156 170.534 74.0224C170.92 74.3292 171.413 74.4826 172.011 74.4826ZM181.899 66.7781V67.9145H177.194V66.7781H181.899ZM178.603 75.5054V65.5736C178.603 65.0736 178.721 64.6569 178.956 64.3236C179.19 63.9902 179.495 63.7402 179.87 63.5736C180.245 63.4069 180.641 63.3236 181.058 63.3236C181.387 63.3236 181.656 63.3501 181.865 63.4031C182.073 63.4561 182.228 63.5054 182.331 63.5508L181.944 64.7099C181.876 64.6872 181.781 64.6588 181.66 64.6247C181.543 64.5906 181.387 64.5736 181.194 64.5736C180.751 64.5736 180.431 64.6853 180.234 64.9088C180.041 65.1323 179.944 65.4599 179.944 65.8917V75.5054H178.603ZM183.778 75.5054V66.7781H185.119V75.5054H183.778ZM184.46 65.3236C184.199 65.3236 183.973 65.2345 183.784 65.0565C183.598 64.8785 183.505 64.6645 183.505 64.4145C183.505 64.1645 183.598 63.9504 183.784 63.7724C183.973 63.5944 184.199 63.5054 184.46 63.5054C184.721 63.5054 184.945 63.5944 185.13 63.7724C185.32 63.9504 185.414 64.1645 185.414 64.4145C185.414 64.6645 185.32 64.8785 185.13 65.0565C184.945 65.2345 184.721 65.3236 184.46 65.3236ZM188.916 63.869V75.5054H187.575V63.869H188.916ZM195.031 75.6872C194.19 75.6872 193.465 75.5016 192.855 75.1304C192.249 74.7554 191.781 74.2326 191.451 73.5622C191.126 72.8879 190.963 72.1039 190.963 71.2099C190.963 70.316 191.126 69.5281 191.451 68.8463C191.781 68.1607 192.239 67.6266 192.826 67.244C193.417 66.8576 194.107 66.6645 194.895 66.6645C195.349 66.6645 195.798 66.7402 196.241 66.8917C196.684 67.0432 197.088 67.2895 197.451 67.6304C197.815 67.9675 198.105 68.4145 198.321 68.9713C198.537 69.5281 198.645 70.2137 198.645 71.0281V71.5963H191.917V70.4372H197.281C197.281 69.9448 197.182 69.5054 196.985 69.119C196.792 68.7326 196.516 68.4277 196.156 68.2042C195.8 67.9807 195.379 67.869 194.895 67.869C194.36 67.869 193.898 68.0016 193.508 68.2667C193.122 68.5281 192.824 68.869 192.616 69.2895C192.408 69.7099 192.304 70.1607 192.304 70.6417V71.4145C192.304 72.0736 192.417 72.6323 192.645 73.0906C192.876 73.5451 193.196 73.8917 193.605 74.1304C194.014 74.3652 194.489 74.4826 195.031 74.4826C195.383 74.4826 195.701 74.4334 195.985 74.3349C196.273 74.2326 196.521 74.0811 196.73 73.8804C196.938 73.6758 197.099 73.422 197.213 73.119L198.508 73.4826C198.372 73.922 198.143 74.3084 197.821 74.6417C197.499 74.9713 197.101 75.2289 196.627 75.4145C196.154 75.5963 195.622 75.6872 195.031 75.6872ZM204.798 63.3236L201.048 77.2554H199.821L203.571 63.3236H204.798ZM210.183 66.7781V67.9145H205.66V66.7781H210.183ZM206.978 64.6872H208.319V73.0054C208.319 73.3842 208.374 73.6682 208.484 73.8576C208.598 74.0432 208.742 74.1682 208.916 74.2326C209.094 74.2932 209.281 74.3236 209.478 74.3236C209.626 74.3236 209.747 74.316 209.842 74.3008C209.937 74.2819 210.012 74.2667 210.069 74.2554L210.342 75.4599C210.251 75.494 210.124 75.5281 209.961 75.5622C209.798 75.6001 209.592 75.619 209.342 75.619C208.963 75.619 208.592 75.5376 208.228 75.3747C207.868 75.2118 207.569 74.9637 207.331 74.6304C207.096 74.297 206.978 73.8766 206.978 73.369V64.6872ZM212.2 75.5054V66.7781H213.541V75.5054H212.2ZM212.882 65.3236C212.62 65.3236 212.395 65.2345 212.206 65.0565C212.02 64.8785 211.927 64.6645 211.927 64.4145C211.927 64.1645 212.02 63.9504 212.206 63.7724C212.395 63.5944 212.62 63.5054 212.882 63.5054C213.143 63.5054 213.367 63.5944 213.552 63.7724C213.742 63.9504 213.836 64.1645 213.836 64.4145C213.836 64.6645 213.742 64.8785 213.552 65.0565C213.367 65.2345 213.143 65.3236 212.882 65.3236ZM219.542 75.6872C218.724 75.6872 218.02 75.494 217.429 75.1076C216.838 74.7213 216.383 74.1891 216.065 73.5111C215.747 72.833 215.588 72.0584 215.588 71.1872C215.588 70.3008 215.751 69.5186 216.076 68.8406C216.406 68.1588 216.864 67.6266 217.451 67.244C218.042 66.8576 218.732 66.6645 219.52 66.6645C220.133 66.6645 220.686 66.7781 221.179 67.0054C221.671 67.2326 222.074 67.5508 222.389 67.9599C222.703 68.369 222.898 68.8463 222.974 69.3917H221.633C221.531 68.994 221.304 68.6417 220.951 68.3349C220.603 68.0243 220.133 67.869 219.542 67.869C219.02 67.869 218.561 68.0054 218.167 68.2781C217.777 68.547 217.472 68.9277 217.252 69.4201C217.037 69.9088 216.929 70.4826 216.929 71.1417C216.929 71.816 217.035 72.4031 217.247 72.9031C217.463 73.4031 217.766 73.7914 218.156 74.0679C218.55 74.3444 219.012 74.4826 219.542 74.4826C219.891 74.4826 220.207 74.422 220.491 74.3008C220.775 74.1796 221.016 74.0054 221.213 73.7781C221.41 73.5508 221.55 73.2781 221.633 72.9599H222.974C222.898 73.4751 222.711 73.9391 222.412 74.352C222.116 74.7611 221.724 75.0868 221.235 75.3292C220.751 75.5679 220.186 75.6872 219.542 75.6872ZM226.184 72.3236L226.162 70.6645H226.434L230.252 66.7781H231.912L227.843 70.8917H227.73L226.184 72.3236ZM224.934 75.5054V63.869H226.275V75.5054H224.934ZM230.48 75.5054L227.071 71.1872L228.025 70.2554L232.184 75.5054H230.48ZM236.937 75.6872C236.096 75.6872 235.371 75.5016 234.761 75.1304C234.155 74.7554 233.687 74.2326 233.358 73.5622C233.032 72.8879 232.869 72.1039 232.869 71.2099C232.869 70.316 233.032 69.5281 233.358 68.8463C233.687 68.1607 234.145 67.6266 234.733 67.244C235.324 66.8576 236.013 66.6645 236.801 66.6645C237.255 66.6645 237.704 66.7402 238.147 66.8917C238.591 67.0432 238.994 67.2895 239.358 67.6304C239.721 67.9675 240.011 68.4145 240.227 68.9713C240.443 69.5281 240.551 70.2137 240.551 71.0281V71.5963H233.824V70.4372H239.187C239.187 69.9448 239.089 69.5054 238.892 69.119C238.699 68.7326 238.422 68.4277 238.062 68.2042C237.706 67.9807 237.286 67.869 236.801 67.869C236.267 67.869 235.805 68.0016 235.414 68.2667C235.028 68.5281 234.731 68.869 234.522 69.2895C234.314 69.7099 234.21 70.1607 234.21 70.6417V71.4145C234.21 72.0736 234.324 72.6323 234.551 73.0906C234.782 73.5451 235.102 73.8917 235.511 74.1304C235.92 74.3652 236.395 74.4826 236.937 74.4826C237.289 74.4826 237.608 74.4334 237.892 74.3349C238.18 74.2326 238.428 74.0811 238.636 73.8804C238.844 73.6758 239.005 73.422 239.119 73.119L240.414 73.4826C240.278 73.922 240.049 74.3084 239.727 74.6417C239.405 74.9713 239.007 75.2289 238.534 75.4145C238.06 75.5963 237.528 75.6872 236.937 75.6872ZM246.386 66.7781V67.9145H241.863V66.7781H246.386ZM243.181 64.6872H244.522V73.0054C244.522 73.3842 244.577 73.6682 244.687 73.8576C244.801 74.0432 244.945 74.1682 245.119 74.2326C245.297 74.2932 245.484 74.3236 245.681 74.3236C245.829 74.3236 245.95 74.316 246.045 74.3008C246.14 74.2819 246.216 74.2667 246.272 74.2554L246.545 75.4599C246.454 75.494 246.327 75.5281 246.164 75.5622C246.002 75.6001 245.795 75.619 245.545 75.619C245.166 75.619 244.795 75.5376 244.431 75.3747C244.072 75.2118 243.772 74.9637 243.534 74.6304C243.299 74.297 243.181 73.8766 243.181 73.369V64.6872ZM254.429 68.7326L253.224 69.0736C253.148 68.8728 253.037 68.6777 252.889 68.4883C252.745 68.2951 252.548 68.1361 252.298 68.0111C252.048 67.8861 251.728 67.8236 251.338 67.8236C250.804 67.8236 250.359 67.9467 250.002 68.1929C249.65 68.4353 249.474 68.744 249.474 69.119C249.474 69.4523 249.595 69.7156 249.838 69.9088C250.08 70.102 250.459 70.2629 250.974 70.3917L252.27 70.7099C253.05 70.8993 253.631 71.1891 254.014 71.5792C254.396 71.9656 254.588 72.4637 254.588 73.0736C254.588 73.5736 254.444 74.0205 254.156 74.4145C253.872 74.8084 253.474 75.119 252.963 75.3463C252.451 75.5736 251.857 75.6872 251.179 75.6872C250.288 75.6872 249.552 75.494 248.968 75.1076C248.385 74.7213 248.016 74.1569 247.86 73.4145L249.133 73.0963C249.254 73.566 249.484 73.9182 249.821 74.1531C250.162 74.3879 250.607 74.5054 251.156 74.5054C251.781 74.5054 252.277 74.3728 252.645 74.1076C253.016 73.8387 253.201 73.5167 253.201 73.1417C253.201 72.8387 253.095 72.5849 252.883 72.3804C252.671 72.172 252.345 72.0167 251.906 71.9145L250.451 71.5736C249.652 71.3842 249.065 71.0906 248.69 70.6929C248.319 70.2914 248.133 69.7895 248.133 69.1872C248.133 68.6948 248.271 68.2592 248.548 67.8804C248.828 67.5016 249.209 67.2042 249.69 66.9883C250.175 66.7724 250.724 66.6645 251.338 66.6645C252.201 66.6645 252.879 66.8539 253.372 67.2326C253.868 67.6114 254.22 68.1114 254.429 68.7326Z" fill="black"/>
<path d="M348.457 29.6526C348.457 18.7988 339.658 10 328.804 10V38.4446H348.457V29.6526Z" fill="#E5E5EA" stroke="#E5E5EA" stroke-width="0.805851"/>
<rect width="19.6526" height="26.1108" transform="matrix(-1 0 0 1 348.457 38.4448)" fill="#E5E5EA" stroke="#E5E5EA" stroke-width="0.805851"/>
<path d="M348.457 73.3474C348.457 84.2012 339.658 93 328.804 93V64.5554H348.457V73.3474Z" fill="#E5E5EA" stroke="#E5E5EA" stroke-width="0.805851"/>
</svg>
