<svg width="43" height="43" viewBox="0 0 43 43" fill="none" xmlns="http://www.w3.org/2000/svg">
<path d="M5.34434 2.91309H2.67188V37.6551C2.67188 38.3639 2.95344 39.0436 3.45462 39.5448C3.95581 40.046 4.63556 40.3275 5.34434 40.3275H40.0864V37.6551H5.34434V2.91309Z" fill="#EFF1ED"/>
<path d="M40.0871 12.2666H30.7335V14.9391H35.5306L25.3886 25.081L19.6562 19.3353C19.5319 19.21 19.3841 19.1106 19.2213 19.0428C19.0585 18.9749 18.8838 18.94 18.7074 18.94C18.531 18.94 18.3564 18.9749 18.1935 19.0428C18.0307 19.1106 17.8829 19.21 17.7587 19.3353L8.01758 29.0897L9.90166 30.9738L18.7074 22.1681L24.4399 27.9139C24.5641 28.0391 24.7119 28.1385 24.8747 28.2063C25.0375 28.2742 25.2122 28.3091 25.3886 28.3091C25.565 28.3091 25.7396 28.2742 25.9025 28.2063C26.0653 28.1385 26.2131 28.0391 26.3373 27.9139L37.4147 16.8231V21.6202H40.0871V12.2666Z" fill="#EFF1ED"/>
</svg>
