<svg width="4272" height="614" viewBox="0 0 4272 614" fill="none" xmlns="http://www.w3.org/2000/svg">
<path d="M1064.96 303.883H975.138V451.318H898.071V98.8877H975.138V241.778H1064.96V98.8877H1142.03V451.318H1064.96V303.883Z" fill="#1D2227"/>
<path d="M1326.08 457.377C1305.66 457.377 1287.29 454.347 1270.96 448.288C1254.63 441.892 1240.68 432.804 1229.11 421.023C1217.88 409.241 1209.2 394.935 1203.08 378.105C1196.95 361.275 1193.89 342.256 1193.89 321.05C1193.89 299.843 1196.95 280.825 1203.08 263.995C1209.2 247.164 1217.88 232.858 1229.11 221.077C1240.68 209.296 1254.63 200.375 1270.96 194.316C1287.29 187.921 1305.66 184.723 1326.08 184.723C1346.49 184.723 1364.87 187.921 1381.2 194.316C1397.53 200.375 1411.31 209.296 1422.54 221.077C1434.11 232.858 1442.96 247.164 1449.08 263.995C1455.21 280.825 1458.27 299.843 1458.27 321.05C1458.27 342.256 1455.21 361.275 1449.08 378.105C1442.96 394.935 1434.11 409.241 1422.54 421.023C1411.31 432.804 1397.53 441.892 1381.2 448.288C1364.87 454.347 1346.49 457.377 1326.08 457.377ZM1326.08 401.836C1343.09 401.836 1356.36 396.619 1365.89 386.184C1375.42 375.749 1380.18 360.938 1380.18 341.751V300.348C1380.18 281.162 1375.42 266.351 1365.89 255.916C1356.36 245.481 1343.09 240.264 1326.08 240.264C1309.07 240.264 1295.8 245.481 1286.27 255.916C1276.74 266.351 1271.98 281.162 1271.98 300.348V341.751C1271.98 360.938 1276.74 375.749 1286.27 386.184C1295.8 396.619 1309.07 401.836 1326.08 401.836Z" fill="#1D2227"/>
<path d="M1652.52 451.318C1625.3 451.318 1605.06 444.249 1591.79 430.111C1578.52 415.974 1571.88 397.965 1571.88 376.085V248.847H1500.43V190.782H1546.87C1558.1 190.782 1566.1 188.594 1570.86 184.218C1575.63 179.842 1578.01 171.764 1578.01 159.982V98.8877H1647.42V190.782H1750V248.847H1647.42V393.252H1750V451.318H1652.52Z" fill="#1D2227"/>
<path d="M1927.93 304.388L1896.28 348.315V451.318H1819.73V98.8877H1896.28V246.323H1900.37L1939.16 187.753L2001.93 98.8877H2087.68L1981.01 247.837L2092.78 451.318H2006.53L1927.93 304.388Z" fill="#1D2227"/>
<path d="M2251.31 457.377C2207.08 457.377 2173.56 445.259 2150.76 421.023C2127.97 396.787 2116.57 363.799 2116.57 322.06C2116.57 300.853 2119.46 281.835 2125.24 265.004C2131.37 247.837 2139.88 233.363 2150.76 221.582C2161.99 209.464 2175.43 200.375 2191.08 194.316C2207.08 187.921 2224.94 184.723 2244.67 184.723C2264.41 184.723 2282.1 187.921 2297.75 194.316C2313.4 200.375 2326.67 209.127 2337.56 220.572C2348.45 232.017 2356.79 245.986 2362.57 262.48C2368.7 278.637 2371.76 296.814 2371.76 317.01V339.227H2191.59V343.771C2191.59 360.601 2196.87 374.234 2207.42 384.669C2217.96 394.767 2233.44 399.816 2253.86 399.816C2269.51 399.816 2282.95 396.955 2294.18 391.233C2305.41 385.174 2315.11 377.264 2323.27 367.502L2364.1 411.429C2353.89 423.884 2339.6 434.655 2321.23 443.744C2302.86 452.832 2279.55 457.377 2251.31 457.377ZM2245.18 238.244C2228.85 238.244 2215.75 243.293 2205.88 253.391C2196.36 263.153 2191.59 276.449 2191.59 293.28V297.319H2297.75V293.28C2297.75 276.112 2292.99 262.648 2283.46 252.886C2274.28 243.125 2261.52 238.244 2245.18 238.244Z" fill="#1D2227"/>
<path d="M2616.54 190.782H2693.61L2569.59 493.225C2561.76 512.412 2551.38 527.055 2538.45 537.153C2525.52 547.251 2507.83 552.3 2485.37 552.3H2433.31V494.235H2496.6L2512.93 449.803L2406.77 190.782H2487.92L2526.2 300.348L2550.19 376.085H2554.27L2577.24 300.348L2616.54 190.782Z" fill="#1D2227"/>
<path d="M2970.99 405.823H2966.4C2963.33 413.308 2959.59 420.454 2955.17 427.259C2950.75 434.064 2945.3 440.188 2938.84 445.632C2932.37 450.736 2924.72 454.819 2915.87 457.882C2907.36 460.944 2897.67 462.475 2886.78 462.475C2869.43 462.475 2853.94 458.392 2840.33 450.226C2827.06 442.06 2815.84 430.151 2806.65 414.499C2797.46 398.848 2790.49 379.794 2785.72 357.337C2781.3 334.88 2779.09 309.531 2779.09 281.29C2779.09 220.726 2790.15 174.451 2812.26 142.467C2834.38 110.143 2868.57 93.9814 2914.85 93.9814C2933.22 93.9814 2949.38 96.5333 2963.33 101.637C2977.29 106.401 2989.19 113.376 2999.06 122.563C3009.27 131.409 3017.61 142.127 3024.07 154.717C3030.53 167.306 3035.64 181.256 3039.38 196.568L2967.93 213.92C2965.89 206.435 2963.51 199.29 2960.78 192.485C2958.4 185.339 2955.17 179.045 2951.09 173.601C2947 168.157 2941.9 163.903 2935.77 160.841C2929.65 157.439 2922.16 155.737 2913.32 155.737C2893.92 155.737 2880.14 163.733 2871.98 179.725C2864.15 195.717 2860.24 218.174 2860.24 247.095V305.278C2860.24 334.2 2864.49 357.337 2873 374.69C2881.84 392.043 2897.33 400.719 2919.44 400.719C2936.8 400.719 2949.72 395.615 2958.23 385.408C2966.74 375.2 2970.99 362.1 2970.99 346.109V320.079H2910.26V265.979H3039.38V456.35H2970.99V405.823Z" fill="#1D2227"/>
<path d="M3105.02 397.657H3165.76V251.688H3105.02V192.995H3241.29V267.51H3244.86C3247.25 257.983 3250.48 248.796 3254.56 239.95C3258.99 230.763 3264.43 222.767 3270.89 215.962C3277.7 208.817 3285.87 203.203 3295.39 199.119C3304.92 195.036 3316.15 192.995 3329.08 192.995H3354.09V262.406H3297.94C3279.23 262.406 3265.11 268.021 3255.58 279.249C3246.06 290.137 3241.29 303.577 3241.29 319.569V397.657H3328.06V456.35H3105.02V397.657Z" fill="#1D2227"/>
<path d="M3526.39 462.475C3505.98 462.475 3487.61 459.413 3471.27 453.288C3454.94 446.823 3440.99 437.637 3429.42 425.728C3418.19 413.819 3409.52 399.358 3403.39 382.345C3397.27 365.333 3394.21 346.109 3394.21 324.673C3394.21 303.237 3397.27 284.012 3403.39 267C3409.52 249.987 3418.19 235.526 3429.42 223.618C3440.99 211.709 3454.94 202.692 3471.27 196.568C3487.61 190.103 3505.98 186.87 3526.39 186.87C3546.81 186.87 3565.18 190.103 3581.52 196.568C3597.85 202.692 3611.63 211.709 3622.86 223.618C3634.42 235.526 3643.27 249.987 3649.4 267C3655.52 284.012 3658.58 303.237 3658.58 324.673C3658.58 346.109 3655.52 365.333 3649.4 382.345C3643.27 399.358 3634.42 413.819 3622.86 425.728C3611.63 437.637 3597.85 446.823 3581.52 453.288C3565.18 459.413 3546.81 462.475 3526.39 462.475ZM3526.39 406.333C3543.41 406.333 3556.68 401.059 3566.2 390.512C3575.73 379.964 3580.49 364.993 3580.49 345.598V303.747C3580.49 284.353 3575.73 269.382 3566.2 258.834C3556.68 248.286 3543.41 243.012 3526.39 243.012C3509.38 243.012 3496.11 248.286 3486.58 258.834C3477.06 269.382 3472.29 284.353 3472.29 303.747V345.598C3472.29 364.993 3477.06 379.964 3486.58 390.512C3496.11 401.059 3509.38 406.333 3526.39 406.333Z" fill="#1D2227"/>
<path d="M3876.83 408.375H3873.76C3867.98 423.346 3858.79 436.105 3846.2 446.653C3833.95 457.201 3817.28 462.475 3796.19 462.475C3783.6 462.475 3772.03 460.433 3761.48 456.35C3750.93 451.927 3741.92 445.462 3734.43 436.956C3726.94 428.45 3720.99 418.072 3716.57 405.823C3712.48 393.574 3710.44 379.453 3710.44 363.461V192.995H3785.98V353.254C3785.98 387.279 3800.78 404.292 3830.38 404.292C3836.17 404.292 3841.78 403.611 3847.22 402.25C3853.01 400.549 3857.94 398.167 3862.02 395.105C3866.45 391.702 3870.02 387.619 3872.74 382.856C3875.46 378.092 3876.83 372.478 3876.83 366.013V192.995H3952.36V456.35H3876.83V408.375Z" fill="#1D2227"/>
<path d="M4015.45 192.995H4090.98V240.971H4094.56C4101.02 225.319 4110.38 212.389 4122.63 202.182C4134.88 191.974 4151.55 186.87 4172.65 186.87C4187.28 186.87 4200.55 189.592 4212.46 195.036C4224.7 200.48 4235.08 208.817 4243.59 220.045C4252.43 231.273 4259.24 245.564 4264 262.917C4269.11 280.27 4271.66 300.855 4271.66 324.673C4271.66 348.49 4269.11 369.076 4264 386.428C4259.24 403.781 4252.43 418.072 4243.59 429.3C4235.08 440.529 4224.7 448.865 4212.46 454.309C4200.55 459.753 4187.28 462.475 4172.65 462.475C4151.55 462.475 4134.88 457.541 4122.63 447.674C4110.38 437.466 4101.02 424.367 4094.56 408.375H4090.98V558.426H4015.45V192.995ZM4139.98 403.781C4156.99 403.781 4170.09 398.678 4179.28 388.47C4188.47 377.922 4193.06 363.461 4193.06 345.088V304.258C4193.06 285.884 4188.47 271.593 4179.28 261.386C4170.09 250.838 4156.99 245.564 4139.98 245.564C4126.71 245.564 4115.14 248.796 4105.28 255.261C4095.75 261.726 4090.98 271.934 4090.98 285.884V363.461C4090.98 377.412 4095.75 387.619 4105.28 394.084C4115.14 400.549 4126.71 403.781 4139.98 403.781Z" fill="#1D2227"/>
<path fill-rule="evenodd" clip-rule="evenodd" d="M598.117 -0.00195312H726.308V459.013H602.651V416.511H683.668V45.3328H598.117V-0.00195312Z" fill="#5DB667"/>
<path d="M0 -0.00195312H130.764V45.3328H42.6404V416.511H198.989L173.404 505.764L289.955 416.511H361.022L92.3875 613.434L137.871 459.013H0V-0.00195312Z" fill="#5DB667"/>
<path d="M287.112 232.339C287.112 251.899 271.203 267.757 251.578 267.757C231.954 267.757 216.045 251.899 216.045 232.339C216.045 212.778 231.954 196.921 251.578 196.921C271.203 196.921 287.112 212.778 287.112 232.339Z" fill="#5DB667"/>
<path d="M403.662 232.339C403.662 251.899 387.754 267.757 368.129 267.757C348.504 267.757 332.595 251.899 332.595 232.339C332.595 212.778 348.504 196.921 368.129 196.921C387.754 196.921 403.662 212.778 403.662 232.339Z" fill="#5DB667"/>
<path d="M520.213 232.339C520.213 251.899 504.304 267.757 484.679 267.757C465.055 267.757 449.146 251.899 449.146 232.339C449.146 212.778 465.055 196.921 484.679 196.921C504.304 196.921 520.213 212.778 520.213 232.339Z" fill="#5DB667"/>
</svg>
