<svg width="4272" height="614" viewBox="0 0 4272 614" fill="none" xmlns="http://www.w3.org/2000/svg">
<path d="M1065.05 314.394H975.213V461.84H898.14V109.383H975.213V252.285H1065.05V109.383H1142.12V461.84H1065.05V314.394Z" fill="#EFF1ED"/>
<path d="M1326.18 467.9C1305.76 467.9 1287.39 464.87 1271.06 458.81C1254.72 452.414 1240.77 443.325 1229.2 431.543C1217.97 419.761 1209.3 405.454 1203.17 388.622C1197.05 371.79 1193.98 352.77 1193.98 331.562C1193.98 310.354 1197.05 291.334 1203.17 274.503C1209.3 257.671 1217.97 243.364 1229.2 231.581C1240.77 219.799 1254.72 210.878 1271.06 204.819C1287.39 198.423 1305.76 195.225 1326.18 195.225C1346.6 195.225 1364.97 198.423 1381.31 204.819C1397.64 210.878 1411.42 219.799 1422.65 231.581C1434.22 243.364 1443.07 257.671 1449.19 274.503C1455.32 291.334 1458.38 310.354 1458.38 331.562C1458.38 352.77 1455.32 371.79 1449.19 388.622C1443.07 405.454 1434.22 419.761 1422.65 431.543C1411.42 443.325 1397.64 452.414 1381.31 458.81C1364.97 464.87 1346.6 467.9 1326.18 467.9ZM1326.18 412.355C1343.2 412.355 1356.47 407.137 1365.99 396.701C1375.52 386.266 1380.29 371.454 1380.29 352.265V310.859C1380.29 291.671 1375.52 276.859 1365.99 266.423C1356.47 255.988 1343.2 250.77 1326.18 250.77C1309.17 250.77 1295.9 255.988 1286.37 266.423C1276.84 276.859 1272.08 291.671 1272.08 310.859V352.265C1272.08 371.454 1276.84 386.266 1286.37 396.701C1295.9 407.137 1309.17 412.355 1326.18 412.355Z" fill="#EFF1ED"/>
<path d="M1652.65 461.84C1625.43 461.84 1605.18 454.771 1591.91 440.632C1578.64 426.493 1572 408.483 1572 386.602V259.354H1500.55V201.284H1546.99C1558.22 201.284 1566.22 199.096 1570.98 194.72C1575.75 190.344 1578.13 182.264 1578.13 170.482V109.383H1647.55V201.284H1750.14V259.354H1647.55V403.771H1750.14V461.84H1652.65Z" fill="#EFF1ED"/>
<path d="M1928.08 314.899L1896.43 358.83V461.84H1819.87V109.383H1896.43V256.829H1900.51L1939.31 198.255L2002.09 109.383H2087.84L1981.16 258.344L2092.94 461.84H2006.68L1928.08 314.899Z" fill="#EFF1ED"/>
<path d="M2251.48 467.9C2207.25 467.9 2173.73 455.781 2150.93 431.543C2128.13 407.305 2116.73 374.315 2116.73 332.572C2116.73 311.364 2119.62 292.344 2125.41 275.512C2131.53 258.344 2140.04 243.869 2150.93 232.086C2162.16 219.968 2175.6 210.878 2191.25 204.819C2207.25 198.423 2225.11 195.225 2244.85 195.225C2264.58 195.225 2282.28 198.423 2297.93 204.819C2313.58 210.878 2326.85 219.631 2337.74 231.077C2348.63 242.522 2356.97 256.493 2362.75 272.988C2368.88 289.146 2371.94 307.325 2371.94 327.523V349.741H2191.76V354.285C2191.76 371.117 2197.04 384.751 2207.59 395.186C2218.14 405.285 2233.62 410.335 2254.04 410.335C2269.69 410.335 2283.13 407.474 2294.36 401.751C2305.59 395.691 2315.29 387.78 2323.45 378.018L2364.29 421.949C2354.08 434.404 2339.79 445.177 2321.41 454.266C2303.04 463.355 2279.73 467.9 2251.48 467.9ZM2245.36 248.75C2229.02 248.75 2215.92 253.799 2206.06 263.899C2196.53 273.661 2191.76 286.958 2191.76 303.79V307.829H2297.93V303.79C2297.93 286.621 2293.17 273.156 2283.64 263.394C2274.45 253.631 2261.69 248.75 2245.36 248.75Z" fill="#EFF1ED"/>
<path d="M2616.74 201.284H2693.82L2569.78 503.751C2561.96 522.94 2551.58 537.583 2538.65 547.682C2525.72 557.781 2508.02 562.831 2485.57 562.831H2433.5V504.761H2496.8L2513.13 460.325L2406.96 201.284H2488.12L2526.4 310.859L2550.39 386.602H2554.47L2577.44 310.859L2616.74 201.284Z" fill="#EFF1ED"/>
<path d="M2971.23 416.342H2966.63C2963.57 423.829 2959.83 430.974 2955.4 437.78C2950.98 444.586 2945.53 450.711 2939.07 456.155C2932.6 461.259 2924.95 465.343 2916.1 468.405C2907.59 471.468 2897.9 472.999 2887.01 472.999C2869.65 472.999 2854.17 468.916 2840.56 460.749C2827.29 452.582 2816.06 440.672 2806.87 425.02C2797.68 409.367 2790.71 390.311 2785.94 367.853C2781.52 345.394 2779.31 320.043 2779.31 291.8C2779.31 231.231 2790.37 184.953 2812.49 152.966C2834.6 120.64 2868.8 104.477 2915.08 104.477C2933.45 104.477 2949.62 107.029 2963.57 112.133C2977.52 116.897 2989.43 123.872 2999.3 133.06C3009.51 141.907 3017.84 152.626 3024.31 165.216C3030.77 177.807 3035.88 191.758 3039.62 207.071L2968.16 224.425C2966.12 216.939 2963.74 209.793 2961.02 202.987C2958.64 195.842 2955.4 189.546 2951.32 184.102C2947.24 178.657 2942.13 174.404 2936.01 171.341C2929.88 167.939 2922.4 166.237 2913.55 166.237C2894.15 166.237 2880.37 174.234 2872.2 190.227C2864.38 206.22 2860.46 228.678 2860.46 257.602V315.79C2860.46 344.714 2864.72 367.853 2873.23 385.207C2882.07 402.561 2897.56 411.238 2919.67 411.238C2937.03 411.238 2949.96 406.134 2958.47 395.926C2966.97 385.717 2971.23 372.617 2971.23 356.623V330.592H2910.49V276.488H3039.62V466.874H2971.23V416.342Z" fill="#EFF1ED"/>
<path d="M3105.27 408.176H3166.01V262.196H3105.27V203.498H3241.55V278.019H3245.12C3247.5 268.491 3250.74 259.304 3254.82 250.456C3259.24 241.269 3264.69 233.272 3271.15 226.467C3277.96 219.321 3286.12 213.706 3295.65 209.623C3305.18 205.539 3316.41 203.498 3329.34 203.498H3354.35V272.915H3298.2C3279.49 272.915 3265.37 278.529 3255.84 289.759C3246.31 300.648 3241.55 314.089 3241.55 330.082V408.176H3328.32V466.874H3105.27V408.176Z" fill="#EFF1ED"/>
<path d="M3526.67 472.999C3506.26 472.999 3487.88 469.936 3471.55 463.811C3455.21 457.346 3441.26 448.159 3429.69 436.249C3418.46 424.339 3409.79 409.877 3403.66 392.863C3397.54 375.849 3394.47 356.623 3394.47 335.186C3394.47 313.748 3397.54 294.522 3403.66 277.509C3409.79 260.495 3418.46 246.033 3429.69 234.123C3441.26 222.213 3455.21 213.196 3471.55 207.071C3487.88 200.605 3506.26 197.373 3526.67 197.373C3547.09 197.373 3565.46 200.605 3581.8 207.071C3598.13 213.196 3611.91 222.213 3623.14 234.123C3634.71 246.033 3643.56 260.495 3649.68 277.509C3655.81 294.522 3658.87 313.748 3658.87 335.186C3658.87 356.623 3655.81 375.849 3649.68 392.863C3643.56 409.877 3634.71 424.339 3623.14 436.249C3611.91 448.159 3598.13 457.346 3581.8 463.811C3565.46 469.936 3547.09 472.999 3526.67 472.999ZM3526.67 416.853C3543.69 416.853 3556.96 411.579 3566.49 401.03C3576.01 390.481 3580.78 375.509 3580.78 356.113V314.259C3580.78 294.863 3576.01 279.89 3566.49 269.342C3556.96 258.793 3543.69 253.519 3526.67 253.519C3509.66 253.519 3496.39 258.793 3486.86 269.342C3477.33 279.89 3472.57 294.863 3472.57 314.259V356.113C3472.57 375.509 3477.33 390.481 3486.86 401.03C3496.39 411.579 3509.66 416.853 3526.67 416.853Z" fill="#EFF1ED"/>
<path d="M3877.13 418.895H3874.07C3868.28 433.867 3859.1 446.627 3846.51 457.176C3834.26 467.725 3817.58 472.999 3796.48 472.999C3783.89 472.999 3772.33 470.957 3761.78 466.874C3751.23 462.45 3742.21 455.985 3734.72 447.478C3727.24 438.971 3721.28 428.592 3716.86 416.342C3712.78 404.092 3710.73 389.971 3710.73 373.978V203.498H3786.28V363.769C3786.28 397.797 3801.08 414.811 3830.68 414.811C3836.47 414.811 3842.08 414.131 3847.53 412.769C3853.31 411.068 3858.25 408.686 3862.33 405.624C3866.75 402.221 3870.33 398.137 3873.05 393.374C3875.77 388.61 3877.13 382.995 3877.13 376.53V203.498H3952.67V466.874H3877.13V418.895Z" fill="#EFF1ED"/>
<path d="M4015.77 203.498H4091.31V251.477H4094.88C4101.35 235.824 4110.7 222.894 4122.95 212.685C4135.2 202.477 4151.88 197.373 4172.97 197.373C4187.61 197.373 4200.88 200.095 4212.79 205.539C4225.04 210.984 4235.42 219.321 4243.92 230.55C4252.77 241.779 4259.58 256.071 4264.34 273.425C4269.44 290.779 4272 311.366 4272 335.186C4272 359.005 4269.44 379.592 4264.34 396.947C4259.58 414.301 4252.77 428.592 4243.92 439.822C4235.42 451.051 4225.04 459.388 4212.79 464.832C4200.88 470.277 4187.61 472.999 4172.97 472.999C4151.88 472.999 4135.2 468.065 4122.95 458.197C4110.7 447.988 4101.35 434.888 4094.88 418.895H4091.31V568.958H4015.77V203.498ZM4140.31 414.301C4157.32 414.301 4170.42 409.197 4179.61 398.988C4188.8 388.44 4193.39 373.978 4193.39 355.603V314.769C4193.39 296.394 4188.8 282.102 4179.61 271.894C4170.42 261.345 4157.32 256.071 4140.31 256.071C4127.04 256.071 4115.47 259.304 4105.6 265.769C4096.07 272.234 4091.31 282.443 4091.31 296.394V373.978C4091.31 387.929 4096.07 398.138 4105.6 404.603C4115.47 411.068 4127.04 414.301 4140.31 414.301Z" fill="#EFF1ED"/>
<path fill-rule="evenodd" clip-rule="evenodd" d="M598.164 -0.00195312H726.365V459.048H602.698V416.544H683.721V45.3364H598.164V-0.00195312Z" fill="#5DB667"/>
<path d="M0 -0.00195312H130.774V45.3364H42.6437V416.544H199.004L173.418 505.804L289.977 416.544H361.05L92.3948 613.482L137.881 459.048H0V-0.00195312Z" fill="#5DB667"/>
<path d="M287.134 232.357C287.134 251.919 271.224 267.777 251.598 267.777C231.972 267.777 216.062 251.919 216.062 232.357C216.062 212.795 231.972 196.936 251.598 196.936C271.224 196.936 287.134 212.795 287.134 232.357Z" fill="#5DB667"/>
<path d="M403.694 232.357C403.694 251.919 387.784 267.777 368.158 267.777C348.531 267.777 332.621 251.919 332.621 232.357C332.621 212.795 348.531 196.936 368.158 196.936C387.784 196.936 403.694 212.795 403.694 232.357Z" fill="#5DB667"/>
<path d="M520.254 232.357C520.254 251.919 504.343 267.777 484.717 267.777C465.091 267.777 449.181 251.919 449.181 232.357C449.181 212.795 465.091 196.936 484.717 196.936C504.343 196.936 520.254 212.795 520.254 232.357Z" fill="#5DB667"/>
</svg>
