<svg width="81" height="12" viewBox="0 0 81 12" fill="none" xmlns="http://www.w3.org/2000/svg">
<path d="M0 6L10 11.7735V0.226497L0 6ZM81 6V5H78.975V6V7H81V6ZM74.925 6V5H70.875V6V7L74.925 7V6ZM66.825 6V5L62.775 5V6V7H66.825V6ZM58.725 6V5L54.675 5V6V7L58.725 7V6ZM50.625 6V5L46.575 5V6V7L50.625 7V6ZM42.525 6V5H38.475V6V7H42.525V6ZM34.425 6V5H30.375V6V7H34.425V6ZM26.325 6V5H22.275V6V7H26.325V6ZM18.225 6V5L14.175 5V6V7L18.225 7V6ZM10.125 6V5L6.075 5V6V7L10.125 7V6ZM0 6L10 11.7735V0.226497L0 6ZM81 6V5H78.975V6V7H81V6ZM74.925 6V5H70.875V6V7L74.925 7V6ZM66.825 6V5L62.775 5V6V7H66.825V6ZM58.725 6V5L54.675 5V6V7L58.725 7V6ZM50.625 6V5L46.575 5V6V7L50.625 7V6ZM42.525 6V5H38.475V6V7H42.525V6ZM34.425 6V5H30.375V6V7H34.425V6ZM26.325 6V5H22.275V6V7H26.325V6ZM18.225 6V5L14.175 5V6V7L18.225 7V6ZM10.125 6V5L6.075 5V6V7L10.125 7V6Z" fill="#AAAAA0"/>
</svg>
