<svg width="43" height="48" viewBox="0 0 43 48" fill="none" xmlns="http://www.w3.org/2000/svg">
<path d="M28.5059 32C28.5059 29.79 22.9222 28 16.0344 28M28.5059 32C28.5059 34.21 22.9222 36 16.0344 36C9.14656 36 3.56289 34.21 3.56289 32M28.5059 32V41.874C28.5059 44.152 22.9222 46 16.0344 46C9.14656 46 3.56289 44.154 3.56289 41.874V32M28.5059 32C35.3189 32 40.9774 30.026 40.9774 28V8M16.0344 28C9.14656 28 3.56289 29.79 3.56289 32M16.0344 28C8.16309 28 1.78125 26.026 1.78125 24V14M16.0344 10C8.16309 10 1.78125 11.79 1.78125 14M1.78125 14C1.78125 16.21 8.16309 18 16.0344 18C16.0344 20.026 21.8301 22 28.6431 22C35.4561 22 40.9774 20.026 40.9774 18M40.9774 8C40.9774 5.79 35.4543 4 28.6431 4C21.8319 4 16.3088 5.79 16.3088 8M40.9774 8C40.9774 10.21 35.4543 12 28.6431 12C21.8319 12 16.3088 10.21 16.3088 8M16.3088 8V28.332" stroke="#EFF1ED" stroke-width="2"/>
</svg>
