<svg width="43" height="43" viewBox="0 0 43 43" fill="none" xmlns="http://www.w3.org/2000/svg">
<path d="M13.3633 23.161H29.3981V21.3794H13.3633V23.161ZM29.3981 27.6151H13.3633V25.8335H29.3981V27.6151ZM13.3633 32.0692H29.3981V30.2876H13.3633V32.0692Z" fill="#EFF1ED"/>
<path fill-rule="evenodd" clip-rule="evenodd" d="M34.7422 17.8162C34.7422 17.3437 34.5545 16.8905 34.2204 16.5564C33.8863 16.2223 33.4331 16.0346 32.9606 16.0346H31.1789V15.1437C31.1789 9.73202 26.7916 5.34473 21.3799 5.34473C15.9682 5.34473 11.5809 9.73202 11.5809 15.1437V16.0346H9.79922C9.3267 16.0346 8.87353 16.2223 8.53941 16.5564C8.20529 16.8905 8.01758 17.3437 8.01758 17.8162V35.6326C8.01758 36.1051 8.20529 36.5583 8.53941 36.8924C8.87353 37.2265 9.3267 37.4142 9.79922 37.4142H32.9606C33.4331 37.4142 33.8863 37.2265 34.2204 36.8924C34.5545 36.5583 34.7422 36.1051 34.7422 35.6326V17.8162ZM13.3625 15.1437C13.3625 13.0174 14.2072 10.9782 15.7107 9.4746C17.2143 7.97105 19.2536 7.12637 21.3799 7.12637C23.5062 7.12637 25.5455 7.97105 27.049 9.4746C28.5526 10.9782 29.3973 13.0174 29.3973 15.1437V16.0346H27.6156V15.1437C27.6156 14.3249 27.4544 13.514 27.141 12.7574C26.8276 12.0009 26.3683 11.3135 25.7892 10.7344C25.2102 10.1554 24.5228 9.69605 23.7662 9.38267C23.0097 9.0693 22.1988 8.90801 21.3799 8.90801C20.561 8.90801 19.7501 9.0693 18.9936 9.38267C18.237 9.69605 17.5496 10.1554 16.9706 10.7344C16.3915 11.3135 15.9322 12.0009 15.6188 12.7574C15.3054 13.514 15.1441 14.3249 15.1441 15.1437V17.8162H32.9606V35.6326H9.79922V17.8162H13.3625V15.1437ZM21.3799 10.6896C22.5612 10.6896 23.6941 11.1589 24.5294 11.9942C25.3647 12.8295 25.834 13.9624 25.834 15.1437V16.0346H16.9258V15.1437C16.9258 13.9624 17.3951 12.8295 18.2304 11.9942C19.0657 11.1589 20.1986 10.6896 21.3799 10.6896Z" fill="#EFF1ED"/>
</svg>
