<svg width="48" height="48" viewBox="0 0 48 48" fill="none" xmlns="http://www.w3.org/2000/svg">
<path d="M23.9993 19.74C27.9233 13.2453 31.3666 9.99867 34.3293 10C38.7733 10 41.5793 15.164 43.2173 22.172C44.7813 28.868 44.3293 38 38.7733 38C36.2973 38 32.8893 34.348 29.5533 29.48C27.4257 26.3988 25.5675 23.1401 23.9993 19.74ZM23.9993 19.74C19.682 13.2453 15.8946 9.99867 12.6373 10C7.7473 10 4.6613 15.164 2.8573 22.172C1.1393 28.87 1.6393 38 7.7493 38C10.4733 38 14.2233 34.348 17.8893 29.48C20.332 26.2307 22.3686 22.984 23.9993 19.74Z" stroke="white" stroke-width="3" stroke-linecap="round" stroke-linejoin="round"/>
</svg>
