<svg width="623" height="622" viewBox="0 0 623 622" fill="none" xmlns="http://www.w3.org/2000/svg">
<path fill-rule="evenodd" clip-rule="evenodd" d="M512.87 48.5508H622.683V441.286H516.754V404.921H586.156V87.3394H512.87V48.5508Z" fill="#5DB667"/>
<path d="M0.5 48.5508H112.517V87.3394H37.0274V404.921H170.961L149.045 481.286L248.886 404.921H309.765L79.6427 573.409L118.605 441.286H0.5V48.5508Z" fill="#5DB667"/>
<path d="M246.451 247.342C246.451 264.079 232.823 277.646 216.012 277.646C199.2 277.646 185.572 264.079 185.572 247.342C185.572 230.606 199.2 217.039 216.012 217.039C232.823 217.039 246.451 230.606 246.451 247.342Z" fill="#5DB667"/>
<path d="M346.293 247.342C346.293 264.079 332.664 277.646 315.853 277.646C299.042 277.646 285.414 264.079 285.414 247.342C285.414 230.606 299.042 217.039 315.853 217.039C332.664 217.039 346.293 230.606 346.293 247.342Z" fill="#5DB667"/>
<path d="M446.134 247.342C446.134 264.079 432.506 277.646 415.695 277.646C398.883 277.646 385.255 264.079 385.255 247.342C385.255 230.606 398.883 217.039 415.695 217.039C432.506 217.039 446.134 230.606 446.134 247.342Z" fill="#5DB667"/>
</svg>
