<svg width="4272" height="614" viewBox="0 0 4272 614" fill="none" xmlns="http://www.w3.org/2000/svg">
<path d="M1064.96 303.885H975.138V451.319H898.071V98.8896H975.138V241.78H1064.96V98.8896H1142.03V451.319H1064.96V303.885Z" fill="#1D2227"/>
<path d="M1326.08 457.378C1305.66 457.378 1287.29 454.349 1270.96 448.29C1254.63 441.894 1240.68 432.806 1229.11 421.025C1217.88 409.243 1209.2 394.937 1203.08 378.107C1196.95 361.277 1193.89 342.258 1193.89 321.052C1193.89 299.845 1196.95 280.827 1203.08 263.996C1209.2 247.166 1217.88 232.86 1229.11 221.079C1240.68 209.297 1254.63 200.377 1270.96 194.318C1287.29 187.923 1305.66 184.725 1326.08 184.725C1346.49 184.725 1364.87 187.923 1381.2 194.318C1397.53 200.377 1411.31 209.297 1422.54 221.079C1434.11 232.86 1442.96 247.166 1449.08 263.996C1455.21 280.827 1458.27 299.845 1458.27 321.052C1458.27 342.258 1455.21 361.277 1449.08 378.107C1442.96 394.937 1434.11 409.243 1422.54 421.025C1411.31 432.806 1397.53 441.894 1381.2 448.29C1364.87 454.349 1346.49 457.378 1326.08 457.378ZM1326.08 401.838C1343.09 401.838 1356.36 396.621 1365.89 386.186C1375.42 375.751 1380.18 360.94 1380.18 341.753V300.35C1380.18 281.164 1375.42 266.353 1365.89 255.918C1356.36 245.483 1343.09 240.266 1326.08 240.266C1309.07 240.266 1295.8 245.483 1286.27 255.918C1276.74 266.353 1271.98 281.164 1271.98 300.35V341.753C1271.98 360.94 1276.74 375.751 1286.27 386.186C1295.8 396.621 1309.07 401.838 1326.08 401.838Z" fill="#1D2227"/>
<path d="M1652.52 451.319C1625.3 451.319 1605.06 444.251 1591.79 430.113C1578.52 415.976 1571.88 397.967 1571.88 376.087V248.849H1500.43V190.784H1546.87C1558.1 190.784 1566.1 188.596 1570.86 184.22C1575.63 179.844 1578.01 171.766 1578.01 159.984V98.8896H1647.42V190.784H1750V248.849H1647.42V393.254H1750V451.319H1652.52Z" fill="#1D2227"/>
<path d="M1927.93 304.39L1896.28 348.317V451.319H1819.73V98.8896H1896.28V246.324H1900.37L1939.16 187.754L2001.93 98.8896H2087.68L1981.01 247.839L2092.78 451.319H2006.53L1927.93 304.39Z" fill="#1D2227"/>
<path d="M2251.31 457.378C2207.08 457.378 2173.56 445.261 2150.76 421.025C2127.97 396.789 2116.57 363.801 2116.57 322.062C2116.57 300.855 2119.46 281.837 2125.24 265.006C2131.37 247.839 2139.88 233.365 2150.76 221.584C2161.99 209.466 2175.43 200.377 2191.08 194.318C2207.08 187.923 2224.94 184.725 2244.67 184.725C2264.41 184.725 2282.1 187.923 2297.75 194.318C2313.4 200.377 2326.67 209.129 2337.56 220.574C2348.45 232.019 2356.79 245.988 2362.57 262.482C2368.7 278.639 2371.76 296.816 2371.76 317.012V339.229H2191.59V343.773C2191.59 360.603 2196.87 374.236 2207.42 384.671C2217.96 394.769 2233.44 399.818 2253.86 399.818C2269.51 399.818 2282.95 396.957 2294.18 391.235C2305.41 385.176 2315.11 377.265 2323.27 367.504L2364.1 411.431C2353.89 423.886 2339.6 434.657 2321.23 443.746C2302.86 452.834 2279.55 457.378 2251.31 457.378ZM2245.18 238.246C2228.85 238.246 2215.75 243.295 2205.88 253.393C2196.36 263.155 2191.59 276.451 2191.59 293.281V297.321H2297.75V293.281C2297.75 276.114 2292.99 262.65 2283.46 252.888C2274.28 243.127 2261.52 238.246 2245.18 238.246Z" fill="#1D2227"/>
<path d="M2616.54 190.784H2693.61L2569.59 493.227C2561.76 512.414 2551.38 527.057 2538.45 537.155C2525.52 547.253 2507.83 552.302 2485.37 552.302H2433.31V494.237H2496.6L2512.93 449.805L2406.77 190.784H2487.92L2526.2 300.35L2550.19 376.087H2554.27L2577.24 300.35L2616.54 190.784Z" fill="#1D2227"/>
<path d="M2970.99 405.825H2966.4C2963.33 413.31 2959.59 420.456 2955.17 427.261C2950.75 434.066 2945.3 440.19 2938.84 445.634C2932.37 450.738 2924.72 454.821 2915.87 457.883C2907.36 460.946 2897.67 462.477 2886.78 462.477C2869.43 462.477 2853.94 458.394 2840.33 450.228C2827.06 442.062 2815.84 430.153 2806.65 414.501C2797.46 398.85 2790.49 379.796 2785.72 357.339C2781.3 334.882 2779.09 309.533 2779.09 281.292C2779.09 220.727 2790.15 174.453 2812.26 142.469C2834.38 110.145 2868.57 93.9834 2914.85 93.9834C2933.22 93.9834 2949.38 96.5353 2963.33 101.639C2977.29 106.403 2989.19 113.378 2999.06 122.565C3009.27 131.411 3017.61 142.129 3024.07 154.718C3030.53 167.308 3035.64 181.258 3039.38 196.57L2967.93 213.922C2965.89 206.437 2963.51 199.292 2960.78 192.487C2958.4 185.341 2955.17 179.047 2951.09 173.603C2947 168.158 2941.9 163.905 2935.77 160.843C2929.65 157.44 2922.16 155.739 2913.32 155.739C2893.92 155.739 2880.14 163.735 2871.98 179.727C2864.15 195.719 2860.24 218.176 2860.24 247.097V305.28C2860.24 334.202 2864.49 357.339 2873 374.692C2881.84 392.045 2897.33 400.721 2919.44 400.721C2936.8 400.721 2949.72 395.617 2958.23 385.41C2966.74 375.202 2970.99 362.102 2970.99 346.111V320.081H2910.26V265.981H3039.38V456.352H2970.99V405.825Z" fill="#1D2227"/>
<path d="M3105.02 397.659H3165.76V251.69H3105.02V192.997H3241.29V267.512H3244.86C3247.25 257.985 3250.48 248.798 3254.56 239.952C3258.99 230.765 3264.43 222.769 3270.89 215.964C3277.7 208.819 3285.87 203.204 3295.39 199.121C3304.92 195.038 3316.15 192.997 3329.08 192.997H3354.09V262.408H3297.94C3279.23 262.408 3265.11 268.023 3255.58 279.251C3246.06 290.139 3241.29 303.579 3241.29 319.571V397.659H3328.06V456.352H3105.02V397.659Z" fill="#1D2227"/>
<path d="M3526.39 462.477C3505.98 462.477 3487.61 459.415 3471.27 453.29C3454.94 446.825 3440.99 437.638 3429.42 425.73C3418.19 413.821 3409.52 399.36 3403.39 382.347C3397.27 365.335 3394.21 346.111 3394.21 324.675C3394.21 303.239 3397.27 284.014 3403.39 267.002C3409.52 249.989 3418.19 235.528 3429.42 223.62C3440.99 211.711 3454.94 202.694 3471.27 196.57C3487.61 190.105 3505.98 186.872 3526.39 186.872C3546.81 186.872 3565.18 190.105 3581.52 196.57C3597.85 202.694 3611.63 211.711 3622.86 223.62C3634.42 235.528 3643.27 249.989 3649.4 267.002C3655.52 284.014 3658.58 303.239 3658.58 324.675C3658.58 346.111 3655.52 365.335 3649.4 382.347C3643.27 399.36 3634.42 413.821 3622.86 425.73C3611.63 437.638 3597.85 446.825 3581.52 453.29C3565.18 459.415 3546.81 462.477 3526.39 462.477ZM3526.39 406.335C3543.41 406.335 3556.68 401.061 3566.2 390.513C3575.73 379.966 3580.49 364.995 3580.49 345.6V303.749C3580.49 284.355 3575.73 269.384 3566.2 258.836C3556.68 248.288 3543.41 243.014 3526.39 243.014C3509.38 243.014 3496.11 248.288 3486.58 258.836C3477.06 269.384 3472.29 284.355 3472.29 303.749V345.6C3472.29 364.995 3477.06 379.966 3486.58 390.513C3496.11 401.061 3509.38 406.335 3526.39 406.335Z" fill="#1D2227"/>
<path d="M3876.83 408.377H3873.76C3867.98 423.348 3858.79 436.107 3846.2 446.655C3833.95 457.203 3817.28 462.477 3796.19 462.477C3783.6 462.477 3772.03 460.435 3761.48 456.352C3750.93 451.929 3741.92 445.464 3734.43 436.958C3726.94 428.452 3720.99 418.074 3716.57 405.825C3712.48 393.576 3710.44 379.455 3710.44 363.463V192.997H3785.98V353.256C3785.98 387.281 3800.78 404.294 3830.38 404.294C3836.17 404.294 3841.78 403.613 3847.22 402.252C3853.01 400.551 3857.94 398.169 3862.02 395.107C3866.45 391.704 3870.02 387.621 3872.74 382.858C3875.46 378.094 3876.83 372.48 3876.83 366.015V192.997H3952.36V456.352H3876.83V408.377Z" fill="#1D2227"/>
<path d="M4015.45 192.997H4090.98V240.973H4094.56C4101.02 225.321 4110.38 212.391 4122.63 202.184C4134.88 191.976 4151.55 186.872 4172.65 186.872C4187.28 186.872 4200.55 189.594 4212.46 195.038C4224.7 200.482 4235.08 208.819 4243.59 220.047C4252.43 231.275 4259.24 245.566 4264 262.919C4269.11 280.272 4271.66 300.857 4271.66 324.675C4271.66 348.492 4269.11 369.078 4264 386.43C4259.24 403.783 4252.43 418.074 4243.59 429.302C4235.08 440.531 4224.7 448.867 4212.46 454.311C4200.55 459.755 4187.28 462.477 4172.65 462.477C4151.55 462.477 4134.88 457.543 4122.63 447.676C4110.38 437.468 4101.02 424.369 4094.56 408.377H4090.98V558.428H4015.45V192.997ZM4139.98 403.783C4156.99 403.783 4170.09 398.68 4179.28 388.472C4188.47 377.924 4193.06 363.463 4193.06 345.09V304.259C4193.06 285.886 4188.47 271.595 4179.28 261.388C4170.09 250.84 4156.99 245.566 4139.98 245.566C4126.71 245.566 4115.14 248.798 4105.28 255.263C4095.75 261.728 4090.98 271.935 4090.98 285.886V363.463C4090.98 377.414 4095.75 387.621 4105.28 394.086C4115.14 400.551 4126.71 403.783 4139.98 403.783Z" fill="#1D2227"/>
<path fill-rule="evenodd" clip-rule="evenodd" d="M598.117 0H726.308V459.015H602.651V416.513H683.668V45.3348H598.117V0Z" fill="#5DB667"/>
<path d="M0 0H130.764V45.3348H42.6404V416.513H198.989L173.404 505.766L289.955 416.513H361.022L92.3875 613.436L137.871 459.015H0V0Z" fill="#5DB667"/>
<path d="M287.112 232.341C287.112 251.901 271.203 267.759 251.578 267.759C231.954 267.759 216.045 251.901 216.045 232.341C216.045 212.78 231.954 196.923 251.578 196.923C271.203 196.923 287.112 212.78 287.112 232.341Z" fill="#5DB667"/>
<path d="M403.662 232.341C403.662 251.901 387.754 267.759 368.129 267.759C348.504 267.759 332.595 251.901 332.595 232.341C332.595 212.78 348.504 196.923 368.129 196.923C387.754 196.923 403.662 212.78 403.662 232.341Z" fill="#5DB667"/>
<path d="M520.213 232.341C520.213 251.901 504.304 267.759 484.679 267.759C465.055 267.759 449.146 251.901 449.146 232.341C449.146 212.78 465.055 196.923 484.679 196.923C504.304 196.923 520.213 212.78 520.213 232.341Z" fill="#5DB667"/>
</svg>
