<svg width="2500" height="641" viewBox="0 0 2500 641" fill="none" xmlns="http://www.w3.org/2000/svg">
<path d="M639.786 262.851H588.912V347.021H545.265V145.82H588.912V227.396H639.786V145.82H683.434V347.021H639.786V262.851Z" fill="#1D2227"/>
<path d="M787.67 350.48C776.108 350.48 765.702 348.75 756.452 345.291C747.202 341.64 739.301 336.451 732.749 329.725C726.39 323 721.476 314.832 718.007 305.224C714.539 295.616 712.804 284.758 712.804 272.651C712.804 260.545 714.539 249.687 718.007 240.079C721.476 230.47 726.39 222.303 732.749 215.577C739.301 208.852 747.202 203.759 756.452 200.3C765.702 196.649 776.108 194.823 787.67 194.823C799.232 194.823 809.638 196.649 818.888 200.3C828.138 203.759 835.942 208.852 842.302 215.577C848.854 222.303 853.864 230.47 857.333 240.079C860.801 249.687 862.536 260.545 862.536 272.651C862.536 284.758 860.801 295.616 857.333 305.224C853.864 314.832 848.854 323 842.302 329.725C835.942 336.451 828.138 341.64 818.888 345.291C809.638 348.75 799.232 350.48 787.67 350.48ZM787.67 318.772C797.305 318.772 804.821 315.793 810.216 309.836C815.612 303.879 818.31 295.423 818.31 284.47V260.833C818.31 249.879 815.612 241.424 810.216 235.467C804.821 229.51 797.305 226.531 787.67 226.531C778.035 226.531 770.519 229.51 765.124 235.467C759.728 241.424 757.03 249.879 757.03 260.833V284.47C757.03 295.423 759.728 303.879 765.124 309.836C770.519 315.793 778.035 318.772 787.67 318.772Z" fill="#1D2227"/>
<path d="M972.553 347.021C957.137 347.021 945.671 342.985 938.155 334.914C930.64 326.843 926.882 316.562 926.882 304.071V231.431H886.414V198.282H912.718C919.078 198.282 923.606 197.033 926.304 194.535C929.002 192.037 930.351 187.425 930.351 180.699V145.82H969.663V198.282H1027.76V231.431H969.663V313.872H1027.76V347.021H972.553Z" fill="#1D2227"/>
<path d="M1128.53 263.139L1110.61 288.217V347.021H1067.25V145.82H1110.61V229.99H1112.92L1134.89 196.553L1170.44 145.82H1219.01L1158.59 230.855L1221.9 347.021H1173.05L1128.53 263.139Z" fill="#1D2227"/>
<path d="M1311.68 350.48C1286.63 350.48 1267.65 343.562 1254.74 329.725C1241.82 315.889 1235.37 297.057 1235.37 273.228C1235.37 261.121 1237.01 250.264 1240.28 240.655C1243.75 230.855 1248.57 222.592 1254.74 215.866C1261.09 208.948 1268.71 203.759 1277.57 200.3C1286.63 196.649 1296.74 194.823 1307.92 194.823C1319.1 194.823 1329.12 196.649 1337.98 200.3C1346.85 203.759 1354.36 208.755 1360.53 215.289C1366.7 221.823 1371.42 229.798 1374.69 239.214C1378.16 248.438 1379.9 258.815 1379.9 270.345V283.028H1277.86V285.623C1277.86 295.231 1280.85 303.014 1286.82 308.971C1292.79 314.736 1301.56 317.619 1313.12 317.619C1321.99 317.619 1329.6 315.985 1335.96 312.719C1342.32 309.259 1347.81 304.744 1352.44 299.171L1375.56 324.249C1369.78 331.359 1361.69 337.508 1351.28 342.697C1340.87 347.885 1327.67 350.48 1311.68 350.48ZM1308.21 225.378C1298.96 225.378 1291.54 228.261 1285.95 234.026C1280.56 239.598 1277.86 247.189 1277.86 256.798V259.104H1337.98V256.798C1337.98 246.997 1335.29 239.31 1329.89 233.737C1324.69 228.164 1317.46 225.378 1308.21 225.378Z" fill="#1D2227"/>
<path d="M1518.53 198.282H1562.18L1491.94 370.946C1487.51 381.899 1481.63 390.258 1474.31 396.023C1466.98 401.789 1456.96 404.671 1444.24 404.671H1414.76V371.522H1450.6L1459.85 346.156L1399.73 198.282H1445.69L1467.37 260.833L1480.95 304.071H1483.27L1496.27 260.833L1518.53 198.282Z" fill="#1D2227"/>
<path d="M1718.65 318.405H1716.06C1714.33 322.636 1712.21 326.675 1709.71 330.522C1707.22 334.369 1704.14 337.831 1700.49 340.909C1696.84 343.794 1692.51 346.102 1687.51 347.833C1682.71 349.564 1677.23 350.43 1671.08 350.43C1661.28 350.43 1652.53 348.122 1644.85 343.505C1637.35 338.889 1631.01 332.157 1625.82 323.309C1620.63 314.462 1616.69 303.69 1614 290.996C1611.5 278.301 1610.25 263.972 1610.25 248.007C1610.25 213.77 1616.5 187.611 1628.99 169.531C1641.48 151.258 1660.8 142.122 1686.94 142.122C1697.32 142.122 1706.45 143.565 1714.33 146.45C1722.21 149.143 1728.93 153.086 1734.51 158.279C1740.27 163.28 1744.98 169.339 1748.63 176.455C1752.29 183.572 1755.17 191.458 1757.28 200.114L1716.92 209.923C1715.77 205.692 1714.42 201.652 1712.89 197.805C1711.54 193.766 1709.71 190.208 1707.41 187.13C1705.1 184.053 1702.22 181.649 1698.76 179.918C1695.3 177.994 1691.07 177.032 1686.07 177.032C1675.12 177.032 1667.33 181.552 1662.72 190.593C1658.3 199.633 1656.09 212.327 1656.09 228.677V261.567C1656.09 277.916 1658.49 290.996 1663.3 300.805C1668.29 310.615 1677.04 315.52 1689.53 315.52C1699.34 315.52 1706.64 312.634 1711.44 306.864C1716.25 301.094 1718.65 293.689 1718.65 284.648V269.934H1684.34V239.352H1757.28V346.968H1718.65V318.405Z" fill="#1D2227"/>
<path d="M1794.36 313.788H1828.67V231.273H1794.36V198.094H1871.34V240.217H1873.36C1874.7 234.832 1876.53 229.638 1878.83 224.637C1881.33 219.444 1884.41 214.924 1888.06 211.077C1891.9 207.038 1896.52 203.864 1901.9 201.556C1907.28 199.248 1913.62 198.094 1920.92 198.094H1935.05V237.332H1903.34C1892.77 237.332 1884.79 240.506 1879.41 246.853C1874.03 253.008 1871.34 260.606 1871.34 269.646V313.788H1920.35V346.968H1794.36V313.788Z" fill="#1D2227"/>
<path d="M2032.38 350.43C2020.85 350.43 2010.47 348.699 2001.25 345.237C1992.02 341.582 1984.14 336.389 1977.61 329.657C1971.26 322.925 1966.36 314.75 1962.9 305.133C1959.44 295.516 1957.71 284.648 1957.71 272.531C1957.71 260.413 1959.44 249.546 1962.9 239.929C1966.36 230.311 1971.26 222.137 1977.61 215.405C1984.14 208.673 1992.02 203.576 2001.25 200.114C2010.47 196.459 2020.85 194.632 2032.38 194.632C2043.92 194.632 2054.29 196.459 2063.52 200.114C2072.75 203.576 2080.53 208.673 2086.87 215.405C2093.41 222.137 2098.4 230.311 2101.86 239.929C2105.32 249.546 2107.05 260.413 2107.05 272.531C2107.05 284.648 2105.32 295.516 2101.86 305.133C2098.4 314.75 2093.41 322.925 2086.87 329.657C2080.53 336.389 2072.75 341.582 2063.52 345.237C2054.29 348.699 2043.92 350.43 2032.38 350.43ZM2032.38 318.693C2041.99 318.693 2049.49 315.712 2054.87 309.749C2060.25 303.787 2062.94 295.324 2062.94 284.36V260.702C2062.94 249.738 2060.25 241.275 2054.87 235.312C2049.49 229.35 2041.99 226.368 2032.38 226.368C2022.77 226.368 2015.28 229.35 2009.9 235.312C2004.52 241.275 2001.82 249.738 2001.82 260.702V284.36C2001.82 295.324 2004.52 303.787 2009.9 309.749C2015.28 315.712 2022.77 318.693 2032.38 318.693Z" fill="#1D2227"/>
<path d="M2230.33 319.847H2228.6C2225.34 328.31 2220.15 335.523 2213.04 341.486C2206.12 347.449 2196.7 350.43 2184.78 350.43C2177.67 350.43 2171.14 349.276 2165.18 346.968C2159.22 344.467 2154.13 340.813 2149.9 336.004C2145.67 331.196 2142.31 325.329 2139.81 318.405C2137.5 311.48 2136.35 303.498 2136.35 294.458V198.094H2179.02V288.688C2179.02 307.922 2187.38 317.539 2204.1 317.539C2207.37 317.539 2210.54 317.154 2213.61 316.385C2216.88 315.423 2219.67 314.077 2221.97 312.346C2224.47 310.422 2226.49 308.114 2228.03 305.422C2229.56 302.729 2230.33 299.555 2230.33 295.901V198.094H2273V346.968H2230.33V319.847Z" fill="#1D2227"/>
<path d="M2308.64 198.094H2351.31V225.214H2353.32C2356.98 216.367 2362.26 209.058 2369.18 203.287C2376.1 197.517 2385.52 194.632 2397.43 194.632C2405.7 194.632 2413.19 196.171 2419.92 199.248C2426.84 202.326 2432.7 207.038 2437.51 213.385C2442.51 219.733 2446.35 227.811 2449.04 237.621C2451.92 247.43 2453.36 259.067 2453.36 272.531C2453.36 285.995 2451.92 297.632 2449.04 307.441C2446.35 317.251 2442.51 325.329 2437.51 331.676C2432.7 338.024 2426.84 342.736 2419.92 345.814C2413.19 348.891 2405.7 350.43 2397.43 350.43C2385.52 350.43 2376.1 347.641 2369.18 342.063C2362.26 336.293 2356.98 328.887 2353.32 319.847H2351.31V404.671H2308.64V198.094ZM2378.98 317.251C2388.59 317.251 2395.99 314.365 2401.18 308.595C2406.37 302.633 2408.97 294.458 2408.97 284.071V260.99C2408.97 250.604 2406.37 242.525 2401.18 236.755C2395.99 230.792 2388.59 227.811 2378.98 227.811C2371.49 227.811 2364.95 229.638 2359.38 233.293C2354 236.947 2351.31 242.718 2351.31 250.604V294.458C2351.31 302.344 2354 308.114 2359.38 311.769C2364.95 315.423 2371.49 317.251 2378.98 317.251Z" fill="#1D2227"/>
<path fill-rule="evenodd" clip-rule="evenodd" d="M384.07 94.0449H456.516V354.143H386.632V330.059H432.418V119.734H384.07V94.0449Z" fill="#5DB667"/>
<path d="M46.0522 94.0449H119.952V119.734H70.1499V330.059H158.508L144.049 380.634L209.916 330.059H250.079L98.2638 441.644L123.968 354.143H46.0522V94.0449Z" fill="#5DB667"/>
<path d="M208.31 225.699C208.31 236.783 199.319 245.769 188.228 245.769C177.138 245.769 168.147 236.783 168.147 225.699C168.147 214.615 177.138 205.63 188.228 205.63C199.319 205.63 208.31 214.615 208.31 225.699Z" fill="#5DB667"/>
<path d="M274.177 225.699C274.177 236.783 265.186 245.769 254.095 245.769C243.005 245.769 234.014 236.783 234.014 225.699C234.014 214.615 243.005 205.63 254.095 205.63C265.186 205.63 274.177 214.615 274.177 225.699Z" fill="#5DB667"/>
<path d="M340.044 225.699C340.044 236.783 331.053 245.769 319.962 245.769C308.872 245.769 299.881 236.783 299.881 225.699C299.881 214.615 308.872 205.63 319.962 205.63C331.053 205.63 340.044 214.615 340.044 225.699Z" fill="#5DB667"/>
<path d="M2282.56 499.809C2279.67 499.809 2277.6 499.069 2276.37 497.589C2275.13 496.109 2274.36 494.259 2274.05 492.039H2273.59C2272.54 494.814 2270.85 497.003 2268.5 498.606C2266.22 500.148 2263.14 500.919 2259.25 500.919C2254.26 500.919 2250.28 499.624 2247.32 497.034C2244.36 494.444 2242.88 490.898 2242.88 486.397C2242.88 481.957 2244.49 478.535 2247.69 476.13C2250.96 473.725 2256.2 472.522 2263.42 472.522H2273.59V467.805C2273.59 464.29 2272.6 461.669 2270.63 459.943C2268.66 458.155 2265.85 457.26 2262.21 457.26C2259.01 457.26 2256.39 457.908 2254.35 459.203C2252.32 460.436 2250.68 462.132 2249.45 464.29L2244.46 460.59C2245.07 459.357 2245.9 458.155 2246.95 456.983C2248 455.811 2249.3 454.794 2250.84 453.931C2252.38 453.006 2254.14 452.296 2256.11 451.803C2258.08 451.248 2260.27 450.971 2262.68 450.971C2268.29 450.971 2272.73 452.389 2276 455.226C2279.33 458.062 2280.99 462.009 2280.99 467.065V493.334H2287.65V499.809H2282.56ZM2260.55 494.721C2262.46 494.721 2264.19 494.506 2265.73 494.074C2267.33 493.581 2268.72 492.964 2269.89 492.224C2271.06 491.422 2271.96 490.497 2272.57 489.449C2273.25 488.339 2273.59 487.168 2273.59 485.934V478.072H2263.42C2258.98 478.072 2255.74 478.689 2253.7 479.922C2251.67 481.155 2250.65 482.944 2250.65 485.287V487.229C2250.65 489.696 2251.52 491.577 2253.24 492.872C2255.03 494.105 2257.47 494.721 2260.55 494.721Z" fill="#1D2227"/>
<path d="M2210.45 499.809C2206.81 499.809 2204.13 498.791 2202.41 496.756C2200.74 494.721 2199.91 492.1 2199.91 488.894V458.37H2184V452.08H2195.84C2197.44 452.08 2198.55 451.772 2199.17 451.155C2199.85 450.477 2200.19 449.336 2200.19 447.733V435.246H2207.31V452.08H2229.04V458.37H2207.31V493.519H2229.04V499.809H2210.45Z" fill="#1D2227"/>
<path d="M2152.59 500.919C2149.13 500.919 2146.02 500.333 2143.24 499.161C2140.53 497.99 2138.19 496.325 2136.21 494.166C2134.3 491.947 2132.82 489.326 2131.77 486.304C2130.73 483.221 2130.2 479.799 2130.2 476.037C2130.2 472.214 2130.73 468.761 2131.77 465.678C2132.88 462.594 2134.4 459.974 2136.31 457.815C2138.22 455.596 2140.5 453.9 2143.15 452.728C2145.86 451.557 2148.86 450.971 2152.12 450.971C2155.33 450.971 2158.23 451.557 2160.82 452.728C2163.47 453.9 2165.72 455.534 2167.57 457.63C2169.42 459.665 2170.84 462.101 2171.83 464.938C2172.81 467.774 2173.31 470.888 2173.31 474.28V477.795H2137.97V480.015C2137.97 482.111 2138.31 484.054 2138.99 485.842C2139.67 487.63 2140.62 489.172 2141.86 490.467C2143.15 491.762 2144.69 492.779 2146.48 493.519C2148.33 494.197 2150.37 494.536 2152.59 494.536C2155.79 494.536 2158.57 493.796 2160.91 492.317C2163.25 490.837 2165.04 488.802 2166.28 486.212L2171.73 489.912C2170.31 493.118 2167.94 495.77 2164.61 497.866C2161.34 499.901 2157.33 500.919 2152.59 500.919ZM2152.12 457.075C2150.09 457.075 2148.21 457.445 2146.48 458.185C2144.75 458.925 2143.24 459.943 2141.95 461.238C2140.72 462.533 2139.73 464.074 2138.99 465.863C2138.31 467.589 2137.97 469.501 2137.97 471.597V472.245H2165.35V471.227C2165.35 469.131 2165.01 467.219 2164.33 465.493C2163.72 463.766 2162.82 462.286 2161.65 461.053C2160.54 459.758 2159.15 458.771 2157.49 458.093C2155.88 457.415 2154.1 457.075 2152.12 457.075Z" fill="#1D2227"/>
<path d="M2109.7 467.435V446.993H2108.96L2095.37 480.199L2081.77 446.993H2081.03V467.435V499.809H2073.91V435.246H2083.9L2095.27 463.735H2095.83L2107.21 435.246H2116.83V499.809H2109.7V467.435Z" fill="#1D2227"/>
<path d="M1963.63 452.081H1971.03V459.85H1971.4C1974.48 453.931 1979.39 450.971 1986.11 450.971C1991.97 450.971 1996.53 453.16 1999.8 457.538C2003.13 461.916 2004.79 468.052 2004.79 475.945C2004.79 483.838 2003.13 489.973 1999.8 494.351C1996.53 498.73 1991.97 500.919 1986.11 500.919C1979.39 500.919 1974.48 497.959 1971.4 492.039H1971.03V518.308H1963.63V452.081ZM1983.24 494.351C1987.56 494.351 1990.89 493.057 1993.23 490.467C1995.64 487.815 1996.84 484.331 1996.84 480.015V471.875C1996.84 467.558 1995.64 464.105 1993.23 461.515C1990.89 458.864 1987.56 457.538 1983.24 457.538C1981.58 457.538 1980 457.754 1978.52 458.185C1977.04 458.617 1975.75 459.265 1974.64 460.128C1973.53 460.929 1972.63 461.947 1971.96 463.18C1971.34 464.352 1971.03 465.739 1971.03 467.343V484.547C1971.03 486.15 1971.34 487.568 1971.96 488.802C1972.63 489.973 1973.53 490.991 1974.64 491.854C1975.75 492.656 1977.04 493.272 1978.52 493.704C1980 494.136 1981.58 494.351 1983.24 494.351Z" fill="#1D2227"/>
<path d="M1927.04 500.919C1923.59 500.919 1920.47 500.333 1917.7 499.161C1914.98 497.99 1912.64 496.325 1910.67 494.166C1908.76 491.947 1907.28 489.326 1906.23 486.304C1905.18 483.221 1904.66 479.799 1904.66 476.037C1904.66 472.214 1905.18 468.761 1906.23 465.678C1907.34 462.594 1908.85 459.974 1910.76 457.815C1912.67 455.596 1914.95 453.9 1917.6 452.728C1920.32 451.557 1923.31 450.971 1926.58 450.971C1929.78 450.971 1932.68 451.557 1935.27 452.728C1937.92 453.9 1940.17 455.534 1942.02 457.63C1943.87 459.665 1945.29 462.101 1946.28 464.938C1947.27 467.774 1947.76 470.888 1947.76 474.28V477.795H1912.43V480.015C1912.43 482.111 1912.76 484.054 1913.44 485.842C1914.12 487.63 1915.08 489.172 1916.31 490.467C1917.6 491.762 1919.15 492.779 1920.93 493.519C1922.78 494.197 1924.82 494.536 1927.04 494.536C1930.25 494.536 1933.02 493.796 1935.36 492.317C1937.71 490.837 1939.5 488.802 1940.73 486.212L1946.19 489.912C1944.77 493.118 1942.39 495.77 1939.06 497.866C1935.8 499.901 1931.79 500.919 1927.04 500.919ZM1926.58 457.075C1924.54 457.075 1922.66 457.445 1920.93 458.185C1919.21 458.925 1917.7 459.943 1916.4 461.238C1915.17 462.533 1914.18 464.074 1913.44 465.863C1912.76 467.589 1912.43 469.501 1912.43 471.597V472.245H1939.8V471.227C1939.8 469.131 1939.46 467.219 1938.79 465.493C1938.17 463.766 1937.28 462.286 1936.1 461.053C1934.99 459.758 1933.61 458.771 1931.94 458.093C1930.34 457.415 1928.55 457.075 1926.58 457.075Z" fill="#1D2227"/>
<path d="M1850.86 452.081H1858.26V472.06H1881.38V452.081H1888.78V499.809H1881.38V478.35H1858.26V499.809H1850.86V452.081Z" fill="#1D2227"/>
<path d="M1809.73 458.371H1792.16V452.081H1834.71V458.371H1817.13V499.809H1809.73V458.371Z" fill="#1D2227"/>
<path d="M1738.09 452.081H1745.49V459.85H1745.86C1748.94 453.931 1753.84 450.971 1760.56 450.971C1766.42 450.971 1770.98 453.16 1774.25 457.538C1777.58 461.916 1779.25 468.052 1779.25 475.945C1779.25 483.838 1777.58 489.973 1774.25 494.351C1770.98 498.73 1766.42 500.919 1760.56 500.919C1753.84 500.919 1748.94 497.959 1745.86 492.039H1745.49V518.308H1738.09V452.081ZM1757.69 494.351C1762.01 494.351 1765.34 493.057 1767.68 490.467C1770.09 487.815 1771.29 484.331 1771.29 480.015V471.875C1771.29 467.558 1770.09 464.105 1767.68 461.515C1765.34 458.864 1762.01 457.538 1757.69 457.538C1756.03 457.538 1754.46 457.754 1752.98 458.185C1751.5 458.617 1750.2 459.265 1749.09 460.128C1747.98 460.929 1747.09 461.947 1746.41 463.18C1745.79 464.352 1745.49 465.739 1745.49 467.343V484.547C1745.49 486.15 1745.79 487.568 1746.41 488.802C1747.09 489.973 1747.98 490.991 1749.09 491.854C1750.2 492.656 1751.5 493.272 1752.98 493.704C1754.46 494.136 1756.03 494.351 1757.69 494.351Z" fill="#1D2227"/>
<path d="M1718.7 499.809C1715.8 499.809 1713.73 499.069 1712.5 497.589C1711.27 496.109 1710.5 494.259 1710.19 492.039H1709.73C1708.68 494.814 1706.98 497.003 1704.64 498.606C1702.36 500.148 1699.27 500.919 1695.39 500.919C1690.39 500.919 1686.42 499.624 1683.46 497.034C1680.5 494.444 1679.02 490.898 1679.02 486.397C1679.02 481.957 1680.62 478.535 1683.83 476.13C1687.09 473.725 1692.34 472.522 1699.55 472.522H1709.73V467.805C1709.73 464.29 1708.74 461.669 1706.77 459.943C1704.79 458.155 1701.99 457.26 1698.35 457.26C1695.14 457.26 1692.52 457.908 1690.49 459.203C1688.45 460.436 1686.82 462.132 1685.58 464.29L1680.59 460.59C1681.21 459.357 1682.04 458.155 1683.09 456.983C1684.13 455.811 1685.43 454.794 1686.97 453.931C1688.51 453.006 1690.27 452.296 1692.24 451.803C1694.22 451.248 1696.41 450.971 1698.81 450.971C1704.42 450.971 1708.86 452.389 1712.13 455.226C1715.46 458.062 1717.12 462.009 1717.12 467.065V493.334H1723.78V499.809H1718.7ZM1696.68 494.721C1698.59 494.721 1700.32 494.506 1701.86 494.074C1703.47 493.581 1704.85 492.964 1706.03 492.224C1707.2 491.422 1708.09 490.497 1708.71 489.449C1709.39 488.339 1709.73 487.168 1709.73 485.934V478.072H1699.55C1695.11 478.072 1691.87 478.689 1689.84 479.922C1687.8 481.155 1686.79 482.944 1686.79 485.287V487.229C1686.79 489.696 1687.65 491.577 1689.38 492.872C1691.16 494.105 1693.6 494.721 1696.68 494.721Z" fill="#1D2227"/>
<path d="M1625.5 452.081H1663.05V499.809H1655.65V458.371H1632.9V499.809H1625.5V452.081Z" fill="#1D2227"/>
<path d="M1574.48 475.574V467.805H1601.3V475.574H1574.48Z" fill="#1D2227"/>
<path d="M1533.17 500.919C1529.71 500.919 1526.63 500.333 1523.92 499.161C1521.26 497.928 1519.01 496.232 1517.16 494.074C1515.31 491.916 1513.9 489.295 1512.91 486.212C1511.98 483.129 1511.52 479.706 1511.52 475.945C1511.52 472.183 1512.01 468.761 1513 465.678C1513.99 462.594 1515.41 459.974 1517.26 457.815C1519.11 455.596 1521.36 453.9 1524.01 452.728C1526.66 451.557 1529.68 450.971 1533.07 450.971C1537.7 450.971 1541.46 451.988 1544.36 454.023C1547.26 456.058 1549.38 458.71 1550.74 461.978L1544.82 465.123C1543.96 462.656 1542.51 460.744 1540.47 459.388C1538.5 458.031 1536.03 457.353 1533.07 457.353C1530.91 457.353 1528.97 457.723 1527.25 458.463C1525.58 459.141 1524.16 460.128 1522.99 461.423C1521.82 462.718 1520.93 464.259 1520.31 466.048C1519.75 467.836 1519.48 469.778 1519.48 471.875V480.015C1519.48 482.111 1519.75 484.054 1520.31 485.842C1520.93 487.63 1521.82 489.172 1522.99 490.467C1524.16 491.762 1525.61 492.779 1527.34 493.519C1529.06 494.197 1531.04 494.536 1533.26 494.536C1536.46 494.536 1539.12 493.796 1541.21 492.317C1543.31 490.837 1544.97 488.802 1546.21 486.212L1551.48 489.819C1550.06 493.026 1547.84 495.677 1544.82 497.774C1541.86 499.87 1537.98 500.919 1533.17 500.919Z" fill="#1D2227"/>
<path d="M1475.95 500.919C1472.49 500.919 1469.38 500.333 1466.6 499.161C1463.89 497.99 1461.55 496.325 1459.57 494.166C1457.66 491.947 1456.18 489.326 1455.14 486.304C1454.09 483.221 1453.56 479.799 1453.56 476.037C1453.56 472.214 1454.09 468.761 1455.14 465.678C1456.25 462.594 1457.76 459.974 1459.67 457.815C1461.58 455.596 1463.86 453.9 1466.51 452.728C1469.23 451.557 1472.22 450.971 1475.48 450.971C1478.69 450.971 1481.59 451.557 1484.18 452.728C1486.83 453.9 1489.08 455.534 1490.93 457.63C1492.78 459.665 1494.2 462.101 1495.19 464.938C1496.17 467.774 1496.67 470.888 1496.67 474.28V477.795H1461.33V480.015C1461.33 482.111 1461.67 484.054 1462.35 485.842C1463.03 487.63 1463.98 489.172 1465.22 490.467C1466.51 491.762 1468.05 492.779 1469.84 493.519C1471.69 494.197 1473.73 494.536 1475.95 494.536C1479.15 494.536 1481.93 493.796 1484.27 492.317C1486.61 490.837 1488.4 488.802 1489.64 486.212L1495.09 489.912C1493.68 493.118 1491.3 495.77 1487.97 497.866C1484.7 499.901 1480.69 500.919 1475.95 500.919ZM1475.48 457.075C1473.45 457.075 1471.57 457.445 1469.84 458.185C1468.12 458.925 1466.6 459.943 1465.31 461.238C1464.08 462.533 1463.09 464.074 1462.35 465.863C1461.67 467.589 1461.33 469.501 1461.33 471.597V472.245H1488.71V471.227C1488.71 469.131 1488.37 467.219 1487.69 465.493C1487.08 463.766 1486.18 462.286 1485.01 461.053C1483.9 459.758 1482.51 458.771 1480.85 458.093C1479.25 457.415 1477.46 457.075 1475.48 457.075Z" fill="#1D2227"/>
<path d="M1399.77 452.081H1407.17V472.06H1430.29V452.081H1437.69V499.809H1430.29V478.35H1407.17V499.809H1399.77V452.081Z" fill="#1D2227"/>
<path d="M1360.4 500.919C1355.47 500.919 1351.36 500.117 1348.1 498.514C1344.89 496.911 1342.27 494.629 1340.23 491.669L1345.69 487.229C1347.17 489.572 1349.11 491.392 1351.52 492.687C1353.92 493.92 1356.88 494.536 1360.4 494.536C1364.84 494.536 1368.04 493.827 1370.02 492.409C1371.99 490.991 1372.98 489.172 1372.98 486.952V485.657C1372.98 483.252 1372.18 481.433 1370.57 480.2C1369.03 478.905 1366.78 478.257 1363.82 478.257H1350.96V472.06H1362.9C1368.94 472.06 1371.96 469.809 1371.96 465.308V464.198C1371.96 462.163 1371.1 460.529 1369.37 459.295C1367.71 458 1364.78 457.353 1360.58 457.353C1356.88 457.353 1353.89 457.97 1351.61 459.203C1349.39 460.436 1347.57 462.163 1346.15 464.383L1340.97 460.868C1343.13 457.723 1345.75 455.287 1348.84 453.561C1351.92 451.834 1355.96 450.971 1360.95 450.971C1367.3 450.971 1372.02 452.111 1375.11 454.393C1378.25 456.675 1379.82 459.82 1379.82 463.828C1379.82 466.788 1379.05 469.131 1377.51 470.857C1375.97 472.584 1373.81 473.786 1371.04 474.465V474.835C1374.24 475.328 1376.68 476.561 1378.34 478.535C1380.01 480.446 1380.84 482.913 1380.84 485.934C1380.84 490.559 1379.05 494.228 1375.48 496.941C1371.96 499.593 1366.93 500.919 1360.4 500.919Z" fill="#1D2227"/>
<path d="M1286.99 452.081H1294.39V476.408L1293.65 488.617H1294.02L1317.98 452.081H1324.92V499.809H1317.52V475.483L1318.26 463.273H1317.89L1293.93 499.809H1286.99V452.081Z" fill="#1D2227"/>
<path d="M1249.66 500.918C1246.45 500.918 1243.52 500.332 1240.87 499.161C1238.28 497.989 1236.03 496.201 1234.12 493.796C1232.27 491.391 1230.82 488.37 1229.77 484.731C1228.73 481.032 1228.2 476.653 1228.2 471.597C1228.2 464.567 1228.66 458.586 1229.59 453.653C1230.58 448.72 1232.06 444.65 1234.03 441.443C1236.06 438.237 1238.62 435.863 1241.71 434.321C1244.85 432.779 1248.58 431.854 1252.9 431.546L1267.51 430.621V437.928L1252.16 438.946C1249.51 439.131 1247.22 439.624 1245.31 440.426C1243.46 441.227 1241.89 442.522 1240.6 444.311C1239.36 446.037 1238.38 448.319 1237.64 451.155C1236.9 453.992 1236.34 457.538 1235.97 461.792H1236.43C1237.73 458.709 1239.55 456.335 1241.89 454.67C1244.23 452.944 1247.16 452.08 1250.68 452.08C1253.7 452.08 1256.47 452.635 1259 453.745C1261.53 454.855 1263.69 456.458 1265.48 458.555C1267.27 460.59 1268.65 463.149 1269.64 466.232C1270.69 469.254 1271.21 472.707 1271.21 476.592C1271.21 480.23 1270.69 483.529 1269.64 486.489C1268.59 489.449 1267.11 492.008 1265.2 494.166C1263.29 496.324 1261.01 497.989 1258.35 499.161C1255.77 500.332 1252.87 500.918 1249.66 500.918ZM1249.66 494.536C1253.67 494.536 1256.94 493.303 1259.46 490.836C1262.05 488.308 1263.35 484.639 1263.35 479.829V474.002C1263.35 468.822 1262.09 464.937 1259.56 462.347C1257.09 459.757 1253.85 458.462 1249.85 458.462C1245.16 458.462 1241.67 459.603 1239.39 461.885C1237.17 464.105 1236.06 466.972 1236.06 470.487V479.829C1236.06 484.639 1237.3 488.308 1239.76 490.836C1242.29 493.303 1245.59 494.536 1249.66 494.536Z" fill="#1D2227"/>
<path d="M1117.83 452.081H1125.23V476.407L1124.49 488.617H1124.86L1148.82 452.081H1155.76V499.809H1148.36V475.482L1149.1 463.273H1148.73L1124.77 499.809H1117.83V452.081ZM1136.52 444.773C1133.37 444.773 1130.81 444.095 1128.84 442.738C1126.87 441.32 1125.14 439.131 1123.66 436.171L1121.07 430.899L1127.73 428.771L1131.43 438.576C1132.11 438.823 1132.94 438.977 1133.93 439.039C1134.91 439.1 1135.78 439.131 1136.52 439.131C1137.26 439.131 1138.12 439.1 1139.11 439.039C1140.09 438.977 1140.93 438.823 1141.6 438.576L1145.3 428.771L1151.96 430.899L1149.37 436.171C1147.89 439.131 1146.17 441.32 1144.19 442.738C1142.22 444.095 1139.66 444.773 1136.52 444.773Z" fill="#1D2227"/>
<path d="M1057.65 452.081H1065.05V469.378H1073.1C1077.91 469.378 1081.73 470.734 1084.57 473.448C1087.41 476.161 1088.83 479.892 1088.83 484.64C1088.83 489.45 1087.44 493.18 1084.66 495.832C1081.89 498.483 1078.06 499.809 1073.19 499.809H1057.65V452.081ZM1072.08 493.519C1074.86 493.519 1077.02 492.964 1078.56 491.854C1080.16 490.745 1080.96 488.956 1080.96 486.49V482.605C1080.96 480.138 1080.16 478.381 1078.56 477.333C1077.02 476.223 1074.86 475.668 1072.08 475.668H1065.05V493.519H1072.08ZM1095.76 452.081H1103.16V499.809H1095.76V452.081Z" fill="#1D2227"/>
<path d="M1005.06 452.081H1012.46V472.06H1035.58V452.081H1042.98V499.809H1035.58V478.35H1012.46V499.809H1005.06V452.081Z" fill="#1D2227"/>
<path d="M950.153 452.081H957.553V469.378H972.352C977.162 469.378 980.985 470.734 983.822 473.448C986.658 476.161 988.077 479.892 988.077 484.64C988.077 489.45 986.689 493.18 983.914 495.832C981.139 498.483 977.316 499.809 972.445 499.809H950.153V452.081ZM971.335 493.519C974.11 493.519 976.268 492.964 977.809 491.854C979.413 490.745 980.214 488.956 980.214 486.49V482.605C980.214 480.138 979.413 478.381 977.809 477.333C976.268 476.223 974.11 475.668 971.335 475.668H957.553V493.519H971.335Z" fill="#1D2227"/>
<path d="M885.904 493.519H891.824C892.749 492.348 893.55 490.96 894.228 489.357C894.968 487.754 895.554 485.842 895.986 483.622C896.479 481.402 896.849 478.843 897.096 475.945C897.343 472.985 897.466 469.563 897.466 465.678V452.081H929.192V499.809H921.792V458.371H904.681V465.863C904.681 474.496 904.033 481.279 902.738 486.212C901.505 491.084 899.84 494.568 897.743 496.664C896.572 497.836 895.277 498.668 893.858 499.162C892.44 499.593 890.744 499.809 888.771 499.809H885.904V493.519Z" fill="#1D2227"/>
<path d="M872.898 499.809C870 499.809 867.934 499.069 866.701 497.589C865.468 496.109 864.697 494.259 864.389 492.039H863.926C862.878 494.814 861.182 497.003 858.839 498.606C856.557 500.148 853.474 500.919 849.589 500.919C844.594 500.919 840.617 499.624 837.657 497.034C834.697 494.444 833.217 490.898 833.217 486.397C833.217 481.957 834.821 478.535 838.027 476.13C841.295 473.725 846.537 472.522 853.751 472.522H863.926V467.805C863.926 464.29 862.939 461.669 860.966 459.943C858.993 458.155 856.187 457.26 852.549 457.26C849.342 457.26 846.722 457.908 844.687 459.203C842.652 460.436 841.018 462.132 839.785 464.29L834.79 460.59C835.406 459.357 836.239 458.155 837.287 456.983C838.335 455.811 839.63 454.794 841.172 453.931C842.714 453.006 844.471 452.296 846.444 451.803C848.418 451.248 850.607 450.971 853.011 450.971C858.623 450.971 863.063 452.389 866.331 455.226C869.661 458.062 871.326 462.009 871.326 467.065V493.334H877.985V499.809H872.898ZM850.884 494.721C852.796 494.721 854.522 494.506 856.064 494.074C857.667 493.581 859.055 492.964 860.226 492.224C861.398 491.422 862.292 490.497 862.909 489.449C863.587 488.339 863.926 487.168 863.926 485.934V478.072H853.751C849.312 478.072 846.074 478.689 844.039 479.922C842.004 481.155 840.987 482.944 840.987 485.287V487.229C840.987 489.696 841.85 491.577 843.577 492.872C845.365 494.105 847.801 494.721 850.884 494.721Z" fill="#1D2227"/>
<path d="M779.513 452.081H786.913V476.408L786.173 488.617H786.543L810.499 452.081H817.437V499.809H810.037V475.483L810.777 463.273H810.407L786.45 499.809H779.513V452.081Z" fill="#1D2227"/>
<path d="M760.31 499.809H722.109V452.081H729.509V493.519H751.8V452.081H759.2V493.519H767.062V512.759H760.31V499.809Z" fill="#1D2227"/>
<path d="M666.74 452.081H674.139V476.408L673.399 488.617H673.769L697.726 452.081H704.663V499.809H697.264V475.483L698.003 463.273H697.634L673.677 499.809H666.74V452.081Z" fill="#1D2227"/>
<path d="M619.511 494.722C621.546 494.722 623.118 494.136 624.228 492.964C625.338 491.793 625.893 490.035 625.893 487.692V464.198C625.893 461.855 625.338 460.097 624.228 458.926C623.118 457.754 621.546 457.168 619.511 457.168C618.401 457.168 617.414 457.384 616.551 457.816C615.687 458.247 614.978 459.018 614.423 460.128C613.868 461.238 613.437 462.749 613.128 464.66C612.82 466.51 612.666 468.884 612.666 471.783V480.107C612.666 483.006 612.82 485.411 613.128 487.322C613.437 489.172 613.868 490.652 614.423 491.762C614.978 492.872 615.687 493.643 616.551 494.074C617.414 494.506 618.401 494.722 619.511 494.722ZM625.893 494.907H625.615C624.567 497.065 623.334 498.607 621.916 499.532C620.559 500.457 618.987 500.919 617.198 500.919C615.348 500.919 613.683 500.549 612.203 499.809C610.785 499.007 609.583 497.651 608.596 495.739C607.609 493.828 606.87 491.269 606.376 488.062C605.883 484.856 605.636 480.817 605.636 475.945C605.636 471.074 605.883 467.035 606.376 463.828C606.87 460.621 607.609 458.062 608.596 456.151C609.583 454.239 610.785 452.913 612.203 452.173C613.683 451.372 615.348 450.971 617.198 450.971C618.987 450.971 620.559 451.434 621.916 452.358C623.334 453.283 624.567 454.825 625.615 456.983H625.893V434.137H632.738V456.983H633.015C634.063 454.825 635.266 453.283 636.622 452.358C638.041 451.434 639.644 450.971 641.432 450.971C643.282 450.971 644.916 451.372 646.335 452.173C647.815 452.913 649.048 454.239 650.034 456.151C651.021 458.062 651.761 460.621 652.254 463.828C652.748 467.035 652.994 471.074 652.994 475.945C652.994 480.817 652.748 484.856 652.254 488.062C651.761 491.269 651.021 493.828 650.034 495.739C649.048 497.651 647.815 499.007 646.335 499.809C644.916 500.549 643.282 500.919 641.432 500.919C639.644 500.919 638.041 500.457 636.622 499.532C635.266 498.607 634.063 497.065 633.015 494.907H632.738V518.308H625.893V494.907ZM639.12 494.722C640.23 494.722 641.216 494.506 642.08 494.074C642.943 493.643 643.652 492.872 644.207 491.762C644.762 490.652 645.194 489.172 645.502 487.322C645.81 485.411 645.965 483.006 645.965 480.107V471.783C645.965 468.884 645.81 466.51 645.502 464.66C645.194 462.749 644.762 461.238 644.207 460.128C643.652 459.018 642.943 458.247 642.08 457.816C641.216 457.384 640.23 457.168 639.12 457.168C637.085 457.168 635.513 457.754 634.403 458.926C633.293 460.097 632.738 461.855 632.738 464.198V487.692C632.738 490.035 633.293 491.793 634.403 492.964C635.513 494.136 637.085 494.722 639.12 494.722Z" fill="#1D2227"/>
<path d="M572.928 500.919C568.982 500.919 565.59 500.179 562.754 498.699C559.917 497.158 557.574 494.968 555.724 492.132C553.874 489.295 552.518 485.811 551.654 481.68C550.791 477.548 550.359 472.831 550.359 467.528C550.359 462.286 550.791 457.6 551.654 453.468C552.518 449.275 553.874 445.76 555.724 442.924C557.574 440.087 559.917 437.929 562.754 436.449C565.59 434.908 568.982 434.137 572.928 434.137C576.875 434.137 580.267 434.908 583.103 436.449C585.94 437.929 588.283 440.087 590.133 442.924C591.983 445.76 593.339 449.275 594.203 453.468C595.066 457.6 595.498 462.286 595.498 467.528C595.498 472.831 595.066 477.548 594.203 481.68C593.339 485.811 591.983 489.295 590.133 492.132C588.283 494.968 585.94 497.158 583.103 498.699C580.267 500.179 576.875 500.919 572.928 500.919ZM572.928 494.167C575.518 494.167 577.707 493.674 579.496 492.687C581.284 491.639 582.764 490.189 583.936 488.34C585.107 486.49 585.94 484.27 586.433 481.68C586.988 479.028 587.265 476.068 587.265 472.8V462.256C587.265 459.049 586.988 456.12 586.433 453.468C585.94 450.817 585.107 448.566 583.936 446.716C582.764 444.866 581.284 443.448 579.496 442.461C577.707 441.413 575.518 440.889 572.928 440.889C570.339 440.889 568.149 441.413 566.361 442.461C564.573 443.448 563.093 444.866 561.921 446.716C560.75 448.566 559.886 450.817 559.332 453.468C558.838 456.12 558.592 459.049 558.592 462.256V472.8C558.592 476.068 558.838 479.028 559.332 481.68C559.886 484.27 560.75 486.49 561.921 488.34C563.093 490.189 564.573 491.639 566.361 492.687C568.149 493.674 570.339 494.167 572.928 494.167Z" fill="#1D2227"/>
</svg>
