<svg width="2500" height="641" viewBox="0 0 2500 641" fill="none" xmlns="http://www.w3.org/2000/svg">
<path d="M640.325 263.097H589.451V347.267H545.803V146.066H589.451V227.642H640.325V146.066H683.972V347.267H640.325V263.097Z" fill="#EFF1ED"/>
<path d="M788.209 350.726C776.646 350.726 766.24 348.996 756.99 345.537C747.741 341.886 739.84 336.697 733.288 329.971C726.929 323.246 722.015 315.078 718.546 305.47C715.077 295.862 713.343 285.004 713.343 272.897C713.343 260.791 715.077 249.933 718.546 240.325C722.015 230.717 726.929 222.549 733.288 215.824C739.84 209.098 747.741 204.005 756.99 200.546C766.24 196.895 776.646 195.069 788.209 195.069C799.771 195.069 810.177 196.895 819.427 200.546C828.676 204.005 836.481 209.098 842.84 215.824C849.392 222.549 854.402 230.717 857.871 240.325C861.34 249.933 863.074 260.791 863.074 272.897C863.074 285.004 861.34 295.862 857.871 305.47C854.402 315.078 849.392 323.246 842.84 329.971C836.481 336.697 828.676 341.886 819.427 345.537C810.177 348.996 799.771 350.726 788.209 350.726ZM788.209 319.018C797.844 319.018 805.359 316.039 810.755 310.082C816.151 304.125 818.849 295.669 818.849 284.716V261.079C818.849 250.126 816.151 241.67 810.755 235.713C805.359 229.756 797.844 226.777 788.209 226.777C778.573 226.777 771.058 229.756 765.662 235.713C760.266 241.67 757.569 250.126 757.569 261.079V284.716C757.569 295.669 760.266 304.125 765.662 310.082C771.058 316.039 778.573 319.018 788.209 319.018Z" fill="#EFF1ED"/>
<path d="M973.092 347.267C957.675 347.267 946.21 343.231 938.694 335.16C931.179 327.089 927.421 316.808 927.421 304.317V231.677H886.953V198.528H913.257C919.616 198.528 924.145 197.279 926.843 194.781C929.541 192.283 930.889 187.671 930.889 180.945V146.066H970.201V198.528H1028.3V231.677H970.201V314.118H1028.3V347.267H973.092Z" fill="#EFF1ED"/>
<path d="M1129.07 263.385L1111.15 288.463V347.267H1067.79V146.066H1111.15V230.236H1113.46L1135.43 196.799L1170.98 146.066H1219.54L1159.13 231.101L1222.43 347.267H1173.58L1129.07 263.385Z" fill="#EFF1ED"/>
<path d="M1312.22 350.726C1287.17 350.726 1268.19 343.808 1255.27 329.971C1242.36 316.135 1235.91 297.303 1235.91 273.474C1235.91 261.367 1237.55 250.51 1240.82 240.901C1244.29 231.101 1249.11 222.838 1255.27 216.112C1261.63 209.194 1269.24 204.005 1278.11 200.546C1287.17 196.895 1297.28 195.069 1308.46 195.069C1319.64 195.069 1329.66 196.895 1338.52 200.546C1347.39 204.005 1354.9 209.002 1361.07 215.535C1367.24 222.069 1371.96 230.044 1375.23 239.46C1378.7 248.684 1380.44 259.061 1380.44 270.591V283.275H1278.4V285.869C1278.4 295.477 1281.39 303.26 1287.36 309.217C1293.33 314.982 1302.1 317.865 1313.66 317.865C1322.53 317.865 1330.14 316.231 1336.5 312.965C1342.86 309.506 1348.35 304.99 1352.97 299.417L1376.1 324.495C1370.32 331.605 1362.22 337.754 1351.82 342.943C1341.41 348.131 1328.21 350.726 1312.22 350.726ZM1308.75 225.624C1299.5 225.624 1292.08 228.507 1286.49 234.272C1281.1 239.845 1278.4 247.435 1278.4 257.044V259.35H1338.52V257.044C1338.52 247.243 1335.82 239.556 1330.43 233.983C1325.23 228.411 1318 225.624 1308.75 225.624Z" fill="#EFF1ED"/>
<path d="M1519.07 198.528H1562.72L1492.48 371.192C1488.04 382.145 1482.17 390.505 1474.84 396.27C1467.52 402.035 1457.5 404.917 1444.78 404.917H1415.3V371.768H1451.14L1460.39 346.402L1400.27 198.528H1446.23L1467.91 261.079L1481.49 304.317H1483.8L1496.81 261.079L1519.07 198.528Z" fill="#EFF1ED"/>
<path d="M1719.19 318.651H1716.6C1714.87 322.882 1712.75 326.922 1710.25 330.768C1707.75 334.615 1704.68 338.077 1701.03 341.155C1697.38 344.04 1693.05 346.348 1688.05 348.079C1683.25 349.81 1677.77 350.676 1671.62 350.676C1661.82 350.676 1653.07 348.368 1645.39 343.752C1637.89 339.135 1631.55 332.403 1626.36 323.556C1621.17 314.708 1617.23 303.937 1614.54 291.242C1612.04 278.547 1610.79 264.218 1610.79 248.253C1610.79 214.016 1617.04 187.857 1629.53 169.777C1642.02 151.504 1661.34 142.368 1687.48 142.368C1697.86 142.368 1706.99 143.811 1714.87 146.696C1722.75 149.389 1729.47 153.332 1735.05 158.525C1740.81 163.526 1745.52 169.585 1749.17 176.701C1752.83 183.818 1755.71 191.704 1757.82 200.36L1717.46 210.169C1716.31 205.938 1714.96 201.898 1713.42 198.052C1712.08 194.012 1710.25 190.454 1707.95 187.376C1705.64 184.299 1702.76 181.895 1699.3 180.164C1695.84 178.24 1691.61 177.278 1686.61 177.278C1675.66 177.278 1667.87 181.799 1663.26 190.839C1658.84 199.879 1656.63 212.573 1656.63 228.923V261.813C1656.63 278.163 1659.03 291.242 1663.84 301.051C1668.83 310.861 1677.58 315.766 1690.07 315.766C1699.87 315.766 1707.18 312.88 1711.98 307.11C1716.79 301.34 1719.19 293.935 1719.19 284.895V270.18H1684.88V239.598H1757.82V347.214H1719.19V318.651Z" fill="#EFF1ED"/>
<path d="M1794.9 314.035H1829.21V231.519H1794.9V198.34H1871.88V240.463H1873.89C1875.24 235.078 1877.07 229.884 1879.37 224.883C1881.87 219.69 1884.95 215.17 1888.6 211.323C1892.44 207.284 1897.05 204.11 1902.44 201.802C1907.82 199.494 1914.16 198.34 1921.46 198.34H1935.59V237.578H1903.88C1893.31 237.578 1885.33 240.752 1879.95 247.099C1874.57 253.254 1871.88 260.852 1871.88 269.892V314.035H1920.89V347.214H1794.9V314.035Z" fill="#EFF1ED"/>
<path d="M2032.92 350.676C2021.39 350.676 2011.01 348.945 2001.79 345.483C1992.56 341.828 1984.68 336.635 1978.15 329.903C1971.8 323.171 1966.9 314.996 1963.44 305.379C1959.98 295.762 1958.25 284.895 1958.25 272.777C1958.25 260.659 1959.98 249.792 1963.44 240.175C1966.9 230.558 1971.8 222.383 1978.15 215.651C1984.68 208.919 1992.56 203.822 2001.79 200.36C2011.01 196.705 2021.39 194.878 2032.92 194.878C2044.46 194.878 2054.83 196.705 2064.06 200.36C2073.29 203.822 2081.07 208.919 2087.41 215.651C2093.95 222.383 2098.94 230.558 2102.4 240.175C2105.86 249.792 2107.59 260.659 2107.59 272.777C2107.59 284.895 2105.86 295.762 2102.4 305.379C2098.94 314.996 2093.95 323.171 2087.41 329.903C2081.07 336.635 2073.29 341.828 2064.06 345.483C2054.83 348.945 2044.46 350.676 2032.92 350.676ZM2032.92 318.939C2042.53 318.939 2050.03 315.958 2055.41 309.995C2060.79 304.033 2063.48 295.57 2063.48 284.606V260.948C2063.48 249.984 2060.79 241.521 2055.41 235.558C2050.03 229.596 2042.53 226.615 2032.92 226.615C2023.31 226.615 2015.82 229.596 2010.44 235.558C2005.05 241.521 2002.36 249.984 2002.36 260.948V284.606C2002.36 295.57 2005.05 304.033 2010.44 309.995C2015.82 315.958 2023.31 318.939 2032.92 318.939Z" fill="#EFF1ED"/>
<path d="M2230.87 320.093H2229.14C2225.88 328.556 2220.69 335.769 2213.57 341.732C2206.66 347.695 2197.24 350.676 2185.32 350.676C2178.21 350.676 2171.67 349.522 2165.72 347.214C2159.76 344.713 2154.67 341.059 2150.44 336.25C2146.21 331.442 2142.84 325.575 2140.35 318.651C2138.04 311.726 2136.89 303.744 2136.89 294.704V198.34H2179.55V288.934C2179.55 308.168 2187.92 317.785 2204.64 317.785C2207.9 317.785 2211.08 317.401 2214.15 316.631C2217.42 315.669 2220.21 314.323 2222.51 312.592C2225.01 310.669 2227.03 308.36 2228.57 305.668C2230.1 302.975 2230.87 299.801 2230.87 296.147V198.34H2273.54V347.214H2230.87V320.093Z" fill="#EFF1ED"/>
<path d="M2309.18 198.34H2351.85V225.46H2353.86C2357.52 216.613 2362.8 209.304 2369.72 203.533C2376.64 197.763 2386.06 194.878 2397.97 194.878C2406.24 194.878 2413.73 196.417 2420.46 199.494C2427.38 202.572 2433.24 207.284 2438.05 213.631C2443.04 219.979 2446.89 228.057 2449.58 237.867C2452.46 247.676 2453.9 259.313 2453.9 272.777C2453.9 286.241 2452.46 297.878 2449.58 307.687C2446.89 317.497 2443.04 325.575 2438.05 331.922C2433.24 338.27 2427.38 342.982 2420.46 346.06C2413.73 349.137 2406.24 350.676 2397.97 350.676C2386.06 350.676 2376.64 347.887 2369.72 342.309C2362.8 336.539 2357.52 329.133 2353.86 320.093H2351.85V404.917H2309.18V198.34ZM2379.52 317.497C2389.13 317.497 2396.53 314.612 2401.72 308.841C2406.91 302.879 2409.51 294.704 2409.51 284.318V261.236C2409.51 250.85 2406.91 242.771 2401.72 237.001C2396.53 231.038 2389.13 228.057 2379.52 228.057C2372.03 228.057 2365.49 229.884 2359.92 233.539C2354.54 237.193 2351.85 242.964 2351.85 250.85V294.704C2351.85 302.59 2354.54 308.36 2359.92 312.015C2365.49 315.669 2372.03 317.497 2379.52 317.497Z" fill="#EFF1ED"/>
<path fill-rule="evenodd" clip-rule="evenodd" d="M384.609 94.291H457.055V354.389H387.171V330.305H432.957V119.98H384.609V94.291Z" fill="#5DB667"/>
<path d="M46.5913 94.291H120.491V119.98H70.689V330.305H159.047L144.588 380.88L210.455 330.305H250.618L98.8029 441.891L124.507 354.389H46.5913V94.291Z" fill="#5DB667"/>
<path d="M208.849 225.945C208.849 237.029 199.858 246.015 188.767 246.015C177.677 246.015 168.686 237.029 168.686 225.945C168.686 214.861 177.677 205.876 188.767 205.876C199.858 205.876 208.849 214.861 208.849 225.945Z" fill="#5DB667"/>
<path d="M274.716 225.945C274.716 237.029 265.725 246.015 254.634 246.015C243.544 246.015 234.553 237.029 234.553 225.945C234.553 214.861 243.544 205.876 254.634 205.876C265.725 205.876 274.716 214.861 274.716 225.945Z" fill="#5DB667"/>
<path d="M340.583 225.945C340.583 237.029 331.592 246.015 320.501 246.015C309.411 246.015 300.42 237.029 300.42 225.945C300.42 214.861 309.411 205.876 320.501 205.876C331.592 205.876 340.583 214.861 340.583 225.945Z" fill="#5DB667"/>
<path d="M2283.1 500.055C2280.2 500.055 2278.14 499.315 2276.91 497.835C2275.67 496.355 2274.9 494.505 2274.59 492.285H2274.13C2273.08 495.06 2271.39 497.249 2269.04 498.852C2266.76 500.394 2263.68 501.165 2259.79 501.165C2254.8 501.165 2250.82 499.87 2247.86 497.28C2244.9 494.69 2243.42 491.144 2243.42 486.643C2243.42 482.203 2245.02 478.781 2248.23 476.376C2251.5 473.971 2256.74 472.768 2263.96 472.768H2274.13V468.051C2274.13 464.536 2273.14 461.916 2271.17 460.189C2269.2 458.401 2266.39 457.507 2262.75 457.507C2259.55 457.507 2256.93 458.154 2254.89 459.449C2252.86 460.682 2251.22 462.378 2249.99 464.536L2244.99 460.836C2245.61 459.603 2246.44 458.401 2247.49 457.229C2248.54 456.057 2249.83 455.04 2251.38 454.177C2252.92 453.252 2254.68 452.543 2256.65 452.049C2258.62 451.494 2260.81 451.217 2263.22 451.217C2268.83 451.217 2273.27 452.635 2276.54 455.472C2279.87 458.308 2281.53 462.255 2281.53 467.311V493.58H2288.19V500.055H2283.1ZM2261.09 494.968C2263 494.968 2264.73 494.752 2266.27 494.32C2267.87 493.827 2269.26 493.21 2270.43 492.47C2271.6 491.669 2272.5 490.744 2273.11 489.695C2273.79 488.585 2274.13 487.414 2274.13 486.18V478.318H2263.96C2259.52 478.318 2256.28 478.935 2254.24 480.168C2252.21 481.401 2251.19 483.19 2251.19 485.533V487.475C2251.19 489.942 2252.05 491.823 2253.78 493.118C2255.57 494.351 2258.01 494.968 2261.09 494.968Z" fill="#EFF1ED"/>
<path d="M2210.99 500.055C2207.35 500.055 2204.67 499.037 2202.94 497.002C2201.28 494.967 2200.45 492.347 2200.45 489.14V458.616H2184.54V452.327H2196.38C2197.98 452.327 2199.09 452.018 2199.71 451.402C2200.39 450.723 2200.72 449.582 2200.72 447.979V435.492H2207.85V452.327H2229.58V458.616H2207.85V493.765H2229.58V500.055H2210.99Z" fill="#EFF1ED"/>
<path d="M2153.12 501.165C2149.67 501.165 2146.56 500.579 2143.78 499.407C2141.07 498.236 2138.73 496.571 2136.75 494.413C2134.84 492.193 2133.36 489.572 2132.31 486.55C2131.27 483.467 2130.74 480.045 2130.74 476.283C2130.74 472.46 2131.27 469.007 2132.31 465.924C2133.42 462.84 2134.93 460.22 2136.85 458.062C2138.76 455.842 2141.04 454.146 2143.69 452.974C2146.4 451.803 2149.39 451.217 2152.66 451.217C2155.87 451.217 2158.77 451.803 2161.36 452.974C2164.01 454.146 2166.26 455.78 2168.11 457.877C2169.96 459.911 2171.38 462.347 2172.36 465.184C2173.35 468.02 2173.84 471.134 2173.84 474.526V478.041H2138.51V480.261C2138.51 482.357 2138.85 484.3 2139.53 486.088C2140.21 487.876 2141.16 489.418 2142.4 490.713C2143.69 492.008 2145.23 493.025 2147.02 493.765C2148.87 494.443 2150.91 494.783 2153.12 494.783C2156.33 494.783 2159.11 494.043 2161.45 492.563C2163.79 491.083 2165.58 489.048 2166.81 486.458L2172.27 490.158C2170.85 493.364 2168.48 496.016 2165.15 498.112C2161.88 500.147 2157.87 501.165 2153.12 501.165ZM2152.66 457.322C2150.63 457.322 2148.75 457.692 2147.02 458.432C2145.29 459.171 2143.78 460.189 2142.49 461.484C2141.25 462.779 2140.27 464.32 2139.53 466.109C2138.85 467.835 2138.51 469.747 2138.51 471.843V472.491H2165.89V471.473C2165.89 469.377 2165.55 467.465 2164.87 465.739C2164.26 464.012 2163.36 462.532 2162.19 461.299C2161.08 460.004 2159.69 459.017 2158.03 458.339C2156.42 457.661 2154.64 457.322 2152.66 457.322Z" fill="#EFF1ED"/>
<path d="M2110.24 467.681V447.239H2109.5L2095.91 480.445L2082.31 447.239H2081.57V467.681V500.055H2074.45V435.492H2084.44L2095.81 463.981H2096.37L2107.75 435.492H2117.36V500.055H2110.24V467.681Z" fill="#EFF1ED"/>
<path d="M1964.17 452.327H1971.57V460.096H1971.94C1975.02 454.177 1979.93 451.217 1986.65 451.217C1992.51 451.217 1997.07 453.406 2000.34 457.784C2003.67 462.162 2005.33 468.298 2005.33 476.191C2005.33 484.084 2003.67 490.219 2000.34 494.598C1997.07 498.976 1992.51 501.165 1986.65 501.165C1979.93 501.165 1975.02 498.205 1971.94 492.285H1971.57V518.554H1964.17V452.327ZM1983.78 494.598C1988.1 494.598 1991.43 493.303 1993.77 490.713C1996.17 488.061 1997.38 484.577 1997.38 480.261V472.121C1997.38 467.804 1996.17 464.351 1993.77 461.761C1991.43 459.11 1988.1 457.784 1983.78 457.784C1982.12 457.784 1980.54 458 1979.06 458.432C1977.58 458.863 1976.29 459.511 1975.18 460.374C1974.07 461.176 1973.17 462.193 1972.5 463.426C1971.88 464.598 1971.57 465.985 1971.57 467.589V484.793C1971.57 486.396 1971.88 487.814 1972.5 489.048C1973.17 490.219 1974.07 491.237 1975.18 492.1C1976.29 492.902 1977.58 493.518 1979.06 493.95C1980.54 494.382 1982.12 494.598 1983.78 494.598Z" fill="#EFF1ED"/>
<path d="M1927.58 501.165C1924.13 501.165 1921.01 500.579 1918.24 499.407C1915.52 498.236 1913.18 496.571 1911.21 494.413C1909.3 492.193 1907.82 489.572 1906.77 486.55C1905.72 483.467 1905.19 480.045 1905.19 476.283C1905.19 472.46 1905.72 469.007 1906.77 465.924C1907.88 462.84 1909.39 460.22 1911.3 458.062C1913.21 455.842 1915.49 454.146 1918.14 452.974C1920.86 451.803 1923.85 451.217 1927.12 451.217C1930.32 451.217 1933.22 451.803 1935.81 452.974C1938.46 454.146 1940.71 455.78 1942.56 457.877C1944.41 459.911 1945.83 462.347 1946.82 465.184C1947.8 468.02 1948.3 471.134 1948.3 474.526V478.041H1912.96V480.261C1912.96 482.357 1913.3 484.3 1913.98 486.088C1914.66 487.876 1915.62 489.418 1916.85 490.713C1918.14 492.008 1919.69 493.025 1921.47 493.765C1923.32 494.443 1925.36 494.783 1927.58 494.783C1930.79 494.783 1933.56 494.043 1935.9 492.563C1938.25 491.083 1940.03 489.048 1941.27 486.458L1946.73 490.158C1945.31 493.364 1942.93 496.016 1939.6 498.112C1936.33 500.147 1932.33 501.165 1927.58 501.165ZM1927.12 457.322C1925.08 457.322 1923.2 457.692 1921.47 458.432C1919.75 459.171 1918.24 460.189 1916.94 461.484C1915.71 462.779 1914.72 464.32 1913.98 466.109C1913.3 467.835 1912.96 469.747 1912.96 471.843V472.491H1940.34V471.473C1940.34 469.377 1940 467.465 1939.33 465.739C1938.71 464.012 1937.81 462.532 1936.64 461.299C1935.53 460.004 1934.15 459.017 1932.48 458.339C1930.88 457.661 1929.09 457.322 1927.12 457.322Z" fill="#EFF1ED"/>
<path d="M1851.4 452.327H1858.8V472.306H1881.92V452.327H1889.32V500.055H1881.92V478.596H1858.8V500.055H1851.4V452.327Z" fill="#EFF1ED"/>
<path d="M1810.27 458.617H1792.7V452.327H1835.25V458.617H1817.67V500.055H1810.27V458.617Z" fill="#EFF1ED"/>
<path d="M1738.62 452.327H1746.02V460.096H1746.39C1749.48 454.177 1754.38 451.217 1761.1 451.217C1766.96 451.217 1771.52 453.406 1774.79 457.784C1778.12 462.162 1779.79 468.298 1779.79 476.191C1779.79 484.084 1778.12 490.219 1774.79 494.598C1771.52 498.976 1766.96 501.165 1761.1 501.165C1754.38 501.165 1749.48 498.205 1746.39 492.285H1746.02V518.554H1738.62V452.327ZM1758.23 494.598C1762.55 494.598 1765.88 493.303 1768.22 490.713C1770.63 488.061 1771.83 484.577 1771.83 480.261V472.121C1771.83 467.804 1770.63 464.351 1768.22 461.761C1765.88 459.11 1762.55 457.784 1758.23 457.784C1756.57 457.784 1755 458 1753.52 458.432C1752.04 458.863 1750.74 459.511 1749.63 460.374C1748.52 461.176 1747.63 462.193 1746.95 463.426C1746.33 464.598 1746.02 465.985 1746.02 467.589V484.793C1746.02 486.396 1746.33 487.814 1746.95 489.048C1747.63 490.219 1748.52 491.237 1749.63 492.1C1750.74 492.902 1752.04 493.518 1753.52 493.95C1755 494.382 1756.57 494.598 1758.23 494.598Z" fill="#EFF1ED"/>
<path d="M1719.24 500.055C1716.34 500.055 1714.27 499.315 1713.04 497.835C1711.81 496.355 1711.03 494.505 1710.73 492.285H1710.26C1709.22 495.06 1707.52 497.249 1705.18 498.852C1702.9 500.394 1699.81 501.165 1695.93 501.165C1690.93 501.165 1686.96 499.87 1684 497.28C1681.04 494.69 1679.56 491.144 1679.56 486.643C1679.56 482.203 1681.16 478.781 1684.37 476.376C1687.63 473.971 1692.87 472.768 1700.09 472.768H1710.26V468.051C1710.26 464.536 1709.28 461.916 1707.3 460.189C1705.33 458.401 1702.53 457.507 1698.89 457.507C1695.68 457.507 1693.06 458.154 1691.02 459.449C1688.99 460.682 1687.36 462.378 1686.12 464.536L1681.13 460.836C1681.74 459.603 1682.58 458.401 1683.63 457.229C1684.67 456.057 1685.97 455.04 1687.51 454.177C1689.05 453.252 1690.81 452.543 1692.78 452.049C1694.76 451.494 1696.94 451.217 1699.35 451.217C1704.96 451.217 1709.4 452.635 1712.67 455.472C1716 458.308 1717.66 462.255 1717.66 467.311V493.58H1724.32V500.055H1719.24ZM1697.22 494.968C1699.13 494.968 1700.86 494.752 1702.4 494.32C1704.01 493.827 1705.39 493.21 1706.56 492.47C1707.74 491.669 1708.63 490.744 1709.25 489.695C1709.92 488.585 1710.26 487.414 1710.26 486.18V478.318H1700.09C1695.65 478.318 1692.41 478.935 1690.38 480.168C1688.34 481.401 1687.33 483.19 1687.33 485.533V487.475C1687.33 489.942 1688.19 491.823 1689.91 493.118C1691.7 494.351 1694.14 494.968 1697.22 494.968Z" fill="#EFF1ED"/>
<path d="M1626.04 452.327H1663.59V500.055H1656.19V458.617H1633.44V500.055H1626.04V452.327Z" fill="#EFF1ED"/>
<path d="M1575.01 475.82V468.051H1601.84V475.82H1575.01Z" fill="#EFF1ED"/>
<path d="M1533.7 501.165C1530.25 501.165 1527.17 500.579 1524.46 499.407C1521.8 498.174 1519.55 496.478 1517.7 494.32C1515.85 492.162 1514.43 489.541 1513.45 486.458C1512.52 483.375 1512.06 479.952 1512.06 476.191C1512.06 472.429 1512.55 469.007 1513.54 465.924C1514.53 462.84 1515.95 460.22 1517.8 458.062C1519.65 455.842 1521.9 454.146 1524.55 452.974C1527.2 451.803 1530.22 451.217 1533.61 451.217C1538.24 451.217 1542 452.234 1544.9 454.269C1547.79 456.304 1549.92 458.956 1551.28 462.224L1545.36 465.369C1544.5 462.902 1543.05 460.991 1541.01 459.634C1539.04 458.277 1536.57 457.599 1533.61 457.599C1531.45 457.599 1529.51 457.969 1527.78 458.709C1526.12 459.387 1524.7 460.374 1523.53 461.669C1522.36 462.964 1521.46 464.505 1520.85 466.294C1520.29 468.082 1520.02 470.024 1520.02 472.121V480.261C1520.02 482.357 1520.29 484.3 1520.85 486.088C1521.46 487.876 1522.36 489.418 1523.53 490.713C1524.7 492.008 1526.15 493.025 1527.88 493.765C1529.6 494.443 1531.58 494.783 1533.8 494.783C1537 494.783 1539.66 494.043 1541.75 492.563C1543.85 491.083 1545.51 489.048 1546.75 486.458L1552.02 490.065C1550.6 493.272 1548.38 495.923 1545.36 498.02C1542.4 500.117 1538.51 501.165 1533.7 501.165Z" fill="#EFF1ED"/>
<path d="M1476.49 501.165C1473.03 501.165 1469.92 500.579 1467.14 499.407C1464.43 498.236 1462.09 496.571 1460.11 494.413C1458.2 492.193 1456.72 489.572 1455.67 486.55C1454.63 483.467 1454.1 480.045 1454.1 476.283C1454.1 472.46 1454.63 469.007 1455.67 465.924C1456.78 462.84 1458.29 460.22 1460.21 458.062C1462.12 455.842 1464.4 454.146 1467.05 452.974C1469.76 451.803 1472.76 451.217 1476.02 451.217C1479.23 451.217 1482.13 451.803 1484.72 452.974C1487.37 454.146 1489.62 455.78 1491.47 457.877C1493.32 459.911 1494.74 462.347 1495.72 465.184C1496.71 468.02 1497.2 471.134 1497.2 474.526V478.041H1461.87V480.261C1461.87 482.357 1462.21 484.3 1462.89 486.088C1463.57 487.876 1464.52 489.418 1465.76 490.713C1467.05 492.008 1468.59 493.025 1470.38 493.765C1472.23 494.443 1474.27 494.783 1476.49 494.783C1479.69 494.783 1482.47 494.043 1484.81 492.563C1487.15 491.083 1488.94 489.048 1490.18 486.458L1495.63 490.158C1494.21 493.364 1491.84 496.016 1488.51 498.112C1485.24 500.147 1481.23 501.165 1476.49 501.165ZM1476.02 457.322C1473.99 457.322 1472.11 457.692 1470.38 458.432C1468.65 459.171 1467.14 460.189 1465.85 461.484C1464.62 462.779 1463.63 464.32 1462.89 466.109C1462.21 467.835 1461.87 469.747 1461.87 471.843V472.491H1489.25V471.473C1489.25 469.377 1488.91 467.465 1488.23 465.739C1487.62 464.012 1486.72 462.532 1485.55 461.299C1484.44 460.004 1483.05 459.017 1481.39 458.339C1479.78 457.661 1478 457.322 1476.02 457.322Z" fill="#EFF1ED"/>
<path d="M1400.3 452.327H1407.7V472.306H1430.83V452.327H1438.23V500.055H1430.83V478.596H1407.7V500.055H1400.3V452.327Z" fill="#EFF1ED"/>
<path d="M1360.94 501.165C1356 501.165 1351.9 500.363 1348.64 498.76C1345.43 497.157 1342.81 494.875 1340.77 491.915L1346.23 487.475C1347.71 489.819 1349.65 491.638 1352.06 492.933C1354.46 494.166 1357.42 494.783 1360.94 494.783C1365.38 494.783 1368.58 494.073 1370.56 492.655C1372.53 491.237 1373.52 489.418 1373.52 487.198V485.903C1373.52 483.498 1372.72 481.679 1371.11 480.446C1369.57 479.151 1367.32 478.503 1364.36 478.503H1351.5V472.306H1363.43C1369.48 472.306 1372.5 470.055 1372.5 465.554V464.444C1372.5 462.409 1371.64 460.775 1369.91 459.541C1368.24 458.247 1365.32 457.599 1361.12 457.599C1357.42 457.599 1354.43 458.216 1352.15 459.449C1349.93 460.682 1348.11 462.409 1346.69 464.629L1341.51 461.114C1343.67 457.969 1346.29 455.533 1349.38 453.807C1352.46 452.08 1356.5 451.217 1361.49 451.217C1367.84 451.217 1372.56 452.358 1375.64 454.639C1378.79 456.921 1380.36 460.066 1380.36 464.074C1380.36 467.034 1379.59 469.377 1378.05 471.104C1376.51 472.83 1374.35 474.033 1371.57 474.711V475.081C1374.78 475.574 1377.22 476.807 1378.88 478.781C1380.55 480.692 1381.38 483.159 1381.38 486.18C1381.38 490.805 1379.59 494.474 1376.01 497.187C1372.5 499.839 1367.47 501.165 1360.94 501.165Z" fill="#EFF1ED"/>
<path d="M1287.53 452.327H1294.93V476.654L1294.19 488.863H1294.56L1318.52 452.327H1325.46V500.055H1318.06V475.729L1318.8 463.519H1318.43L1294.47 500.055H1287.53V452.327Z" fill="#EFF1ED"/>
<path d="M1250.2 501.164C1246.99 501.164 1244.06 500.579 1241.41 499.407C1238.82 498.235 1236.57 496.447 1234.66 494.042C1232.81 491.637 1231.36 488.616 1230.31 484.978C1229.26 481.278 1228.74 476.9 1228.74 471.843C1228.74 464.813 1229.2 458.832 1230.13 453.899C1231.11 448.966 1232.59 444.896 1234.57 441.689C1236.6 438.483 1239.16 436.109 1242.24 434.567C1245.39 433.025 1249.12 432.1 1253.44 431.792L1268.05 430.867V438.174L1252.7 439.192C1250.05 439.377 1247.76 439.87 1245.85 440.672C1244 441.473 1242.43 442.768 1241.13 444.557C1239.9 446.283 1238.91 448.565 1238.17 451.401C1237.43 454.238 1236.88 457.784 1236.51 462.038H1236.97C1238.27 458.955 1240.09 456.581 1242.43 454.916C1244.77 453.19 1247.7 452.326 1251.22 452.326C1254.24 452.326 1257.01 452.881 1259.54 453.991C1262.07 455.101 1264.23 456.704 1266.02 458.801C1267.8 460.836 1269.19 463.395 1270.18 466.478C1271.23 469.5 1271.75 472.953 1271.75 476.838C1271.75 480.476 1271.23 483.775 1270.18 486.735C1269.13 489.695 1267.65 492.254 1265.74 494.412C1263.83 496.57 1261.55 498.235 1258.89 499.407C1256.3 500.579 1253.41 501.164 1250.2 501.164ZM1250.2 494.782C1254.21 494.782 1257.48 493.549 1260 491.082C1262.59 488.554 1263.89 484.885 1263.89 480.075V474.248C1263.89 469.068 1262.62 465.183 1260.1 462.593C1257.63 460.004 1254.39 458.709 1250.38 458.709C1245.7 458.709 1242.21 459.849 1239.93 462.131C1237.71 464.351 1236.6 467.218 1236.6 470.733V480.075C1236.6 484.885 1237.84 488.554 1240.3 491.082C1242.83 493.549 1246.13 494.782 1250.2 494.782Z" fill="#EFF1ED"/>
<path d="M1118.37 452.327H1125.77V476.653L1125.03 488.863H1125.4L1149.36 452.327H1156.3V500.055H1148.9V475.728L1149.64 463.519H1149.27L1125.31 500.055H1118.37V452.327ZM1137.06 445.019C1133.91 445.019 1131.35 444.341 1129.38 442.985C1127.41 441.566 1125.68 439.377 1124.2 436.417L1121.61 431.145L1128.27 429.018L1131.97 438.822C1132.65 439.069 1133.48 439.223 1134.47 439.285C1135.45 439.346 1136.32 439.377 1137.06 439.377C1137.8 439.377 1138.66 439.346 1139.65 439.285C1140.63 439.223 1141.46 439.069 1142.14 438.822L1145.84 429.018L1152.5 431.145L1149.91 436.417C1148.43 439.377 1146.71 441.566 1144.73 442.985C1142.76 444.341 1140.2 445.019 1137.06 445.019Z" fill="#EFF1ED"/>
<path d="M1058.19 452.327H1065.59V469.624H1073.64C1078.45 469.624 1082.27 470.981 1085.11 473.694C1087.95 476.407 1089.36 480.138 1089.36 484.886C1089.36 489.696 1087.98 493.426 1085.2 496.078C1082.43 498.729 1078.6 500.055 1073.73 500.055H1058.19V452.327ZM1072.62 493.765C1075.4 493.765 1077.56 493.211 1079.1 492.101C1080.7 490.991 1081.5 489.202 1081.5 486.736V482.851C1081.5 480.384 1080.7 478.627 1079.1 477.579C1077.56 476.469 1075.4 475.914 1072.62 475.914H1065.59V493.765H1072.62ZM1096.3 452.327H1103.7V500.055H1096.3V452.327Z" fill="#EFF1ED"/>
<path d="M1005.6 452.327H1013V472.306H1036.12V452.327H1043.52V500.055H1036.12V478.596H1013V500.055H1005.6V452.327Z" fill="#EFF1ED"/>
<path d="M950.692 452.327H958.092V469.624H972.891C977.701 469.624 981.524 470.981 984.361 473.694C987.197 476.407 988.615 480.138 988.615 484.886C988.615 489.696 987.228 493.426 984.453 496.078C981.678 498.729 977.855 500.055 972.983 500.055H950.692V452.327ZM971.874 493.765C974.648 493.765 976.807 493.211 978.348 492.101C979.952 490.991 980.753 489.202 980.753 486.736V482.851C980.753 480.384 979.952 478.627 978.348 477.579C976.807 476.469 974.648 475.914 971.874 475.914H958.092V493.765H971.874Z" fill="#EFF1ED"/>
<path d="M886.443 493.765H892.363C893.288 492.594 894.089 491.206 894.768 489.603C895.508 488 896.093 486.088 896.525 483.868C897.018 481.648 897.388 479.089 897.635 476.191C897.882 473.231 898.005 469.809 898.005 465.924V452.327H929.731V500.055H922.332V458.617H905.22V466.109C905.22 474.742 904.572 481.525 903.277 486.458C902.044 491.33 900.379 494.814 898.283 496.91C897.111 498.082 895.816 498.914 894.398 499.408C892.979 499.839 891.284 500.055 889.31 500.055H886.443V493.765Z" fill="#EFF1ED"/>
<path d="M873.437 500.055C870.539 500.055 868.473 499.315 867.24 497.835C866.007 496.355 865.236 494.505 864.927 492.285H864.465C863.417 495.06 861.721 497.249 859.378 498.852C857.096 500.394 854.013 501.165 850.128 501.165C845.133 501.165 841.156 499.87 838.196 497.28C835.236 494.69 833.756 491.144 833.756 486.643C833.756 482.203 835.359 478.781 838.566 476.376C841.834 473.971 847.076 472.768 854.29 472.768H864.465V468.051C864.465 464.536 863.478 461.916 861.505 460.189C859.532 458.401 856.726 457.507 853.088 457.507C849.881 457.507 847.261 458.154 845.226 459.449C843.191 460.682 841.557 462.378 840.323 464.536L835.329 460.836C835.945 459.603 836.778 458.401 837.826 457.229C838.874 456.057 840.169 455.04 841.711 454.177C843.253 453.252 845.01 452.543 846.983 452.049C848.956 451.494 851.146 451.217 853.55 451.217C859.162 451.217 863.602 452.635 866.87 455.472C870.2 458.308 871.865 462.255 871.865 467.311V493.58H878.524V500.055H873.437ZM851.423 494.968C853.335 494.968 855.061 494.752 856.603 494.32C858.206 493.827 859.594 493.21 860.765 492.47C861.937 491.669 862.831 490.744 863.448 489.695C864.126 488.585 864.465 487.414 864.465 486.18V478.318H854.29C849.851 478.318 846.613 478.935 844.578 480.168C842.543 481.401 841.526 483.19 841.526 485.533V487.475C841.526 489.942 842.389 491.823 844.116 493.118C845.904 494.351 848.34 494.968 851.423 494.968Z" fill="#EFF1ED"/>
<path d="M780.052 452.327H787.452V476.654L786.712 488.863H787.082L811.038 452.327H817.976V500.055H810.576V475.729L811.316 463.519H810.946L786.989 500.055H780.052V452.327Z" fill="#EFF1ED"/>
<path d="M760.849 500.055H722.648V452.327H730.048V493.765H752.339V452.327H759.739V493.765H767.601V513.005H760.849V500.055Z" fill="#EFF1ED"/>
<path d="M667.279 452.327H674.679V476.654L673.939 488.863H674.309L698.265 452.327H705.202V500.055H697.803V475.729L698.543 463.519H698.173L674.216 500.055H667.279V452.327Z" fill="#EFF1ED"/>
<path d="M620.049 494.968C622.084 494.968 623.657 494.382 624.767 493.21C625.877 492.039 626.432 490.281 626.432 487.938V464.444C626.432 462.101 625.877 460.343 624.767 459.172C623.657 458 622.084 457.414 620.049 457.414C618.939 457.414 617.953 457.63 617.089 458.062C616.226 458.494 615.517 459.264 614.962 460.374C614.407 461.484 613.975 462.995 613.667 464.907C613.359 466.757 613.205 469.131 613.205 472.029V480.353C613.205 483.252 613.359 485.657 613.667 487.568C613.975 489.418 614.407 490.898 614.962 492.008C615.517 493.118 616.226 493.889 617.089 494.32C617.953 494.752 618.939 494.968 620.049 494.968ZM626.432 495.153H626.154C625.106 497.311 623.873 498.853 622.454 499.778C621.098 500.703 619.525 501.165 617.737 501.165C615.887 501.165 614.222 500.795 612.742 500.055C611.324 499.254 610.121 497.897 609.135 495.985C608.148 494.074 607.408 491.515 606.915 488.308C606.422 485.102 606.175 481.063 606.175 476.191C606.175 471.32 606.422 467.281 606.915 464.074C607.408 460.868 608.148 458.309 609.135 456.397C610.121 454.485 611.324 453.16 612.742 452.42C614.222 451.618 615.887 451.217 617.737 451.217C619.525 451.217 621.098 451.68 622.454 452.605C623.873 453.53 625.106 455.071 626.154 457.229H626.432V434.383H633.276V457.229H633.554C634.602 455.071 635.805 453.53 637.161 452.605C638.579 451.68 640.183 451.217 641.971 451.217C643.821 451.217 645.455 451.618 646.873 452.42C648.353 453.16 649.587 454.485 650.573 456.397C651.56 458.309 652.3 460.868 652.793 464.074C653.286 467.281 653.533 471.32 653.533 476.191C653.533 481.063 653.286 485.102 652.793 488.308C652.3 491.515 651.56 494.074 650.573 495.985C649.587 497.897 648.353 499.254 646.873 500.055C645.455 500.795 643.821 501.165 641.971 501.165C640.183 501.165 638.579 500.703 637.161 499.778C635.805 498.853 634.602 497.311 633.554 495.153H633.276V518.554H626.432V495.153ZM639.659 494.968C640.769 494.968 641.755 494.752 642.618 494.32C643.482 493.889 644.191 493.118 644.746 492.008C645.301 490.898 645.733 489.418 646.041 487.568C646.349 485.657 646.503 483.252 646.503 480.353V472.029C646.503 469.131 646.349 466.757 646.041 464.907C645.733 462.995 645.301 461.484 644.746 460.374C644.191 459.264 643.482 458.494 642.618 458.062C641.755 457.63 640.769 457.414 639.659 457.414C637.624 457.414 636.051 458 634.941 459.172C633.831 460.343 633.276 462.101 633.276 464.444V487.938C633.276 490.281 633.831 492.039 634.941 493.21C636.051 494.382 637.624 494.968 639.659 494.968Z" fill="#EFF1ED"/>
<path d="M573.467 501.165C569.521 501.165 566.129 500.425 563.293 498.945C560.456 497.404 558.113 495.215 556.263 492.378C554.413 489.541 553.056 486.057 552.193 481.926C551.33 477.794 550.898 473.077 550.898 467.774C550.898 462.533 551.33 457.846 552.193 453.715C553.056 449.521 554.413 446.007 556.263 443.17C558.113 440.333 560.456 438.175 563.293 436.695C566.129 435.154 569.521 434.383 573.467 434.383C577.414 434.383 580.805 435.154 583.642 436.695C586.478 438.175 588.822 440.333 590.672 443.17C592.522 446.007 593.878 449.521 594.741 453.715C595.605 457.846 596.036 462.533 596.036 467.774C596.036 473.077 595.605 477.794 594.741 481.926C593.878 486.057 592.522 489.541 590.672 492.378C588.822 495.215 586.478 497.404 583.642 498.945C580.805 500.425 577.414 501.165 573.467 501.165ZM573.467 494.413C576.057 494.413 578.246 493.92 580.035 492.933C581.823 491.885 583.303 490.436 584.474 488.586C585.646 486.736 586.478 484.516 586.972 481.926C587.527 479.274 587.804 476.314 587.804 473.046V462.502C587.804 459.295 587.527 456.366 586.972 453.715C586.478 451.063 585.646 448.812 584.474 446.962C583.303 445.112 581.823 443.694 580.035 442.707C578.246 441.659 576.057 441.135 573.467 441.135C570.877 441.135 568.688 441.659 566.9 442.707C565.112 443.694 563.632 445.112 562.46 446.962C561.289 448.812 560.425 451.063 559.87 453.715C559.377 456.366 559.13 459.295 559.13 462.502V473.046C559.13 476.314 559.377 479.274 559.87 481.926C560.425 484.516 561.289 486.736 562.46 488.586C563.632 490.436 565.112 491.885 566.9 492.933C568.688 493.92 570.877 494.413 573.467 494.413Z" fill="#EFF1ED"/>
</svg>
