<svg width="48" height="48" viewBox="0 0 48 48" fill="none" xmlns="http://www.w3.org/2000/svg">
<path d="M8 2H40C40.5304 2 41.0391 2.21071 41.4142 2.58579C41.7893 2.96086 42 3.46957 42 4V12C42 12.5304 41.7893 13.0391 41.4142 13.4142C41.0391 13.7893 40.5304 14 40 14H8C7.46957 14 6.96086 13.7893 6.58579 13.4142C6.21071 13.0391 6 12.5304 6 12V4C6 3.46957 6.21071 2.96086 6.58579 2.58579C6.96086 2.21071 7.46957 2 8 2ZM8 18H40C40.5304 18 41.0391 18.2107 41.4142 18.5858C41.7893 18.9609 42 19.4696 42 20V28C42 28.5304 41.7893 29.0391 41.4142 29.4142C41.0391 29.7893 40.5304 30 40 30H8C7.46957 30 6.96086 29.7893 6.58579 29.4142C6.21071 29.0391 6 28.5304 6 28V20C6 19.4696 6.21071 18.9609 6.58579 18.5858C6.96086 18.2107 7.46957 18 8 18ZM8 34H40C40.5304 34 41.0391 34.2107 41.4142 34.5858C41.7893 34.9609 42 35.4696 42 36V44C42 44.5304 41.7893 45.0391 41.4142 45.4142C41.0391 45.7893 40.5304 46 40 46H8C7.46957 46 6.96086 45.7893 6.58579 45.4142C6.21071 45.0391 6 44.5304 6 44V36C6 35.4696 6.21071 34.9609 6.58579 34.5858C6.96086 34.2107 7.46957 34 8 34ZM18 10H20V6H18V10ZM18 26H20V22H18V26ZM18 42H20V38H18V42ZM10 6V10H14V6H10ZM10 22V26H14V22H10ZM10 38V42H14V38H10Z" fill="white"/>
</svg>
